<svg width="120" height="120" fill="none" xmlns="http://www.w3.org/2000/svg"><path d="M119.444 63.9c0-30.79-25.518-55.676-56.097-55.676-7.38 0-13.71 1.052-18.982 3.163l-3.584-9.49c-.212-.633-1.053-1.053-1.688-.844C21.167 8.015 6.824 22.146.076 40.07c-.211.632 0 1.475.844 1.687l9.7 3.584C-1.4 83.726 26.015 120 63.344 120c31.002 0 56.097-25.095 56.097-56.097l.003-.003zM70.092 11.388c-1.052 6.327-6.539 35.43-8.647 47.029l-16.239-44.29c7.38-3.163 17.295-3.795 24.886-2.74zM35.927 55.044l23.41 8.856-19.403 17.083c-5.483-7.803-6.748-17.295-4.007-25.942v.003zm2.952-51.037L59.758 61.16 3.028 39.858c6.54-16.24 19.615-29.314 35.854-35.85h-.003zM12.94 46.397l20.246 7.592c-2.952 9.488-1.476 20.034 4.428 28.47l-16.238 14.13c-10.968-14.342-13.71-32.9-8.436-50.195v.003zm50.404 70.86c-16.027 0-30.37-7.171-40.07-18.56l16.24-14.13c5.907 6.96 14.342 11.179 24.042 11.179 16.871 0 30.79-13.075 31.846-29.947 0-.632-.42-1.264-1.264-1.476-.633 0-1.265.421-1.477 1.265-.843 15.395-13.707 27.415-29.105 27.415-8.856 0-16.66-4.005-21.934-10.332C64.4 62.633 62.924 64.11 62.924 63.9c.209-.213.209-.421.209-.633.211-.844 6.327-33.745 9.49-51.88 25.099 4.64 44.29 26.362 44.29 52.512 0 29.526-24.043 53.357-53.569 53.357z" fill="#960096"/><path d="M11.043 99.965c-3.584 0-6.539 2.955-6.539 6.539 0 3.584 2.952 6.536 6.54 6.536 3.586 0 6.538-2.952 6.538-6.536 0-3.584-2.952-6.539-6.539-6.539zm0 10.544c-2.108 0-4.007-1.685-4.007-4.005s1.688-4.007 4.007-4.007c2.32 0 4.008 1.687 4.008 4.007 0 2.32-1.897 4.005-4.008 4.005zm99.542-92.162c4.64 0 8.647-3.796 8.647-8.647 0-4.851-3.795-8.647-8.647-8.647-4.851 0-8.647 4.007-8.647 8.647 0 4.64 3.796 8.647 8.647 8.647zm0-14.551c3.376 0 5.907 2.74 5.907 5.904 0 3.164-2.743 5.907-5.907 5.907-3.163 0-5.907-2.743-5.907-5.907s2.532-5.904 5.907-5.904zm6.539 93.638a1.896 1.896 0 110 3.793 1.897 1.897 0 010-3.793zm-92.373 15.818a1.897 1.897 0 11.004 3.792 1.897 1.897 0 01-.004-3.792zM2.396 79.086a1.898 1.898 0 11.003 3.79 1.898 1.898 0 01-.003-3.79zm113.461-51.459a1.9 1.9 0 011.9 1.896 1.9 1.9 0 01-1.9 1.9c-1.05 0-1.896-.85-1.896-1.9 0-1.05.849-1.896 1.896-1.896zM85.49 1.264a1.897 1.897 0 110 3.794 1.897 1.897 0 010-3.794zM18.212 0a1.898 1.898 0 11.003 3.795A1.898 1.898 0 0118.212 0zM2.396 17.083a1.9 1.9 0 011.9 1.896 1.9 1.9 0 01-1.9 1.9c-1.05 0-1.896-.85-1.896-1.9 0-1.05.85-1.896 1.896-1.896zm91.53 42.18a1.264 1.264 0 110 2.529 1.264 1.264 0 010-2.529zm8.647 53.989a1.897 1.897 0 11-.002 3.794 1.897 1.897 0 01.002-3.794z" fill="#960096"/></svg>