<svg width="51" height="50" fill="none" xmlns="http://www.w3.org/2000/svg"><path d="M25.437 46.674c-6.652-.01-12.702-2.806-16.877-7.68a21.312 21.312 0 01-5.134-12.523 21.03 21.03 0 01-.018-2.693c.197-3.332 1.105-6.46 2.757-9.363a21.908 21.908 0 0116.77-10.959 22.271 22.271 0 013.647-.091c7.83.457 14.587 4.946 18.11 11.528a21.123 21.123 0 012.185 6.29c.182 1.021.287 2.05.327 3.088a20.1 20.1 0 01-.055 2.457c-.33 3.965-1.636 7.582-3.973 10.803-3.18 4.381-7.422 7.21-12.672 8.524a20.64 20.64 0 01-2.846.49c-.786.084-1.575.117-2.221.13zm12.406-12.007a5.766 5.766 0 00-.135-1.259c-.538-2.542-2.731-4.727-5.8-4.916a6.162 6.162 0 00-2.538.384c-2.768 1.023-4.417 3.787-4.033 6.631a6.108 6.108 0 001.497 3.271c1.473 1.68 3.807 2.465 6.046 1.987 2.835-.604 4.956-3.077 4.962-6.098zM12.749 15.31c0 .93.203 1.816.605 2.655 1.334 2.787 4.544 4.186 7.516 3.28 2.588-.79 4.355-3.087 4.44-5.786a5.952 5.952 0 00-.483-2.537c-1.244-2.93-4.424-4.387-7.369-3.625-2.79.721-4.707 3.176-4.71 6.013zm28.283 2.985c.016-.949-.236-1.9-.61-2.671-1.226-2.534-4.02-3.94-6.808-3.427-2.778.512-4.86 2.767-5.115 5.56a6 6 0 00.556 3.149 6.292 6.292 0 006.977 3.474c2.902-.592 5.015-3.133 5-6.085zm-18.92 13.348a5.235 5.235 0 00-.134-1.249c-.689-3.096-3.54-5.11-6.593-4.886a6.29 6.29 0 00-2.707.826c-2.82 1.617-3.919 5.111-2.516 8.025 1.338 2.78 4.43 4.09 7.274 3.344a6.225 6.225 0 004.676-6.06zm5.86-6.492c.025-1.365-1.09-2.755-2.797-2.765a2.782 2.782 0 00-2.797 2.77c0 1.524 1.257 2.765 2.802 2.764 1.576-.002 2.81-1.283 2.792-2.769zM39.877 6.219l1.342.352c1.223.322 2.45.63 3.669.969a7.742 7.742 0 015.554 5.95 7.479 7.479 0 01-.115 3.473c-.43 1.606-.86 3.212-1.292 4.817-.017.062-.038.122-.068.215-.94-6.486-4.001-11.707-9.09-15.776z" fill="#fff"/><path d="M28.771 48.516c6.356-1.077 11.526-4.125 15.54-9.159l-.077.294c-.42 1.558-.829 3.12-1.26 4.674a7.773 7.773 0 01-5.733 5.471c-1.37.317-2.724.255-4.075-.114-1.406-.384-2.818-.744-4.228-1.114-.056-.015-.11-.034-.166-.052zm-7.05-47.06c-6.138.965-11.212 3.802-15.248 8.555.006-.06.005-.097.014-.131.376-1.402.743-2.807 1.133-4.205A7.771 7.771 0 0113.373.202a8.048 8.048 0 013.934.09c1.402.375 2.808.738 4.211 1.107.068.018.136.038.203.058zM1.383 28.895c1.11 6.018 4.074 10.908 8.81 14.75l-.957-.25c-1.177-.31-2.357-.607-3.529-.932a7.743 7.743 0 01-5.556-5.947c-.246-1.196-.185-2.384.134-3.562.354-1.302.701-2.605 1.051-3.908.014-.05.031-.1.047-.151z" fill="#fff"/></svg>