<svg width="117" height="120" fill="none" xmlns="http://www.w3.org/2000/svg"><path d="M58.039 91.499a2.683 2.683 0 110 5.367 2.685 2.685 0 010-5.367z" fill="#960096"/><path d="M108.226 17.969H7.849A7.845 7.845 0 000 25.817v69.399a7.845 7.845 0 007.849 7.848h33.666l-7.434 13.01h-3.099c-.62 0-1.239.621-1.239 1.242s.618 1.239 1.24 1.239H85.3c.618 0 1.239-.618 1.239-1.239 0-.621-.62-1.242-1.239-1.242h-3.099l-7.436-13.01h33.666a7.844 7.844 0 007.848-7.848V25.818c-.206-4.338-3.717-7.849-8.054-7.849zm-29.123 98.105H37.177l7.436-13.01h26.85l7.643 13.01h-.002zm34.493-20.858c0 2.89-2.477 5.37-5.37 5.37H7.849c-2.893 0-5.371-2.478-5.371-5.37V25.818c0-2.893 2.478-5.371 5.37-5.371h100.378c2.893 0 5.37 2.478 5.37 5.37v69.399zm-1.857 10.532a1.859 1.859 0 11.002 3.718 1.859 1.859 0 01-.002-3.718z" fill="#960096"/><path d="M26.438 109.671a1.86 1.86 0 11.002 3.718 1.86 1.86 0 01-.002-3.718zM88.4 3.923a1.86 1.86 0 110 3.72 1.86 1.86 0 010-3.72zM65.266 9.087a1.86 1.86 0 110 3.72 1.86 1.86 0 010-3.72zm-22.1-5.164a1.86 1.86 0 110 3.72 1.86 1.86 0 010-3.72zM9.708 9.087a1.86 1.86 0 110 3.72 1.86 1.86 0 010-3.72zM1.86 105.748a1.86 1.86 0 110 3.719 1.86 1.86 0 010-3.719zm105.336-80.136H9.088c-.618 0-1.24.618-1.24 1.239v59.483c0 .618.619 1.239 1.24 1.239h98.108c.621 0 1.239-.62 1.239-1.239V27.056c0-.826-.618-1.444-1.239-1.444zm-1.445 2.684V78.69H10.326V28.297h95.425zM10.326 85.091V81.17h95.628v3.923H10.327z" fill="#960096"/><path d="M80.551 47.712c2.478 0 4.338-1.86 4.338-4.34 0-2.481-1.86-4.338-4.338-4.338-1.239 0-2.272.415-3.098 1.242-1.651 1.65-1.651 4.543 0 6.194.824.621 1.86 1.242 3.098 1.242zm0-6.197c1.033 0 1.86.827 1.86 1.86 0 1.65-1.86 2.271-3.099 1.241-.412-.415-.62-.827-.62-1.242 0-1.032.827-1.86 1.86-1.86zm6.609 18.999c-1.65 1.65-1.65 4.543 0 6.197 1.652 1.654 4.545 1.654 6.198 0 1.654-1.65 1.654-4.544 0-6.197-1.65-1.654-4.543-1.654-6.197 0zm4.34 4.336c-1.033 1.033-3.1.412-3.1-1.242 0-1.653 1.86-2.271 3.1-1.238.827.618.827 1.86 0 2.477v.003zm-10.743-.617l15.697-15.697c.827-.824 1.24-1.86 1.24-3.096 0-2.478-1.86-4.337-4.338-4.337-1.24 0-2.272.412-3.1 1.239L74.56 58.038c-1.651 1.65-1.651 4.543 0 6.194.827.827 4.337 1.651 6.194 0h.003zm-4.337-4.337l15.697-15.697c.412-.413.827-.619 1.239-.619 1.653 0 2.272 1.86 1.239 3.096L78.897 62.373c-1.032 1.033-3.098.413-3.098-1.241 0-.412.206-1.033.618-1.24l.003.004zm-62.168 49.775c-2.893 0-5.164 2.272-5.164 5.164 0 2.893 2.272 5.165 5.164 5.165 2.893 0 5.165-2.272 5.165-5.165 0-2.892-2.478-5.164-5.165-5.164zm0 7.642c-1.447 0-2.687-1.242-2.687-2.684 0-1.442 1.24-2.684 2.687-2.684 1.448 0 2.684 1.239 2.684 2.684-.206 1.651-1.239 2.684-2.684 2.684zm85.713-11.565c-3.923 0-7.021 3.099-7.021 7.024 0 3.926 3.098 7.022 7.021 7.022s7.022-3.099 7.022-7.022c.206-3.925-3.099-7.024-7.022-7.024zm0 11.568c-2.478 0-4.544-2.066-4.544-4.544 0-2.478 2.066-4.543 4.544-4.543 2.478 0 4.544 2.065 4.544 4.543s-2.066 4.544-4.544 4.544zM15.491 39.86h11.566c.62 0 1.239-.617 1.239-1.238v-5.165c0-.62-.621-1.239-1.24-1.239H15.492c-.618 0-1.239.621-1.239 1.24v5.164c0 .62.412 1.239 1.24 1.239zm1.24-5.164h9.087v2.684H16.73v-2.684zm15.49 5.164h11.566c.618 0 1.238-.617 1.238-1.238v-5.165c0-.62-.62-1.239-1.239-1.239H32.221c-.62 0-1.239.621-1.239 1.24v5.164c0 .62.618 1.239 1.24 1.239zm1.24-5.164h9.087v2.684H33.46v-2.684zm15.49 5.164h11.566c.617 0 1.238-.617 1.238-1.238v-5.165c0-.62-.62-1.239-1.239-1.239H48.952c-.62 0-1.239.621-1.239 1.24v5.164c0 .62.618 1.239 1.24 1.239zm1.445-5.164h9.088v2.684h-9.088v-2.684zM15.491 50.187h11.566c.62 0 1.239-.618 1.239-1.239v-5.164c0-.621-.621-1.24-1.24-1.24H15.492c-.618 0-1.239.622-1.239 1.24v5.164c0 .621.412 1.24 1.24 1.24zm1.24-5.164h9.087v2.686H16.73v-2.686zm15.49 5.164h11.566c.618 0 1.238-.618 1.238-1.239v-5.164c0-.621-.62-1.24-1.239-1.24H32.221c-.62 0-1.239.622-1.239 1.24v5.164c0 .621.618 1.24 1.24 1.24zm1.24-5.164h9.087v2.686H33.46v-2.686zm15.49 5.164h11.566c.617 0 1.238-.618 1.238-1.239v-5.164c0-.621-.62-1.24-1.239-1.24H48.952c-.62 0-1.239.622-1.239 1.24v5.164c0 .621.618 1.24 1.24 1.24zm1.445-5.164h9.088v2.686h-9.088v-2.686zM15.491 60.514h11.566c.62 0 1.239-.618 1.239-1.24V54.11c0-.62-.621-1.239-1.24-1.239H15.492c-.618 0-1.239.618-1.239 1.239v5.165c0 .62.412 1.239 1.24 1.239zm1.24-5.165h9.087v2.687H16.73v-2.687zm15.49 5.165h11.566c.618 0 1.238-.618 1.238-1.24V54.11c0-.62-.62-1.239-1.239-1.239H32.221c-.62 0-1.239.618-1.239 1.239v5.165c0 .62.618 1.239 1.24 1.239zm1.24-5.165h9.087v2.687H33.46v-2.687zm15.49 5.165h11.566c.617 0 1.238-.618 1.238-1.24V54.11c0-.62-.62-1.239-1.239-1.239H48.952c-.62 0-1.239.618-1.239 1.239v5.165c0 .62.618 1.239 1.24 1.239zm1.445-5.165h9.088v2.687h-9.088v-2.687zM15.491 70.843h11.566c.62 0 1.239-.62 1.239-1.239v-5.165c0-.62-.621-1.239-1.24-1.239H15.492c-.618 0-1.239.618-1.239 1.24v5.164c0 .62.412 1.239 1.24 1.239zm1.24-5.165h9.087v2.684H16.73v-2.684zm15.49 5.165h11.566c.618 0 1.238-.62 1.238-1.239v-5.165c0-.62-.62-1.239-1.239-1.239H32.221c-.62 0-1.239.618-1.239 1.24v5.164c0 .62.618 1.239 1.24 1.239zm1.24-5.165h9.087v2.684H33.46v-2.684zm15.49 5.165h11.566c.617 0 1.238-.62 1.238-1.239v-5.165c0-.62-.62-1.239-1.239-1.239H48.952c-.62 0-1.239.618-1.239 1.24v5.164c0 .62.618 1.239 1.24 1.239zm1.445-5.165h9.088v2.684h-9.088v-2.684zM25.817 15.285c2.89 0 5.165-2.272 5.165-5.165 0-2.892-2.272-5.164-5.165-5.164-2.892 0-5.164 2.272-5.164 5.164 0 2.893 2.272 5.165 5.165 5.165zm0-7.642c1.445 0 2.684 1.238 2.684 2.683 0 1.445-1.239 2.684-2.684 2.684s-2.686-1.241-2.686-2.684c0-1.65 1.239-2.683 2.686-2.683zm76.214 5.161c3.511 0 6.404-2.892 6.404-6.403 0-3.511-2.893-6.401-6.404-6.401-3.51 0-6.404 2.89-6.404 6.4 0 3.512 2.684 6.404 6.404 6.404zm0-10.326c2.066 0 3.923 1.65 3.923 3.923 0 2.066-1.651 3.925-3.923 3.925-2.066 0-3.923-1.65-3.923-3.925s1.651-3.923 3.923-3.923z" fill="#960096"/></svg>