<svg width="26" height="30" fill="none" xmlns="http://www.w3.org/2000/svg"><path d="M12.867.014v5.21c0 1.975 1.374 3.35 3.35 3.35h5.21c0 .114.014.214.014.314v6.327c0 .214-.072.329-.243.443a7.31 7.31 0 00-.916.73c-2.691 2.677-5.382 5.353-8.059 8.044a1.308 1.308 0 00-.3.53c-.415 1.574-.802 3.148-1.203 4.737-.028.1-.057.186-.085.3H2.219C.916 30 0 29.085 0 27.797V2.218C0 .96.916 0 2.118 0h10.749v.014zm-2.16 13.913h5.152c.801 0 1.288-.416 1.288-1.074 0-.644-.501-1.06-1.274-1.06H5.425c-.487 0-.845.201-1.045.645-.33.716.2 1.503 1.03 1.503h5.296v-.014zm-.545 4.279h4.723c.702 0 1.188-.444 1.188-1.073 0-.63-.486-1.06-1.202-1.06H5.453c-.486 0-.844.172-1.059.616-.358.73.172 1.531 1.016 1.531h4.752v-.014zm-2.09 2.147H5.469c-.687 0-1.174.444-1.174 1.06 0 .615.472 1.073 1.16 1.087h5.195c.673 0 1.16-.458 1.16-1.074 0-.615-.487-1.059-1.174-1.059H8.087l-.014-.014zM7.5 9.633h2.104c.63 0 1.102-.458 1.116-1.06 0-.615-.472-1.087-1.116-1.087h-4.18c-.658 0-1.13.458-1.13 1.073 0 .601.487 1.06 1.13 1.074H7.5zm14.743 14.212c-.845.83-1.69 1.675-2.534 2.52l-2.39 2.39c-.086.086-.2.186-.33.214-1.359.344-2.719.687-4.136 1.031.115-.487.23-.93.33-1.374.214-.888.443-1.775.672-2.662a.73.73 0 01.2-.372c1.618-1.632 3.25-3.25 4.867-4.881.043-.043.086-.072.1-.086l3.206 3.206.015.014z" fill="#492464"/><path d="M21.283 6.426H16.03c-.558 0-1.002-.458-1.016-1.016V.157l6.27 6.27zm2.563 15.83c-1.088-1.087-2.147-2.146-3.249-3.234.544-.501 1.06-1.074 1.675-1.517.873-.616 2.075-.415 2.805.343.744.787.873 1.99.215 2.848-.43.573-.988 1.06-1.46 1.56h.014z" fill="#492464"/></svg>