<svg width="135" height="120" fill="none" xmlns="http://www.w3.org/2000/svg"><path d="M48.853 24.193l-.948-.952-.237.238v4.267l1.185-.471v-3.082zm4.27-.001v3.32l.475 1.422c.474 0 .71-.474.71-.711v-4.507l-.236-.238-.949.712v.002zm-4.27-2.373v-3.085l-1.185-.474v4.27l.237.237.948-.948zm0 5.693l-1.185.474c0 .474.474.71.711.71h4.982l-.475-1.422-4.03.238h-.003zm4.745-10.437l-.474 1.425v3.319l.948.948.237-.237v-4.507c0-.474-.237-.711-.711-.948zm-.712 1.425l.474-1.425h-4.98c-.475 0-.712.474-.712.71l1.422.475h3.793v.24h.003zm-4.506 4.504l.473.711h4.27l.712-.71-.711-.712h-4.27l-.475.711zm15.652-5.929l-.474 1.425v3.319l.948.948.237-.237v-4.507c0-.474-.237-.711-.711-.948zm-4.742 7.118l-.948-.952-.237.238v4.267l1.185-.471v-3.082zm0-2.374v-3.085l-1.185-.474v4.27l.237.237.948-.948zm4.03-3.319l.475-1.425h-4.982c-.474 0-.71.474-.71.71l1.422.475h3.795v.24zm.238 5.692v3.32l.474 1.422c.474 0 .711-.474.711-.711v-4.507l-.237-.238-.948.712v.002zm-4.268 3.32l-1.422.474c0 .474.474.71.71.71h4.982l-.474-1.422-3.796.238zm-.71-4.508l.71.711h4.268l.71-.71-.71-.712H59.29l-.71.711zm11.144-1.185v-3.085l-1.422-.474v4.27l.474.237.948-.948zm4.27 2.373v3.32l.474 1.422c.474 0 .712-.474.712-.711v-4.507l-.238-.238-.948.712v.002zm.474-7.117l-.474 1.425v3.319l.948.948.238-.237v-4.507c0-.474-.238-.711-.712-.948zm-5.455 5.929l.711.711h4.27l.712-.71-.712-.712h-4.27l-.711.711zm.711 4.508l-1.422.474c0 .474.474.71.711.71h4.981l-.474-1.422-3.793.238h-.003zm3.793-9.012l.474-1.425H69.01c-.474 0-.711.474-.711.71l1.422.475h3.793v.24h.003zm6.641 9.012l-1.422.474c0 .474.474.71.71.71h4.982l-.474-1.422-3.796.238zm0-5.693v-3.085l-1.422-.474v4.27l.474.237.948-.948zm3.796-3.319l.474-1.425h-4.981c-.474 0-.711.474-.711.71l1.422.475h3.796v.24zm.474 5.692v3.32l.474 1.422c.474 0 .712-.474.712-.711v-4.507l-.238-.238-.948.712v.002zm-4.27.001l-.948-.952-.474.238v4.267l1.422-.471v-3.082zm4.744-7.118l-.474 1.425v3.319l.948.948.238-.237v-4.507c0-.474-.238-.711-.712-.948z" fill="#960096"/><path d="M98.421 4.504H34.864c-5.456 0-9.723 4.508-9.723 9.723v96.05c0 5.456 4.507 9.723 9.723 9.723H98.42c5.456 0 9.723-4.507 9.723-9.723v-96.05c0-5.453-4.507-9.723-9.723-9.723zM34.864 7.35H98.42a6.881 6.881 0 016.878 6.878v24.427H28.22V14.227c0-3.796 2.845-6.878 6.64-6.878h.004zM98.42 117.155H34.864a6.881 6.881 0 01-6.878-6.878V41.502h77.076v68.775c.237 3.796-2.845 6.878-6.64 6.878z" fill="#960096"/><path d="M34.15 34.152h65.22c.711 0 1.422-.71 1.422-1.425V13.52c0-.712-.711-1.425-1.423-1.425H34.15c-.71 0-1.422.71-1.422 1.425v19.208c-.237.711.474 1.425 1.423 1.425zm1.422-19.21h62.372v16.363H35.572V14.94zm10.437 79.92h-11.86c-.71 0-1.422.711-1.422 1.425v11.857c0 .711.711 1.425 1.423 1.425h11.859c.71 0 1.422-.711 1.422-1.425V96.287c0-.71-.711-1.425-1.422-1.425zm-1.66 11.859h-9.011v-9.014h9.011v9.014zm19.445-11.859H51.935c-.71 0-1.422.711-1.422 1.425v11.857c0 .711.711 1.425 1.422 1.425h11.86c.71 0 1.422-.711 1.422-1.425V96.287c0-.71-.711-1.425-1.422-1.425zm-1.662 11.859h-9.011v-9.014h9.011v9.014zm19.451-11.859H69.727c-.711 0-1.423.711-1.423 1.425v11.857c0 .711.712 1.425 1.423 1.425h11.856c.711 0 1.423-.711 1.423-1.425V96.287c0-.71-.712-1.425-1.423-1.425zm-1.662 11.859h-9.012v-9.014h9.012v9.014zM46.009 77.076h-11.86c-.71 0-1.422.711-1.422 1.425v11.857c0 .711.711 1.422 1.423 1.422h11.859c.71 0 1.422-.711 1.422-1.422V78.5c0-.71-.711-1.425-1.422-1.425zm-1.66 11.86h-9.011V79.92h9.011v9.014zm19.445-11.86H51.935c-.71 0-1.422.711-1.422 1.425v11.857c0 .711.711 1.422 1.422 1.422h11.86c.71 0 1.422-.711 1.422-1.422V78.5c0-.71-.711-1.425-1.422-1.425zm-1.662 11.86h-9.011V79.92h9.011v9.014zm19.451-11.86H69.727c-.711 0-1.423.711-1.423 1.425v11.857c0 .711.712 1.422 1.423 1.422h11.856c.711 0 1.423-.711 1.423-1.422V78.5c0-.71-.712-1.425-1.423-1.425zm-1.662 11.86h-9.012V79.92h9.012v9.014zm19.449-11.86H87.512c-.711 0-1.422.711-1.422 1.425v29.646c0 .711.71 1.425 1.422 1.425h11.856c.712 0 1.423-.711 1.423-1.425V78.501c0-.71-.711-1.425-1.423-1.425zm-1.66 29.648h-9.014v-26.56h9.014v26.56zM46.009 59.29h-11.86c-.71 0-1.422.712-1.422 1.425v11.857c0 .711.711 1.422 1.423 1.422h11.859c.71 0 1.422-.708 1.422-1.422V60.715c0-.71-.711-1.425-1.422-1.425zm-1.66 11.857h-9.011v-9.012h9.011v9.012zM63.794 59.29H51.935c-.71 0-1.422.712-1.422 1.425v11.857c0 .711.711 1.422 1.422 1.422h11.86c.71 0 1.422-.708 1.422-1.422V60.715c0-.71-.711-1.425-1.422-1.425zm-1.662 11.857h-9.011v-9.012h9.011v9.012zM81.583 59.29H69.727c-.711 0-1.423.712-1.423 1.425v11.857c0 .711.712 1.422 1.423 1.422h11.856c.711 0 1.423-.708 1.423-1.422V60.715c0-.71-.712-1.425-1.423-1.425zm-1.662 11.857h-9.012v-9.012h9.012v9.012zM99.37 59.29H87.512c-.711 0-1.422.712-1.422 1.425v11.857c0 .711.71 1.422 1.422 1.422h11.856c.712 0 1.423-.708 1.423-1.422V60.715c0-.71-.711-1.425-1.423-1.425zm-1.66 11.857h-9.014v-9.012h9.014v9.012zM46.009 47.431h-11.86c-.71 0-1.422.711-1.422 1.425v5.93c0 .711.711 1.422 1.423 1.422h11.859c.71 0 1.422-.71 1.422-1.422v-5.93c0-.71-.711-1.425-1.422-1.425zm-1.66 5.93h-9.011v-3.082h9.011v3.082zm19.445-5.93H51.935c-.71 0-1.422.711-1.422 1.425v5.93c0 .711.711 1.422 1.422 1.422h11.86c.71 0 1.422-.71 1.422-1.422v-5.93c0-.71-.711-1.425-1.422-1.425zm-1.662 5.93h-9.011v-3.082h9.011v3.082zm19.451-5.93H69.727c-.711 0-1.423.711-1.423 1.425v5.93c0 .711.712 1.422 1.423 1.422h11.856c.711 0 1.423-.71 1.423-1.422v-5.93c0-.71-.712-1.425-1.423-1.425zm-1.662 5.93h-9.012v-3.082h9.012v3.082zm19.449-5.93H87.512c-.711 0-1.422.711-1.422 1.425v5.93c0 .711.71 1.422 1.422 1.422h11.856c.712 0 1.423-.71 1.423-1.422v-5.93c0-.71-.711-1.425-1.423-1.425zm-1.66 5.93h-9.014v-3.082h9.014v3.082zM8.774 83.006c-4.03 0-7.352 3.321-7.352 7.352 0 4.03 3.32 7.352 7.352 7.352 4.033 0 7.352-3.32 7.352-7.352.237-4.03-3.319-7.352-7.352-7.352zm0 11.856c-2.37 0-4.507-1.897-4.507-4.504 0-2.371 1.897-4.508 4.507-4.508 2.611 0 4.508 1.897 4.508 4.508 0 2.61-1.897 4.504-4.508 4.504zm115.733-75.654c-5.69 0-10.434 4.745-10.434 10.437 0 5.692 4.744 10.437 10.434 10.437 5.69 0 10.437-4.745 10.437-10.437 0-5.692-4.744-10.437-10.437-10.437zm0 17.789c-4.03 0-7.352-3.322-7.352-7.352s3.322-7.352 7.352-7.352 7.352 3.319 7.352 7.352-3.319 7.352-7.352 7.352zM2.134 4.267a2.134 2.134 0 100-4.267 2.134 2.134 0 000 4.267zm9.011 32.967c1.18 0 2.137.957 2.137 2.134a2.136 2.136 0 01-4.27 0c0-1.177.956-2.134 2.133-2.134zm103.639 13.279a2.135 2.135 0 11-.001 4.269 2.135 2.135 0 01.001-4.27zm10.437 36.997c1.177 0 2.134.957 2.134 2.134a2.136 2.136 0 01-4.27 0c0-1.177.956-2.134 2.136-2.134zM11.145 112.651c1.18 0 2.137.957 2.137 2.134a2.136 2.136 0 01-4.27 0c0-1.177.956-2.134 2.133-2.134zM116.207 7.59a2.134 2.134 0 110 4.267 2.134 2.134 0 010-4.268z" fill="#960096"/></svg>