<svg width="29" height="30" fill="none" xmlns="http://www.w3.org/2000/svg"><path d="M28.573 10.734v.343l-.001 15.899c0 1.466-.812 2.587-2.122 2.92-.267.069-.55.1-.826.1-7.555.005-15.108.006-22.662.002-1.714 0-2.946-1.211-2.948-2.92C.004 21.723.01 16.368.01 11.012c0-.087.01-.174.015-.278h28.547zM4.296 24.279c0 .223-.003.446 0 .669.015.865.577 1.453 1.437 1.482.467.016.937.017 1.405 0 .815-.029 1.392-.579 1.435-1.385.028-.512.03-1.027-.002-1.538-.049-.798-.627-1.337-1.42-1.355-.48-.01-.959-.01-1.438 0-.823.019-1.393.598-1.415 1.425-.006.234-.001.468-.002.702zm10.013-2.13v.001c-.256 0-.513-.008-.769.002-.794.029-1.376.623-1.39 1.421-.008.457-.005.914 0 1.372.007.84.57 1.445 1.404 1.483.49.023.982.023 1.473 0 .837-.038 1.398-.64 1.407-1.48a60.28 60.28 0 000-1.337c-.01-.854-.596-1.441-1.455-1.46-.223-.006-.446 0-.669 0v-.003zm7.816-3.584v-.001c.257 0 .514.008.77-.002.788-.029 1.363-.598 1.386-1.385.014-.48.012-.959.003-1.438-.015-.83-.57-1.414-1.395-1.453a16.52 16.52 0 00-1.471 0c-.808.034-1.378.602-1.412 1.41-.02.49-.022.981 0 1.47.037.826.621 1.379 1.45 1.398.222.006.446 0 .669 0v.001zm-7.86-.004v.003c.257 0 .514.008.77-.002.796-.029 1.38-.618 1.397-1.415.01-.468.007-.937 0-1.405-.01-.793-.541-1.393-1.33-1.447a11.36 11.36 0 00-1.638.002c-.775.058-1.303.656-1.314 1.428-.007.49-.013.982.003 1.472a1.402 1.402 0 001.344 1.362c.256.013.512.002.77.002h-.002zm-7.838.004c.234 0 .468.006.702 0 .826-.021 1.408-.575 1.445-1.403.023-.49.023-.982 0-1.471-.037-.798-.59-1.362-1.383-1.402a14.023 14.023 0 00-1.538.002c-.794.047-1.337.629-1.355 1.42-.01.48-.01.96 0 1.439.02.822.596 1.391 1.426 1.415.234.006.468 0 .702.001zm17.858 5.742h-.001c0-.257.008-.514-.002-.77-.029-.787-.6-1.36-1.386-1.384-.48-.013-.96-.012-1.439-.003-.841.016-1.424.584-1.453 1.429-.016.467-.015.937 0 1.405.026.826.591 1.407 1.413 1.443.49.022.982.023 1.471 0 .827-.039 1.377-.622 1.397-1.451.005-.223 0-.447 0-.67zM.01 9.271V7.88c0-.893.03-1.786-.007-2.677-.075-1.797 1.348-3.145 3.055-3.06.155.009.311.002.518.002 0 .253-.004.494 0 .733.025 1.46 1.143 2.7 2.538 2.817 1.539.129 2.846-.83 3.12-2.32.072-.389.051-.795.073-1.211h9.994c0 .262-.008.526 0 .788.05 1.403 1.12 2.586 2.471 2.737 1.458.164 2.771-.697 3.123-2.096.114-.456.107-.943.155-1.419 1.711-.245 3.135.681 3.467 2.27.038.185.05.377.052.565.004 1.339.003 2.677.002 4.016 0 .076-.015.15-.024.246H.01v.001z" fill="#492464"/><path d="M7.86 2.15c0 .256.008.513-.002.768a1.427 1.427 0 01-1.314 1.365c-.737.055-1.424-.44-1.5-1.178a9.543 9.543 0 01.003-1.932c.076-.725.746-1.21 1.475-1.169.715.04 1.296.62 1.335 1.344.014.266.002.535.002.802zm15.739-.004c-.017.322-.006.648-.057.965a1.402 1.402 0 01-1.512 1.17 1.42 1.42 0 01-1.305-1.37 25.926 25.926 0 010-1.538A1.42 1.42 0 0122.032.004c.74-.056 1.394.44 1.51 1.174.05.316.04.643.056.968z" fill="#492464"/></svg>