<svg width="110" height="150" fill="none" xmlns="http://www.w3.org/2000/svg"><path d="M59.404 30.478c-1.762 1.992-4.892 3.914-7.527 6.153-1.877 1.595-4.354 4.592-3.35 9.546.9 4.416 5.906 7.06 5.906 7.06s2.856-1.04 3.95-1.393c1.753-.555 5.235-1.33 5.235-1.33s-4.196-2.6-4.69-2.936c-3.11-2.15-4.08-3.288-5.773-5.403-2.362-2.953.952-4.636 2.221-5.324 5.465-2.953 6.338-5.403 6.338-5.403s-.203 8.797 6.055 8.409c6.47-.397 8.445-5.43 9.15-7.863.758-2.618.881-5.958 0-8.532-.415-1.208-2.072-2.98-3.887-3.27-.917-.15-2.036.6-2.398 1.172-.996 1.551-2.644 6.584-1.551 8.065.634.855 3.772.705 4.416-.705.211-.458 1.392.176 1.516.661.203.767-2.785 2.565-3.535 2.82-2.988 1.023-4.618-.325-4.618-.325s-2.98-2.054-2.283-5.606c.396-1.992 1.842-6.973 1.269-8.021-.141-.256-.635-.124-.873.044-1.163.81-2.327 4.997-2.327 4.997s-.872 4.513-3.235 7.193l-.008-.009zM74.31 49.535c.467 1.049 1.604 2.46 2.573 2.838.855.335 2.865.291 3.8-.317.837-.547 2.758-3.191 3.772-2.874 1.692.53 3.887-1.392 3.887-1.392s1.692-1.067 3.702-1.56c.608-.15 1.94-1.781 2.583-2.328.793-.678 1.058-1.49 1.578-2.573.343-.706.952-2.416 1.128-3.508.15-.953.07-2.151-.08-5.086-.008-.23-.51-.476-.617-.265-.493 1.023-1.612 3.147-1.93 4.205-.08.264-.264.82-.264.82s.247 2.89.026 3.57c-.282.898-1.754 1.277-1.754 1.277s-.96-.15-1.225 0c-.344.194-.476 1.146-.82 1.349-.361.211-1.304-.159-1.692 0-.37.15-.45.917-.82 1.084-.6.256-2.221-.088-2.953.176-1.049.38-3.032 1.992-4.354 2.107-1.834.159-5.88-1.313-4.354-6.637.978-3.438.414-1.772 2.133-5.024.158-.3.537-1.728.238-1.578-2.336 1.137-4.231 6.302-4.68 9.034-.239 1.472-.759 4.734.114 6.69l.009-.008zm18.466-18.149c.123.282.943.784 1.349.256.934-1.2 2.177-2.512 2.626-3.508.238-.52.265-1.666-.29-2.398-.635-.837-1.429-1.657-2.134-2.018-.414-.212-1.128-.847-1.666-.15-1.12 1.445-3.622 4.557-3.622 4.557s2.829 1.172 3.737 3.252v.01zm7.025 7.219c.802.423 1.772.97 2.283 1.401 1.551 1.314 1.781 3.676 2.459 2.953.794-.846 2.777-3.023 3.57-4.178.414-.617 1.067-1.948.793-2.856-.379-1.26-3.067-4.072-4.301-4.275-.353-.061-.934 0-1.437.67-1.428 1.913-2.371 2.944-3.825 5.121-.353.53.185 1.023.467 1.173l-.009-.01z" fill="#960096"/><path d="M51.295 32.233C47.646 35.609 40.26 43.692 38.453 47.72c-1.94 4.328-1.966 5.667-2.292 8.382-.652 5.421 1.763 10.022 1.763 10.022s-6.576 8.065-6.576 18.502c0 4.715 3.244 14.64 17.012 14.015 6.611-.3 12.799-2.795 23.79-11.574 4.24-3.393 14.615-16.077 14.615-16.077s4.195-5.774 5.817-7.51c.838-.89 2.689-2.653 3.896-2.944 1.816-.44 2.565-.353 3.429-.855 1.569-.917 3.922-4.504 4.619-6.267.652-1.666 1.005-5.333 1.093-7.28.079-1.605-.309-1.526-.679-1.429-.961.256-1.754 2.583-2.415 4.01-.538 1.164-.053 3.438-.388 4.514-.088.273-.45.775-.705.916-1.111.644-2.627-.035-3.755.573-2.882 1.552-7.237 6.514-11.239 11.177-4.371 5.095-5.888 7.695-8.267 9.855-5.236 4.768-10.305 11.23-23.5 15.804-4.433 1.534-13.812 2.574-18.704-1.402-2.089-1.692-4.054-5.667-2.909-10.013 2.715-10.304 5.88-12.014 5.88-12.014s4.107 7.007 10.656 7.88c9.379 1.243 17.17-2.662 20.96-6.082 1.579-1.428 4.822-5.2 4.822-5.2l-1.692-.82S69.109 71.72 58.232 74.41c-2.83.696-7.562 1.19-12.102-1.11-3.376-1.71-6.064-6.356-6.064-6.356s3.772-4.213 7.95-7.325c3.72-2.768 7.73-4.398 10.172-5.306 7.457-2.76 11.142-2.45 14.112-1.507 3.156 1.004 3.685 3.543 3.685 3.543l2.018.943s-.529-4.707-5.288-6.179c-2.883-.89-7.687-.247-7.687-.247s-9.51 1.04-19.25 8.013c-2.045 1.463-6.884 6.31-6.884 6.31s-2.76-6.152-1.402-11.66c1.886-7.67 4.98-10.11 7.175-12.782 3.235-3.93 5.121-5.773 7.21-7.712 8.638-8.012 11.662-16.862 11.662-16.862s-6.118 10.392-12.235 16.05l-.009.01z" fill="#960096"/><path d="M67.708 53.237s-1.499-.582-5.068.397a65.967 65.967 0 00-5.236 1.71l4.222 2.283L83.52 68.222l4.178-4.936s-5.112-3.077-7.016-4.055c-3.077-1.587-12.975-5.985-12.975-5.985v-.009zM71.7 7.2c.292.59-.123 1.683-.413 2.15-.485.758-1.755 1.895-2.327 2.715-.212.309-.67 1.164.185 1.578 1.807.872 2.441 1.551 3.058 2.935.115.264.582.247.838.106.934-.503 2.16-2.433 2.688-3.218.661-.987.732-2.133.23-2.855-.477-.68-2.451-1.658-2.504-2.565-.053-1.111 2-2.68 2.433-3.702.132-.327.167-1.014.044-1.402-.309-.943-1.816-2.054-2.847-2.83-.353-.264-.926 0-1.12.15-.996.74-3.393 4.558-3.393 4.558s2.75 1.595 3.138 2.37l-.01.01zm33.698 64.794c-.934-.309-2.203-1.42-3.464-1.27-1.904.221-4.169 3.024-4.169 3.024s-1.904 2.415-2.565 3.86c-.053.124.29.265.38.168.96-1.137 2.52-2.812 3.463-3.605.37-.317 1.252-.573 2.283-.405.943.15 3.023 1.428 3.023 1.428s-2.6 2.847-3.684 3.34c-1.63.74-3.552.908-5.086.212-.899-.414-2.256-1.181-2.926-2.671-.794-1.772-.265-4.416.255-6.056.397-1.251 1.552-3.42 2.512-4.997.168-.273.106-1.04-.105-1.067-.344-.053-.855.6-1.067.864-1.446 1.851-3.156 6.082-4.037 8.338-.828 2.125-1.102 6.144-.661 8.268.379 1.843 1.992 2.997 3.147 3.27 3.305.794 5.808-1.057 7.333-2.088 1.049-.706 2.433-2.574 3.482-3.64 1.111-1.147 2.327-3.121 3.2-3.906.414-.37 1.974-1.005 1.974-1.005l.397-1.877s-2.742.123-3.685-.185z" fill="#960096"/><path d="M99.722 78.209c.449-.291-1.208-2.68-1.208-2.68l-2.327 2.653s2.345.794 3.535.036v-.01zm-6.382-7.66c-.943 2.89-.6 4.566.044 5.615.3.493 1.199 1.093 1.199 1.093l2.53-3.94-3.103-4.46s-.538 1.313-.67 1.7v-.008zm-3.684 2.327s.828-2.169 1.137-2.892c.308-.722 1.357-2.89 1.357-2.89l-1.023-.864-3.428 4.592 1.957 2.062v-.008zm15.037-12.499c-.344-.061-.978-.008-1.313.45-.802 1.093-2.98 3.737-2.98 3.737l-.361.494s1.745.714 2.539 1.666c.714.846 1.375 2.08 1.577 2.036 1.085-.238 2.883-2.768 3.306-3.464.132-.23.529-1.534 0-2.512-.353-.652-2.036-2.265-2.759-2.398l-.009-.009z" fill="#960096"/><path d="M99.801 83.497c-.44.326-1.904 1.128-1.904 1.128s1.164 3.04 1.314 4.02c.899 5.86 2.053 13.953-2.098 23.834-1.93 4.601-4.425 9.775-10.058 16.562-6.258 7.545-6.267 6.875-14.543 14.464-.838.767-3.552-3.067-3.552-3.067s-2.636-4.064-4.505-5.148c-1.71-.996-4.336-1.683-8.823-3.27-1.155-.405 3.023 3.05 3.464 3.729 1.349 2.062 2.15 4.424 5.218 5.658 3.165 1.27 4.866 2.019 5.042 2.372.176.352-5.773-.573-6.884-.829-1.19-.282-2.627-1.269-2.627-1.269s-3.948-6.435-7.104-9.82c-1.146-1.234-2.644-1.489-3.737-2.071-1.93-1.022-1.737-1.604-4.152-2.309-.661-.194.943 1.577 1.578 2.283 2.662 2.952 2.662 5.271 4.002 6.901 1.084 1.314 3.675 2.266 5.526 3.447 1.587 1.013 2.221 1.842 2.221 1.842s-8.655-2.168-10.877-4.037c-1.463-1.225-2.626-8.506-5.085-11.397-1.375-1.622-5.774-6.399-5.88-6.135-.44 1.137 1.19 3.526 1.446 4.866.423 2.23.617 6.443 4.081 8.55.846.511 2.803 2.538 2.803 2.803 0 .264-7.827-3.694-8.33-5.086-1.375-3.773.238-5.615-1.754-10.437-.96-2.327-4.724-8.444-5.879-8.153-.582.15.908 3.182.82 5.148-.062 1.41-.168 3.473.581 5.262.3.705 1.781 2.891 3.183 4.381 1.286 1.366 1.172 2.776 1.172 2.776s-6.54-4.927-7.51-7.395c-.758-1.93.44-8.259-.203-11.485-.37-1.825-3.146-7.387-3.5-8.471-.766-2.371-.387 6.391-1.171 9.405-.564 2.16 3.12 8.894 3.12 8.894s-6.285-6.452-6.69-9.326c-.353-2.459 2.124-9.07 2.16-12.102.035-2.31-2.134-8.911-2.134-8.911s-.511 2.556-1.225 4.795c-.776 2.406-1.763 4.53-1.869 5.553-.238 2.274 1.41 5.024 1.631 6.637.07.546-.088 2.494-.088 2.494l-4.575-10.18s4.434-9.678 4.91-13.151c.247-1.807-.617-7.281-.617-7.281s-3.156 6.84-4.355 8.506c-1.33 1.85-.731 9.563-.731 9.563s-2.495-7.536-2.107-10.083c.467-3.112 2.865-4.866 6.461-10.146 1.005-1.48 1.173-8.144 1.173-8.144s-5.906 6.152-6.867 7.995c-.917 1.745-.308 4.91-.608 6.337-.106.52-.926 1.904-.926 1.904s-1.207-8.894-.132-11c1.137-2.222 6.92-6.126 8.876-9.414 1.102-1.86 1.93-7.387 1.93-7.387s-1.454 1.613-2.018 2.072c-1.313 1.084-4.134 2.406-5.403 4.037-.934 1.198-3.358 6.99-3.358 6.99s.51-6.735 1.665-8.594c.653-1.05 3.95-2.98 3.95-2.98s6.134-3.481 7.395-6.487c.458-1.093 1.824-3.032 3.04-4.733.794-1.111 2.01-1.279 1.605-1.605-1.314-1.084-5.518 2.794-7.369 3.623-4.769 2.133-5.271 5.112-6.435 7.237-.334.608-1.754 2.15-1.754 2.15s2.583-9.06 4.822-11.088c1.313-1.19 4.592-2.204 6.77-2.794 4.865-1.314 5.658-2.997 6.672-4.496 1.084-1.586 4.971-4.848 4.971-4.848s-5.853 1.807-7.889 2.398c-6.1 1.754-5.879 4.222-7.457 6.02-1.428 1.64-2.283.793-2.283.793s4.09-7.412 6.285-8.91c1.613-1.103 6.047-1.12 8.33-1.35 5.914-.572 6.655-2.767 8.268-4.468.749-.794 4.407-.926 4.178-1.984-.203-.96-4.152.617-8.912.67-3.71.044-6.134 2.909-8.038 3.976-2.24 1.251-2.398.581-2.398.581s5.703-6.734 8.241-7.686c1.384-.52 5.298.097 6.726.203 2.371.176 6.39.432 8.241-.582 1.428-.784 2.16-2.336 6.135-2.6.414-.027 1.728-.82 1.349-.996-.38-.177-3.993-.212-4.91-.317-2.424-.3-6.17-.67-8.444.114-1.296.45-3.209 1.992-4.442 2.398-.644.211-2.372 0-2.372 0s4.434-3.456 6.047-4.381c2.75-1.578 7.625-.476 9.502-.82 2.521-.458 5.685-5.262 8.012-6.311 1.023-.467 3.438-.141 4.355-.793.37-.265.088-.565-.115-.67-1.33-.688-4.548-.82-6.047-.873-5.958-.238-9.193 1.684-11.044 3.041-2.063 1.507-4.187 4.046-5.703 5.289-1.093.899-4.822 3.129-4.822 3.129s4.813-4.407 5.554-6.311c1.64-4.24 4.795-6.867 3.913-6.867-.467 0-6.505 3.605-7.986 5.192-1.093 1.181-1.815 3.949-2.397 5.447-.503 1.305-1.754 4.505-1.754 4.505l-7.95 8.126s-.098-1.03.114-1.551c.749-1.798 4.204-5.253 4.971-6.69.661-1.252.635-3.429.873-4.504.29-1.26.872-2.107 3.182-3.773.211-.15.652-.908.44-1.137-.229-.247-.696-.053-.996.115-1.172.678-2.794 2.67-4.001 3.534-1.675 1.19-2.892 1.754-5.263 6.435-.987 1.939-.67 7.201-1.013 8.391-.75 2.592-6.117 9.264-6.117 9.264s2.344-6.038 2.776-7.95c.38-1.675 0-4.83.555-6.312.432-1.154 3.024-2.97 2.874-4.186-.044-.335-.635-.265-.855-.018-2.75 3.067-5.906 5.8-6.84 8.444-.503 1.41-.529 5.932-.529 5.932l-.176 8.682-3.887 9.59s-.53-1.375.202-3.243c.847-2.16 1.005-4.284 1.023-5.932.018-1.666-.952-4.628-.758-6.285.114-.96 1.12-2.61 1.604-3.535.247-.458 1.27-1.824.758-2.194-.273-.203-.723.105-.96.352-1.834 1.851-3.94 6.514-4.998 9.15-.794 1.956-.256 5.729.088 7.598.326 1.754 1.868 5.086 1.93 6.866.08 2.274-1.842 8.911-1.842 8.911s.264-4.936 0-6.549c-.3-1.824-1.842-3.887-2.345-6.743-.194-1.084.503-3.429 1.243-4.953.132-.274.132-1.04-.123-1.19-.309-.177-.864.423-1.085.705-.793 1.013-2.018 5.491-2.018 5.491s-.59 3.693-.564 4.998c.026 1.207.67 3.252 1.093 4.38.758 2.037 2.776 4.663 3.27 6.84.635 2.76.353 12.57.353 12.57s-.653-1.63-.794-2.195c-.326-1.296-.582-4.037-.96-5.262-.573-1.816-2.91-4.663-3.42-6.4-.362-1.242-.089-5.261-.089-5.261s.124-1.296-.423-1.358c-.44-.053-.564.07-.626.511a104.38 104.38 0 00-.617 5.324c-.185 2.072-.335 5.835.203 7.484.608 1.86 4.266 6.284 4.266 6.284l3.156 3.95 1.225 8.329s-1.058-3.209-1.578-4.213c-.511-.996-1.719-2.53-2.776-3.508-1.146-1.067-3.976-3.182-3.359-6.752C1.406 80.526.128 79.9.128 79.9s-.177 1.675-.115 2.31c.203 2.186 1.27 6.752 2.019 8.567.705 1.71 2.591 3.8 4.125 4.848 3.737 2.574 4.557 4.646 4.557 4.646l2.98 6.928s-1.411-2.504-2.02-3.244c-.863-1.058-2.07-3.182-3.181-3.482-3.835-1.013-4.972-3.799-4.972-3.799L2.296 94.48s-.247.829-.238 1.226c.053 1.507 1.472 4.284 2.133 5.791.82 1.868 3.182 4.998 5.236 5.491 3.975.961 5.756 4.293 7.219 5.641 2.248 2.072 4.936 7.625 4.936 7.625s-4.178-4.989-5.959-6.223c-1.119-.776-4.09-1.252-5.2-2.045-1.128-.802-3.305-4.443-3.305-4.443s-.556.274-.591.635c-.141 1.472 1.728 4.487 2.609 5.685 3.799 5.148 4.487 4.549 6.223 5.351 1.904.881 5.632 2.027 7.457 3.067 2.503 1.428 8.268 6.902 8.858 7.801 1.155 1.78-4.997-4.002-7.016-4.795-1.375-.538-4.469-.494-5.879-.996-.97-.344-2.618-2.168-3.42-2.283-.52-.071.273 1.56.529 2.018.775 1.42 3.006 3.896 4.38 4.734 1.878 1.137 5.818 2.309 8.127 2.485 1.164.089 3.632.186 4.796.494 2.688.723 9.528 5.791 9.528 5.791s-1.886.573-3.949-1.49c-.75-.749-2.82-1.533-3.86-1.754-1.393-.299-4.31.318-5.703 0-.644-.149-2.46-1.084-2.46-1.084s-2.133-1.542-2.389-.925c-.273.67 2.495 3.411 3.614 4.028 2.125 1.163 4.734 2.776 7.149 2.979 1.622.141 7.413-.775 9.546-.555 1.19.123 4.002 1.401 4.002 1.401l5.958 2.486s-1.243.494-3.552-.582c-2.909-1.348-3.552-.864-4.513-.908-1.428-.07-3.217.873-5.35.82-2.803-.079-4.557-1.137-4.557-1.137s-1.631-.449-1.605-.115c.027.512.52 1.217 1.517 1.578 3.446 1.261 5.085 2.891 10.7 3.447 2.944.291 7.184-1.657 9.238-2.107.943-.203 2.776.062 2.776.062l8.154 1.225s-.662.617-1.464.705c-1.287.141-3.102-.811-4.38-.643-1.702.229-4.628 1.895-6.259 2.221-1.586.317-3.949.044-6.487-.088-.282-.018.035.529.22.749.917 1.084 4.02 1.119 5.395 1.357 1.78.309 5.465 1.287 7.65.503 4.558-1.622 8.154-3.182 10.208-4.513 2.344-1.525 3.42-2.689 8.797-7.307 3.878-3.332 8.708-8.7 12.56-14.385 8.065-11.9 8.894-19.375 9.581-26.611.538-5.712-1.798-14.685-1.798-14.685s-1.243 1.031-1.692 1.375l.035-.08z" fill="#960096"/></svg>