<svg width="27" height="26" fill="none" xmlns="http://www.w3.org/2000/svg"><path d="M.002 13.77v-1.524L.048 12c.138-.807.208-1.633.424-2.419a12.997 12.997 0 0116.38-9c6.485 1.993 10.401 8.718 8.817 15.333-1.138 4.748-4.13 7.89-8.738 9.476-.745.257-1.534.378-2.324.566V15.712h3.113l.47-3.628h-3.586c0-.904-.037-1.777.01-2.644.052-.945.534-1.376 1.483-1.411.641-.024 1.287-.02 1.929-.03.089 0 .178-.01.283-.013 0-1.044.004-2.06-.007-3.074 0-.06-.111-.167-.175-.171-1.03-.047-2.063-.125-3.094-.101a4.196 4.196 0 00-2.66.995c-1 .848-1.432 1.974-1.5 3.243-.051.963-.028 1.929-.037 2.895v.325H7.723v3.634h3.099v10.064c-.037.004-.062.011-.086.008a12.547 12.547 0 01-3.274-1.046 12.908 12.908 0 01-4.896-4.015C1.353 19.105.552 17.285.206 15.274.12 14.777.07 14.272.004 13.772l-.002-.002z" fill="#960096"/></svg>