<svg width="126" height="120" fill="none" xmlns="http://www.w3.org/2000/svg"><path d="M46.607 57.498h3.268V46.39h4.138v-2.834h-11.76v2.834h4.354v11.108zm12.85-3.051h4.354l1.09 3.051h3.265l-5.01-13.94h-2.83l-5.01 13.94h3.269l.872-3.05zm2.178-7.188l1.742 5.01h-3.268l1.524-5.01h.002zm8.71 10.239h3.486l2.83-4.578 3.051 4.578h3.483l-4.79-6.753 4.79-7.189h-3.483l-3.05 4.792-3.049-4.792h-3.485l4.792 7.189-4.575 6.753z" fill="#960096"/><path d="M111.508 62.722l-3.483 3.486c-.872-.873-1.961-1.524-3.051-1.96V22.432c0-4.792-3.92-8.712-8.712-8.712H85.37c-1.09-3.268-4.138-5.444-7.623-5.444h-3.483C72.524 3.485 67.95 0 62.722 0c-5.227 0-9.802 3.265-11.543 8.275h-3.483c-3.485 0-6.533 2.176-7.623 5.444H29.185c-4.792 0-8.712 3.92-8.712 8.712v88.857c0 4.792 3.92 8.712 8.712 8.712h67.08c4.789 0 8.712-3.92 8.712-8.712V95.39c7.188-3.92 10.671-12.198 8.495-20.256l5.01-5.006c1.958-1.959 1.958-5.227 0-7.189-1.742-2.178-5.01-2.178-6.971-.22l-.003.003zM47.914 10.888h4.354c.652 0 1.09-.437 1.307-1.09 1.09-4.137 4.79-7.187 9.147-7.187 4.358 0 8.058 2.83 9.147 7.188.217.652.655 1.09 1.307 1.09h4.354c3.051 0 5.445 2.395 5.445 5.444 0 3.048-2.396 5.444-5.445 5.444H47.91c-3.047 0-5.443-2.396-5.443-5.445 0-3.048 2.396-5.444 5.444-5.444h.003zM23.304 111.07V22.431c0-3.268 2.613-6.099 6.098-6.099h10.454a8.273 8.273 0 008.278 8.275h29.62a8.273 8.273 0 008.277-8.274h10.454c3.265 0 6.099 2.613 6.099 6.098v40.726c-2.614-.872-5.444-1.09-8.275-.872V36.802c0-.654-.652-1.306-1.307-1.306H32.885c-.655 0-1.307.654-1.307 1.306v80.364H29.4c-3.486 0-6.1-2.83-6.1-6.098l.003.002zm10.888-72.958H91.47v24.61c-7.189 2.179-12.633 8.93-12.633 16.987 0 8.058 5.227 14.591 12.633 16.987v20.473H34.192V38.112zm68.169 72.958c0 3.269-2.614 6.099-6.1 6.099h-2.178V97.351c2.83.435 5.662 0 8.275-.872v14.591h.003zm-5.882-16.335c-8.275 0-15.026-6.754-15.026-15.028 0-8.275 6.751-15.026 15.026-15.026 3.486 0 6.751 1.306 9.582 3.485l-8.058 8.058-1.741-1.742c-.872-.872-2.179-1.524-3.486-1.524-2.833 0-5.01 2.176-5.01 5.007 0 1.307.435 2.614 1.525 3.486l7.84 7.84c.435.434 1.307.434 1.962 0l12.195-12.198c1.524 9.367-5.665 17.642-14.812 17.642h.003zm20.256-26.789L98.003 86.677l-6.968-6.97c-.435-.435-.655-1.09-.655-1.742 0-1.307 1.09-2.393 2.396-2.393.652 0 1.307.217 1.742.652l2.613 2.613c.435.438 1.307.438 1.962 0l14.373-14.374c.872-.872 2.396-.872 3.266 0 .434.438.652 1.09.652 1.742 0 .652-.218 1.306-.652 1.741h.003z" fill="#960096"/><path d="M82.977 107.588H39.418c-.651 0-1.306.654-1.306 1.306s.655 1.307 1.306 1.307h43.56c.651 0 1.306-.655 1.306-1.307 0-.652-.655-1.306-1.307-1.306zm0-5.444H39.418c-.651 0-1.306.654-1.306 1.306s.655 1.307 1.306 1.307h43.56c.651 0 1.306-.655 1.306-1.307 0-.652-.655-1.306-1.307-1.306zm0-5.444H39.418c-.651 0-1.306.654-1.306 1.306s.655 1.307 1.306 1.307h43.56c.651 0 1.306-.655 1.306-1.307 0-.652-.655-1.307-1.307-1.307zm-43.558-2.834H78.84c.652 0 1.307-.655 1.307-1.307 0-.652-.655-1.307-1.307-1.307H39.418c-.651 0-1.306.655-1.306 1.307 0 .652.434 1.307 1.306 1.307zm0-5.444h36.808c.651 0 1.306-.655 1.306-1.307 0-.652-.654-1.307-1.306-1.307H39.418c-.651 0-1.306.655-1.306 1.307 0 .652.434 1.307 1.306 1.307zm0-5.445h35.5c.656 0 1.308-.654 1.308-1.306s-.652-1.307-1.307-1.307H39.418c-.651 0-1.306.655-1.306 1.307 0 .652.434 1.306 1.306 1.306zM4.572 70.78a1.96 1.96 0 010 3.92 1.96 1.96 0 010-3.92zm1.524-36.588a1.96 1.96 0 011.962 1.959 1.96 1.96 0 01-3.92 0 1.96 1.96 0 011.958-1.96zM33.323 2.83a1.96 1.96 0 11-.003 3.92 1.96 1.96 0 01.003-3.92zm72.089-1.306a1.96 1.96 0 11-.002 3.918 1.96 1.96 0 01.002-3.918zm8.057 46.172a1.96 1.96 0 011.959 1.959 1.96 1.96 0 01-3.92 0 1.96 1.96 0 011.961-1.959zm1.524 54.448a1.96 1.96 0 110 3.919 1.96 1.96 0 010-3.919zM39.419 77.533h35.5c.656 0 1.308-.654 1.308-1.306s-.652-1.307-1.307-1.307H39.418c-.651 0-1.306.655-1.306 1.307 0 .652.434 1.306 1.306 1.306zm0-5.443h36.808c.651 0 1.306-.656 1.306-1.308 0-.651-.654-1.306-1.306-1.306H39.418c-.651 0-1.306.655-1.306 1.306 0 .653.434 1.307 1.306 1.307zm0-5.445h40.945c.655 0 1.307-.655 1.307-1.307 0-.652-.652-1.306-1.307-1.306H39.418c-.651 0-1.306.654-1.306 1.306s.434 1.307 1.306 1.307zM6.75 89.948C3.049 89.948 0 92.998 0 96.7c0 3.703 3.048 6.754 6.75 6.754 3.704 0 6.752-3.051 6.752-6.754 0-3.703-3.048-6.75-6.751-6.75zm0 10.889c-2.178 0-4.137-1.742-4.137-4.138 0-2.176 1.742-4.137 4.138-4.137s4.137 1.741 4.137 4.137c0 2.18-1.958 4.138-4.137 4.138zm110.202-77.754a8.273 8.273 0 00-8.275 8.278 8.27 8.27 0 008.275 8.275 8.275 8.275 0 008.278-8.275 8.276 8.276 0 00-8.278-8.278zm0 13.722c-3.048 0-5.444-2.396-5.444-5.444s2.396-5.444 5.444-5.444 5.444 2.393 5.444 5.444c0 3.05-2.396 5.444-5.444 5.444z" fill="#960096"/></svg>