<svg width="39" height="50" fill="none" xmlns="http://www.w3.org/2000/svg"><path d="M38.456 41.388c-.272-1.702-1.432-2.885-2.73-3.91-2.136-1.686-4.599-2.772-7.098-3.786-.935-.38-1.868-.773-2.77-1.225-1.096-.55-1.64-1.44-1.43-2.705.012-.083 0-.17 0-.29-.914 0-1.797.019-2.677-.004a2.991 2.991 0 01-2.93-2.96c-.015-1.621 1.288-2.965 2.94-3.014.669-.02 1.347-.068 2.005.012.595.072 1.169.304 1.753.463.167.045.343.145.498.12a12.756 12.756 0 001.585-.35.876.876 0 00.491-.42c1.466-3.178 2.098-6.492 1.438-9.97-.672-3.555-2.515-6.236-5.976-7.604-1.82-.719-3.723-.852-5.655-.609-3.701.467-6.4 2.33-7.924 5.77-1.099 2.48-1.154 5.088-.778 7.719.464 3.248 1.892 6.078 3.872 8.658.384.5.775 1.009 1.06 1.567.607 1.192.265 2.447-.837 3.195-.37.25-.793.428-1.197.628-2.088 1.027-4.201 2.006-6.258 3.09-1.551.818-3.023 1.786-4.222 3.1-1.48 1.624-1.95 3.526-1.384 5.633.458 1.707 1.769 2.68 3.283 3.395 2 .945 4.148 1.348 6.318 1.645 3.524.483 7.068.472 10.614.46 3.747-.012 7.485-.144 11.17-.9 1.795-.368 3.546-.873 5.074-1.942.917-.642 1.684-1.458 1.81-2.592.116-1.045.118-2.135-.047-3.17l.002-.004zm-.768 3.08c-.081.73-.546 1.367-1.465 2.01-1.486 1.038-3.245 1.498-4.768 1.811-3.69.755-7.471.871-11.008.884-.541.002-1.08.005-1.621.005-3.327 0-6.11-.078-8.88-.457-2.01-.275-4.136-.655-6.078-1.574-1.641-.776-2.517-1.66-2.842-2.866-.495-1.847-.104-3.437 1.198-4.865.983-1.078 2.253-2.008 3.996-2.926 1.396-.737 2.849-1.437 4.252-2.116.662-.32 1.325-.64 1.986-.965.091-.045.184-.088.277-.133.336-.16.684-.325 1.019-.553 1.454-.987 1.899-2.694 1.106-4.248-.317-.622-.732-1.162-1.134-1.685-2.096-2.732-3.31-5.439-3.716-8.283-.418-2.915-.19-5.224.716-7.27C12.104 8.125 14.484 6.395 18 5.952c.555-.07 1.1-.106 1.62-.106 1.314 0 2.502.217 3.63.663 3.017 1.193 4.806 3.48 5.471 6.992.584 3.084.138 6.173-1.363 9.443-.005.004-.011.01-.017.013-.384.115-.808.209-1.36.303l-.035-.013a3.361 3.361 0 00-.214-.071c-.167-.046-.335-.099-.513-.154-.43-.134-.873-.274-1.357-.332a7.572 7.572 0 00-.935-.05c-.281 0-.561.01-.832.02l-.362.013c-2.082.06-3.758 1.786-3.738 3.843a3.806 3.806 0 003.732 3.773c.304.007.63.012 1.022.012l.809-.003c.007 1.26.675 2.276 1.927 2.903.938.471 1.915.88 2.83 1.251 2.343.953 4.805 2.02 6.899 3.67 1.12.885 2.189 1.907 2.428 3.394.145.908.16 1.9.042 2.95l.004.003z" fill="#fff"/><path d="M2.09 19.965c0-.832-.008-1.664 0-2.496.01-.95.408-1.697 1.185-2.258a.847.847 0 00.316-.548C4.123 7.323 9.734 1.248 16.987.173c8.629-1.279 16.679 4.686 17.96 13.308.016.107.02.216.029.325.057.693.113 1.33.82 1.786.579.372.773 1.081.78 1.776.016 1.754.037 3.51-.001 5.262-.042 1.93-1.963 3.109-3.77 2.37-.18-.074-.47-.102-.615-.006-1.982 1.306-4.19 1.91-6.514 2.19-.203.025-.388.197-.586.292-.41.194-.808.488-1.238.549-.655.093-1.335.036-2.003.022-.885-.02-1.53-.638-1.567-1.476-.038-.852.524-1.548 1.41-1.618.773-.06 1.554-.039 2.33-.004.255.012.582.101.74.278.371.41.783.403 1.261.33 1.766-.273 3.452-.766 4.988-1.71.282-.172.369-.322.308-.684-.099-.581-.067-1.187-.07-1.784-.007-1.23.018-2.46-.009-3.69-.021-1.058.335-1.896 1.222-2.509.13-.088.206-.365.186-.54-.522-4.762-2.844-8.388-7.061-10.654-8.084-4.35-18.07.689-19.472 9.758-.022.142-.01.293-.047.43-.155.557-.046.947.483 1.31.584.4.858 1.065.862 1.792.01 1.79.028 3.58 0 5.371-.021 1.486-1.181 2.575-2.662 2.567-1.473-.007-2.618-1.11-2.656-2.59-.023-.886-.004-1.771-.006-2.659z" fill="#fff"/></svg>