<svg width="50" height="50" fill="none" xmlns="http://www.w3.org/2000/svg"><path d="M43.467 6.881l-.087-.087s0-.087-.088-.087L36.672.088C36.498 0 37.717 0 10.279 0c-.261 0-.523.261-.523.523v4.878H5.924c-.26 0-.523.261-.523.523v43.554c0 .26.26.522.523.522h30.487c.261 0 .523-.261.523-.522v-3.834h6.01c.261 0 .524-.26.524-.522 0-39.808.087-38.065 0-38.24h-.002zM37.02 1.83l4.704 4.705H37.02V1.83zm-1.132 47.125H6.533V6.533h3.31v38.675c0 .261.261.522.523.522h25.609v3.223h-.087v.002zm-25-4.356V1.045h25.087v6.012c0 .26.26.522.523.522h5.923v37.02H10.888z" fill="#fff"/><path d="M32.317 31.271c-.698.697-.698 1.916 0 2.613.697.697 1.916.697 2.613 0 .697-.697.697-1.916 0-2.613-.785-.697-1.917-.697-2.613 0zm1.83 1.83c-.262.26-.785.26-1.046 0-.261-.261-.261-.785 0-1.046.261-.26.784-.26 1.045 0 .261.261.261.698 0 1.046zm2.264 6.707c-.348.348-.523.785-.523 1.307 0 1.045.784 1.83 1.83 1.83.523 0 .958-.175 1.306-.524.697-.697.697-1.916 0-2.613-.348-.348-1.916-.697-2.613 0zm1.307 2.091c-.698 0-1.046-.784-.524-1.306.437-.436 1.307-.176 1.307.522 0 .174-.348.784-.784.784zm-.088-9.669l-6.533 6.533c-.697.697-.697 1.915 0 2.613.697.697 1.917.697 2.613 0l6.62-6.62c.697-.697.697-1.916 0-2.612-.784-.698-2.003-.698-2.7.087v-.002zm1.83 1.828l-6.62 6.62c-.435.435-1.307.174-1.307-.522 0-.175.087-.348.261-.523l6.62-6.62c.436-.434 1.307-.175 1.307.523 0 .174-.087.348-.26.523v-.001zm-4.094-9.581c.26 0 .522-.261.522-.522V11.41c0-.26-.261-.522-.522-.522h-3.31c-.262 0-.524.261-.524.522v.524h-2.7c-.26 0-.523.26-.523.522v1.132h-2.7c-.26 0-.523.261-.523.523v.522h-2.7c-.261 0-.523.261-.523.523v1.133h-2.7c-.261 0-.524.261-.524.522v1.133h-2.7c-.26 0-.523.26-.523.523v5.488c0 .261.261.522.524.522h19.424l.002-.001zm-2.7-12.542h2.178v11.41h-2.178v-11.41zM16.29 18.99h2.178v4.356H16.29V18.99zm3.31-1.567h2.178v6.01H19.6v-6.01zm3.223-1.656h2.178v7.666h-2.178v-7.666zm3.31-1.133h2.178v8.712h-2.177v-8.712zm3.224-1.567h2.178v10.366h-2.178V13.067zm-3.835 13.587H15.243c-.26 0-.522.261-.522.524 0 .262.261.522.522.522H25.61c.261 0 .522-.261.522-.522 0-.262-.26-.524-.61-.524h.001zm0 2.178H15.243c-.26 0-.522.262-.522.524s.261.522.522.522H25.61c.261 0 .522-.261.522-.522s-.26-.524-.61-.524h.001zm0 2.178H15.243c-.26 0-.522.261-.522.523 0 .263.261.523.522.523H25.61c.261 0 .522-.261.522-.522s-.26-.524-.61-.524h.001zm0 2.178H15.243c-.26 0-.522.261-.522.523 0 .263.261.522.522.522H25.61c.261 0 .522-.26.522-.522 0-.26-.26-.523-.61-.523h.001zm0 2.178H15.243c-.26 0-.522.26-.522.522 0 .26.261.522.522.522H25.61c.261 0 .522-.261.522-.522s-.26-.522-.61-.522h.001zm0 2.178H15.243c-.26 0-.522.26-.522.522 0 .26.261.522.522.522H25.61c.261 0 .522-.261.522-.522 0-.262-.26-.523-.61-.523h.001zm0 2.177H15.243c-.26 0-.522.261-.522.522s.261.522.522.522H25.61c.261 0 .522-.26.522-.522 0-.26-.26-.522-.61-.522h.001zM2.178 32.056c-1.22 0-2.178.958-2.178 2.178 0 1.219.958 2.177 2.178 2.177s2.178-.957 2.178-2.178c0-1.22-1.046-2.177-2.178-2.177zm0 3.31c-.61 0-1.133-.523-1.133-1.134 0-.61.524-1.132 1.133-1.132s1.132.523 1.132 1.132c-.087.61-.609 1.134-1.132 1.134zm45.121-22.909c-1.48 0-2.7 1.219-2.7 2.7 0 1.48 1.22 2.7 2.7 2.7 1.48 0 2.7-1.219 2.7-2.7 0-1.482-1.22-2.7-2.7-2.7zm0 4.355a1.654 1.654 0 01-1.654-1.656c0-.958.697-1.654 1.654-1.654.871 0 1.654.697 1.654 1.654 0 .958-.696 1.656-1.654 1.656zM3.484 1.045a.785.785 0 110 1.57.785.785 0 010-1.57zM2.439 21.777a.785.785 0 11-.001 1.57.785.785 0 010-1.57zM44.338 2.178a.784.784 0 110 1.568.784.784 0 010-1.568zm2.7 20.644a.784.784 0 110 1.569.784.784 0 010-1.569zm-1.046 20.21a.785.785 0 110 1.57.785.785 0 010-1.57zM3.484 41.376a.784.784 0 110 1.568.784.784 0 010-1.568zM15.94 16.202l16.377-7.056c.26-.088.436-.435.26-.697-.086-.261-.435-.435-.697-.261l-16.288 7.055c-.261.087-.436.435-.261.698 0 .26.348.435.609.26z" fill="#fff"/></svg>