<svg width="51" height="50" fill="none" xmlns="http://www.w3.org/2000/svg"><path d="M30.957 19.914c-2.349-4.175-6.696-6.783-11.392-6.783-4.695 0-9.043 2.608-11.391 6.783a.553.553 0 000 .52c2.348 4.175 6.696 6.784 11.391 6.784 4.696 0 9.043-2.609 11.392-6.783a.553.553 0 000-.521zm-11.392 6.26c-4.173 0-8.087-2.26-10.26-6 2.175-3.652 6.087-6 10.26-6 4.174 0 8.087 2.26 10.262 6-2.175 3.653-6.087 6-10.262 6z" fill="#fff"/><path d="M50.001 47.914h-3.74c2.349-1.826 2.523-5.305.523-7.392L35.218 28.869c2.87-5.217 2.957-11.305.521-16.522.87.436 1.827.697 2.87.697 3.565 0 6.521-2.957 6.521-6.522C45.13 2.956 42.174 0 38.61 0c-3.914 0-6.957 3.391-6.435 7.39-3.392-3.304-7.826-5.217-12.609-5.217C9.913 2.174 1.74 9.826 1.652 20A17.769 17.769 0 0014.35 37.303c-2.61.87-4.523 3.306-4.523 6.175 0 3.564 2.957 6.522 6.522 6.522 3.565 0 6.522-2.958 6.522-6.522 0-2.261-1.13-4.261-2.957-5.479a18.425 18.425 0 008.348-2.26L40.35 47.827H28.261c-.26 0-.52.26-.52.52 0 .262.26.522.52.522h21.74c.26 0 .521-.26.521-.521.087-.261-.174-.435-.52-.435zM31.827 37.827l5.392-5.392L38.784 34l-5.392 5.392-1.565-1.565zM38.609 1.13c2.956 0 5.477 2.435 5.477 5.478 0 3.042-2.434 5.391-5.477 5.391a5.456 5.456 0 01-5.48-5.477c0-3.042 2.522-5.392 5.48-5.392zm-16.87 42.435c0 2.957-2.436 5.479-5.48 5.479a5.455 5.455 0 01-5.477-5.479 5.456 5.456 0 015.478-5.478 5.457 5.457 0 015.478 5.478zm6.347-8.87a16.564 16.564 0 01-8.522 2.348c-9.13 0-16.87-7.392-16.782-16.957.087-9.65 7.826-16.695 16.783-16.695 4.523 0 8.696 1.74 11.914 4.957 5.479 5.479 6.522 13.826 2.61 20.436-.089.174-.089.52.086.696l2.347 2.347-5.391 5.392-2.348-2.436c-.174-.174-.435-.26-.696-.087zm6.087 5.478l5.392-5.392 6.521 6.522c1.479 1.48 1.479 3.913 0 5.391a3.83 3.83 0 01-5.391 0l-6.522-6.521z" fill="#fff"/><path d="M42.435 19.044a3.303 3.303 0 003.304 3.305 3.303 3.303 0 003.305-3.305 3.304 3.304 0 00-3.305-3.305c-1.826 0-3.304 1.565-3.304 3.305zm3.217-2.174c1.217 0 2.175.956 2.175 2.174a2.153 2.153 0 01-2.175 2.175 2.154 2.154 0 01-2.174-2.175c0-1.217 1.043-2.174 2.174-2.174zM2.174 31.044A2.154 2.154 0 000 33.218c0 1.217.957 2.175 2.174 2.175a2.154 2.154 0 002.175-2.175 2.154 2.154 0 00-2.175-2.174zm0 3.217a1.15 1.15 0 01-1.13-1.13c0-.608.521-1.13 1.13-1.13.61 0 1.13.521 1.13 1.13 0 .696-.52 1.13-1.13 1.13zm25.304 6.609a.782.782 0 110 1.565.782.782 0 010-1.565zm14.175-15.827a.782.782 0 110 1.565.782.782 0 010-1.565zM4.696 3.914a.782.782 0 11-.001 1.564.782.782 0 010-1.564zm3.739 33.131c.432 0 .783.35.783.782a.783.783 0 01-1.565 0c0-.432.35-.782.782-.782zm24.696-16.87c0-7.48-6.087-13.566-13.566-13.566-7.479 0-13.564 6.087-13.564 13.566 0 7.479 6.087 13.564 13.564 13.564 7.478 0 13.566-6.087 13.566-13.564zM19.565 32.696c-6.87 0-12.522-5.566-12.522-12.521A12.471 12.471 0 0119.566 7.652a12.469 12.469 0 0112.521 12.523c-.087 6.87-5.653 12.521-12.522 12.521z" fill="#fff"/><path d="M19.565 15.304a4.862 4.862 0 00-4.87 4.87 4.862 4.862 0 004.87 4.869 4.862 4.862 0 004.87-4.87c.087-2.696-2.175-4.87-4.87-4.87zm0 8.696c-2.087 0-3.825-1.74-3.825-3.826 0-2.086 1.738-3.826 3.825-3.826s3.827 1.74 3.827 3.826c0 2.088-1.74 3.826-3.827 3.826z" fill="#fff"/><path d="M19.565 17.478a2.71 2.71 0 00-2.695 2.696 2.709 2.709 0 002.695 2.696 2.71 2.71 0 002.697-2.696c0-1.478-1.13-2.696-2.697-2.696zM18 20.174c0-.87.696-1.652 1.652-1.652s1.74.87 1.566 1.914c-.174-.347-.523-.521-.958-.521-.609 0-1.13.52-1.13 1.13 0 .348.087.609.348.782-.782-.087-1.478-.782-1.478-1.653zM37.045 7.478l-.522 1.043c.522.348 1.304.61 1.913.61v.868h.52V9.13c.697 0 1.305-.26 1.653-.869.174-.348.174-.957 0-1.304-.088-.261-.348-.52-.87-.782-.435-.174-.87-.261-.956-.261V4.871c.52.087 1.13.435 1.217.522l.52-1.043c-.172-.087-.434-.261-.695-.348-.26-.087-.608-.174-.87-.174v-.782h-.52v.782c-.696.087-1.304.348-1.565 1.043-.174.348-.174.87-.087 1.218s.348.521.696.696c.435.174.782.26.957.347v.958c-.61-.087-1.304-.521-1.391-.61v-.002zm1.826-.26c.174.087.348.087.435.174.087.087.174.174.174.261 0 .261-.174.348-.609.435V7.22zm-.782-1.565c-.088-.087-.088-.174-.088-.26 0-.261.174-.435.522-.435v.87c-.174-.087-.348-.087-.435-.174l.001-.001zm-2.002 4.174c.174-.175.174-.521 0-.782a3.57 3.57 0 010-5.044c.174-.174.174-.522 0-.782-.173-.174-.52-.174-.782 0a4.67 4.67 0 000 6.609c.261.26.61.26.782 0v-.001zm5.478.173c.174 0 .26-.088.348-.175a4.67 4.67 0 000-6.609c-.174-.174-.521-.174-.782 0-.174.175-.174.521 0 .782a3.57 3.57 0 010 5.044c-.348.348-.087.956.435.956l-.001.001zM16.174 40.087v.782c-.696.087-1.304.348-1.565 1.043-.174.348-.174.87-.087 1.218s.348.521.696.695c.435.174.782.261.957.35v.869c-.696-.087-1.391-.435-1.478-.61l-.522 1.044c.522.348 1.304.609 1.913.609v.869h.521v-.87c.696 0 1.304-.26 1.652-.87.174-.348.174-.956 0-1.304-.088-.26-.348-.522-.87-.782-.435-.174-.869-.26-.957-.26v-1.044c.522.087 1.131.435 1.218.521l.521-1.043c-.174-.087-.435-.26-.696-.348-.26-.087-.608-.174-.87-.174V40l-.434.087zm.087 2.696c-.173-.087-.261-.087-.348-.174-.174-.087-.174-.174-.174-.348 0-.26.174-.435.52-.435v.957h.002zm.696 1.566c.087.087.173.173.173.26 0 .26-.173.349-.608.436v-.87c.261 0 .348.088.435.175v-.001zm-3.131-4.087c-.174-.174-.521-.174-.782 0a4.67 4.67 0 000 6.609c.087.087.26.174.348.174.52 0 .696-.608.348-.956a3.57 3.57 0 010-5.044c.261-.261.261-.61.087-.782l-.001-.001zm5.391 6.694c.174 0 .261-.087.348-.174a4.67 4.67 0 000-6.608c-.174-.173-.52-.173-.782 0-.174.174-.174.522 0 .782a3.57 3.57 0 010 5.044c-.174.26 0 .956.435.956z" fill="#fff"/></svg>