<svg width="46" height="50" fill="none" xmlns="http://www.w3.org/2000/svg"><path d="M0 0v3.965h24.043V0H0zm23.04 2.964H1.003V1.002H23.04v1.962zM6.042 6.69v3.92h23.996V6.69H6.04zm22.994 2.92H7.043V7.691h21.993v1.917zM.014 13.336v3.82h23.998v-3.82H.014zm22.996 2.818H1.016v-1.816H23.01v1.816zm1.033 3.726H.023v3.846c.09.015.138.03.187.03 7.007.002 14.015.003 21.022-.004.17 0 .358-.071.503-.162a76.438 76.438 0 002.05-1.337c.11-.073.243-.21.247-.322.022-.678.01-1.357.01-2.05zm-1.004 1.668a71.365 71.365 0 01-1.854 1.202c-4.11.005-8.22.006-12.329.006-2.61 0-5.222 0-7.833-.002v-1.872h22.02c0 .225 0 .445-.005.665h.001zM.026 26.483v3.765h.612c4.82 0 9.64-.022 14.46.022.835.008 1.407-.119 1.61-1.003.033-.14.13-.27.208-.397.487-.789.976-1.576 1.48-2.387H.025zm16.038 1.861l-.038.06a1.951 1.951 0 00-.293.639.65.65 0 01-.06.174c-.033.015-.153.052-.513.052h-.053c-2.087-.02-4.323-.028-7.247-.028-1.204 0-2.408 0-3.612.003-1.074 0-2.147.002-3.22.003v-1.762h15.567l-.531.86zm.753 14.927c-.076-.18-.145-.327-.201-.479-.348-.934-.725-1.86-1.022-2.81-.121-.389-.264-.51-.674-.509-4.787.016-9.574.01-14.361.01h-.52v3.788h16.779-.001zM1.04 42.27v-1.785h5.666c2.358 0 5.141 0 7.994-.01.198.613.424 1.212.646 1.795H1.042zM.024 32.996v3.753h14.945l.316-3.753H.024zm14.024 2.752H1.026v-1.75h13.17l-.149 1.75h.001zm29.89-4.628c-1.99-4.5-5.502-7.213-10.39-7.98-4.055-.638-7.726.403-10.784 3.12-4.227 3.752-5.66 8.492-4.17 13.942 1.167 4.267 3.972 7.234 8.094 8.85 1.225.48 2.574.64 3.866.948h2.003c.525-.085 1.055-.149 1.575-.258 4.083-.861 7.217-3.083 9.234-6.73 2.123-3.84 2.346-7.881.572-11.892zM42.49 42.527c-1.839 3.327-4.72 5.424-8.563 6.234-.325.069-.66.119-1.014.172-.145.02-.29.043-.434.066H30.67c-.386-.09-.774-.168-1.15-.243-.879-.175-1.71-.341-2.466-.638-3.907-1.531-6.428-4.284-7.493-8.182-1.387-5.069-.086-9.419 3.868-12.928 2.278-2.024 4.92-3.05 7.852-3.05.686 0 1.397.058 2.112.17 4.534.712 7.774 3.2 9.63 7.397 1.637 3.7 1.457 7.402-.534 11.002z" fill="#fff"/><path d="M33.21 33.513c-.03-.117-.06-.243-.098-.366-.228-.74-.917-1.197-1.642-1.089a1.52 1.52 0 00-1.294 1.493c.003.76.57 1.41 1.356 1.48.82.074 1.62.183 2.345.613 1.543.913 2.33 2.285 2.284 4.054-.046 1.762-.934 3.068-2.509 3.859-.373.186-.498.381-.484.782.03.847.01 1.697.01 2.581H30.17c0-.877-.019-1.74.01-2.602.011-.38-.093-.574-.456-.751-1.628-.795-2.441-2.144-2.562-3.976h2.984c.245 1.052.925 1.599 1.777 1.444a1.518 1.518 0 001.25-1.53c-.027-.762-.603-1.377-1.399-1.441-.805-.065-1.586-.185-2.297-.605-1.543-.912-2.337-2.28-2.288-4.05.05-1.78.94-3.099 2.548-3.885.335-.163.456-.335.443-.707-.03-.88-.01-1.763-.01-2.68h3.006c0 .91.016 1.808-.008 2.703-.009.346.098.516.419.671 1.646.8 2.479 2.15 2.601 4.002h-2.98z" fill="#fff"/></svg>