<svg width="62" height="50" fill="none" xmlns="http://www.w3.org/2000/svg"><path d="M7.506 16.135c-2.18 0-4.361 0-6.541-.007-.794 0-.956-.16-.959-.943C-.002 10.7-.002 6.273.01 2.026c0-.751.162-.914.907-.916a3306.382 3306.382 0 0113.163-.002c.787 0 .948.162.95.951.007 1.556.004 3.113.004 4.666v3.781c0 1.543.003 3.086-.002 4.629-.002.855-.14.993-.982.995-2.18.005-4.36.005-6.541.005h-.002zm-6.155-1.36h12.324V2.48H1.35v12.293h.002zM30.308 50c-4.793 0-8.706-3.91-8.721-8.712-.015-4.787 3.881-8.713 8.686-8.748h.066c4.796 0 8.7 3.932 8.704 8.765a8.612 8.612 0 01-2.56 6.141A8.682 8.682 0 0130.312 50h-.005zm-.02-16.086c-3.989.024-7.343 3.402-7.32 7.378.021 4.029 3.318 7.306 7.351 7.306a7.289 7.289 0 005.198-2.163 7.272 7.272 0 002.128-5.194c-.018-4.04-3.297-7.327-7.313-7.327h-.044zm22.638-17.781h-4.609c-1.066.002-2.132 0-3.197-.003-.495 0-.844-.11-.954-.296-.108-.183-.038-.532.193-.954l.319-.585C47.126 9.811 49.66 5.176 52.195.642c.184-.33.633-.633.859-.642.138 0 .543.316.727.646 2.4 4.306 4.807 8.704 7.135 12.957l.661 1.21c.224.41.28.766.154.981-.123.211-.455.332-.91.336a559.62 559.62 0 01-3.303.01l-4.585-.005-.007-.003zm-6.892-1.348h14.069L53.064 1.936l-7.029 12.85h-.002zm-11.447-2.586c-.263 0-.49-.134-.562-.332-.172-.464-.06-.772.36-.996.79-.424 1.6-.846 2.383-1.255l1.006-.525 1.02-.534-1.116-.282a34.468 34.468 0 00-8.43-1.06c-2.276 0-4.6.234-6.905.698-.16.033-.308.048-.435.048-.416 0-.609-.156-.688-.558-.055-.275.026-.396.053-.433.114-.17.39-.301.797-.38a39.815 39.815 0 017.517-.728c2.666 0 5.354.284 7.99.842.112.024.213.03.342.042.064.004.139.01.227.02l.877.087-1.073-1.767c-.457-.756-.899-1.483-1.343-2.207-.33-.54-.209-.81.077-1.05a.61.61 0 01.39-.156c.197 0 .384.12.525.338a278.537 278.537 0 013.745 5.983c.079.132.165.327.112.519-.055.2-.238.334-.38.41a268.342 268.342 0 01-6.108 3.19.828.828 0 01-.378.092l-.003-.006zM15.219 39.235c-.036-.005-.185-.053-.572-.506-3.248-3.8-5.717-8.24-7.339-13.192l-.58-1.773-2.099 3.83c-.332.605-.646.924-.908.924a.59.59 0 01-.296-.1c-.264-.155-.594-.35.03-1.476l.614-1.106c.764-1.38 1.532-2.76 2.3-4.136.33-.59.513-.59.59-.59.15 0 .371.093.655.278a591.55 591.55 0 015.367 3.499c.778.514.543.883.442 1.042-.176.274-.36.307-.484.307-.19 0-.43-.09-.692-.259-.699-.453-1.391-.91-2.086-1.367l-2.068-1.35s.818 2.776 1.081 3.422c.603 1.475 1.227 3 2.031 4.41 1.024 1.79 2.238 3.5 3.41 5.156.412.582.823 1.162 1.228 1.75.428.621.354.793.22.94-.15.165-.52.303-.807.303h-.042l.005-.006zm29.933.149c-.495 0-.578-.49-.591-.701a710.233 710.233 0 01-.392-6.81c-.015-.307.047-.63.627-.696a.848.848 0 01.075-.004c.39 0 .558.369.586.714.042.558.075 1.128.108 1.68.022.368.044.738.068 1.107.014.213.038.424.064.692.013.137.03.286.046.46l.108 1.099.677-.873c.099-.13.187-.237.261-.334.143-.18.255-.32.36-.473 2.768-3.973 4.709-8.312 5.773-12.892.013-.053.028-.104.043-.156a2.3 2.3 0 00.042-.148c.101-.38.303-.833.695-.833.057 0 .12.01.187.027.142.037.573.147.371 1.085-1.062 4.95-3.128 9.645-6.139 13.96-.092.129-.182.26-.3.434l-.792 1.148 1.94-.28c.72-.103 1.385-.2 2.051-.294l.207-.03c.279-.042.54-.08.798-.084.514 0 .62.279.657.52.029.196.044.66-.45.737-2.535.389-4.82.697-6.988.94a.738.738 0 01-.096.007l.004-.002z" fill="#fff"/></svg>