<svg width="26" height="26" fill="none" xmlns="http://www.w3.org/2000/svg"><path d="M25.957 6.49c-.023-.019-.012-.044-.013-.065a13.13 13.13 0 00-.089-1.308c-.08-.614-.216-1.215-.478-1.781a4.906 4.906 0 00-.345-.653 7.053 7.053 0 00-.4-.558A5.364 5.364 0 0022.706.618c-.777-.361-1.6-.516-2.447-.57a21.164 21.164 0 00-.943-.036c-.018 0-.038.007-.052-.012H6.692c-.016.022-.039.012-.058.013a15.15 15.15 0 00-1.247.063 11.5 11.5 0 00-.688.098c-.42.071-.83.182-1.222.347A5.405 5.405 0 00.784 2.924c-.368.657-.57 1.368-.67 2.11A13.509 13.509 0 00.01 6.615c0 .026.01.054-.01.078v12.573c.022.097.01.196.013.294.016.598.053 1.194.166 1.782.131.685.37 1.33.74 1.926.304.49.677.92 1.115 1.293.365.313.768.567 1.2.771.297.14.607.248.924.336.452.125.914.183 1.38.224.34.03.682.04 1.023.048.02 0 .044-.01.055.018h12.738c.086-.024.174-.012.261-.014.694-.023 1.385-.07 2.062-.239l.116-.031a5.344 5.344 0 002.055-1.048c1.045-.86 1.676-1.965 1.93-3.29.099-.512.138-1.03.158-1.549.004-.102-.007-.205.02-.306V6.49zm-3.463 7.948a45.9 45.9 0 01-.063 2.597c-.043.726-.156 1.439-.413 2.125a4.873 4.873 0 01-1.421 2.019l-.052.046c-.299.24-.617.45-.964.613a6.199 6.199 0 01-1.542.484c-.17.03-.34.049-.51.07-.47.056-.942.065-1.414.078-1.677.045-3.354.027-5.03.024a46.16 46.16 0 01-1.894-.044c-.147-.006-.294-.007-.44-.017-.151-.01-.3-.037-.45-.052a5.831 5.831 0 01-.945-.175 4.974 4.974 0 01-.745-.257 5.18 5.18 0 01-.865-.463 5.307 5.307 0 01-.689-.586 4.927 4.927 0 01-.391-.435c-.364-.454-.61-.968-.799-1.514a5.12 5.12 0 01-.213-.788c-.082-.47-.12-.946-.143-1.423-.041-.924-.044-1.85-.049-2.774l-.002-.063-.056.01.056-.01.002-1.445c.002-.858-.002-1.716.025-2.573.018-.572.033-1.144.111-1.712.067-.487.189-.958.359-1.419.077-.21.168-.414.276-.608A5 5 0 015.02 5.1c.73-.755 1.628-1.19 2.642-1.41a9.19 9.19 0 011.566-.178c1.634-.07 3.269-.044 4.904-.047a54.66 54.66 0 011.983.024c.561.02 1.123.032 1.68.112.802.113 1.566.34 2.253.778a4.804 4.804 0 011.98 2.448 6.64 6.64 0 01.38 1.772c.06.746.075 1.493.081 2.24.012 1.2.008 2.4.005 3.6z" fill="#960096"/><path d="M20.709 8.888a5.2 5.2 0 00-.304-1.503 3.087 3.087 0 00-1.61-1.73 3.497 3.497 0 00-.607-.22 5.994 5.994 0 00-.85-.154c-.117-.011-.235-.024-.353-.034-.166-.014-.333-.016-.5-.026-.405-.026-.81-.03-1.214-.034-1.513-.012-3.025-.01-4.538-.002-.592.004-1.183.03-1.774.06-.47.025-.932.097-1.382.24a3.126 3.126 0 00-1.786 1.407c-.298.497-.436 1.05-.506 1.62-.06.498-.069 1-.085 1.5-.023.692-.018 1.385-.02 2.078-.001.456.001.912.002 1.368l-.002.735c0 .8.006 1.601.043 2.401.021.463.046.926.15 1.38.092.395.22.776.433 1.122a3.1 3.1 0 001.15 1.11c.482.266 1.006.4 1.55.466.48.06.964.068 1.447.085.64.023 1.28.023 1.92.021 1.578-.003 3.156.026 4.733-.042a8.566 8.566 0 001.129-.104 4.073 4.073 0 001.112-.348c.151-.075.3-.151.433-.255.144-.114.295-.22.418-.36l.019-.015a2.82 2.82 0 00.603-.89 5.06 5.06 0 00.224-.629 6.03 6.03 0 00.178-1.246c.052-.954.056-1.908.057-2.863.002-.85 0-1.698-.001-2.547a40.687 40.687 0 00-.069-2.59v-.001zm-2.697-2.13A1.139 1.139 0 0119.2 7.846c.033.628-.48 1.194-1.11 1.195a1.14 1.14 0 01-1.173-1.1 1.135 1.135 0 011.095-1.183zm-2.144 10.164a4.916 4.916 0 01-2.28.909 5.833 5.833 0 01-.942.027 2.765 2.765 0 01-.431-.043c-.665-.125-1.298-.341-1.866-.717-1.271-.841-2.014-2.017-2.221-3.528-.019-.138-.023-.277-.034-.416-.055 0-.055 0 0 0a4.913 4.913 0 01.208-1.595 4.43 4.43 0 01.327-.822c.15-.276.32-.539.514-.788a4.21 4.21 0 01.557-.601 6.93 6.93 0 01.416-.33 4.708 4.708 0 011.93-.836c.27-.054.544-.079.821-.085a4.98 4.98 0 011.417.171c.607.167 1.16.448 1.66.829.428.324.792.711 1.09 1.157a4.8 4.8 0 01.813 2.293 4.845 4.845 0 01-.332 2.254 4.86 4.86 0 01-.798 1.327l-.04.05a5.21 5.21 0 01-.81.744z" fill="#960096"/><path d="M13.164 9.816c-1.193-.052-2.14.424-2.82 1.404a2.98 2.98 0 00-.534 1.771 3.139 3.139 0 00.847 2.15 3.168 3.168 0 004.746-.121l.042-.047a3.166 3.166 0 00-.198-4.208c-.571-.583-1.268-.913-2.083-.949z" fill="#960096"/></svg>