<svg width="50" height="50" fill="none" xmlns="http://www.w3.org/2000/svg"><path d="M50 12.5c-.043-.034-.023-.083-.024-.125-.026-.841-.062-1.682-.172-2.517-.155-1.185-.417-2.34-.92-3.432-.2-.432-.404-.86-.666-1.257a13.597 13.597 0 00-.771-1.076 10.334 10.334 0 00-3.708-2.903C42.245.494 40.66.195 39.027.093A39.879 39.879 0 0037.21.022c-.035 0-.075.015-.101-.022H12.89c-.029.042-.074.023-.111.024-.802.017-1.603.04-2.4.123-.445.046-.885.114-1.326.188-.811.137-1.598.35-2.354.668-2.26.947-3.988 2.494-5.187 4.63C.802 6.898.412 8.267.219 9.698c-.136 1.01-.179 2.024-.198 3.041-.001.05.018.106-.021.152V37.11c.044.187.021.377.027.566.03 1.151.101 2.3.318 3.432a10.84 10.84 0 001.426 3.71c.586.944 1.304 1.77 2.148 2.492a10.317 10.317 0 002.313 1.485c.571.27 1.167.478 1.778.646.872.24 1.762.353 2.658.431a31.03 31.03 0 001.971.093c.037 0 .085-.019.105.035h24.537c.166-.046.336-.023.504-.028 1.337-.043 2.668-.135 3.972-.46.075-.018.148-.04.223-.06a10.294 10.294 0 003.959-2.018c2.012-1.656 3.228-3.786 3.718-6.338.19-.985.265-1.982.304-2.983.008-.196-.014-.395.04-.588V12.5zm-6.67 15.31c-.003 1.669-.024 3.337-.121 5.002-.082 1.4-.3 2.773-.797 4.094a9.387 9.387 0 01-2.737 3.889c-.034.029-.066.06-.099.09a9.31 9.31 0 01-1.857 1.179c-.947.447-1.94.745-2.97.933-.326.06-.654.094-.981.133-.905.11-1.816.127-2.726.152-3.23.086-6.46.052-9.69.047a89.075 89.075 0 01-3.647-.086c-.283-.012-.567-.014-.849-.032-.29-.02-.577-.072-.866-.1a11.24 11.24 0 01-1.819-.338 9.598 9.598 0 01-1.436-.495c-.577-.256-1.145-.53-1.666-.892-.48-.333-.91-.72-1.326-1.128a9.501 9.501 0 01-.755-.839c-.7-.873-1.175-1.864-1.538-2.915a9.864 9.864 0 01-.41-1.518 21.653 21.653 0 01-.275-2.741c-.08-1.78-.086-3.562-.095-5.344 0-.04-.002-.081-.004-.122-.036.007-.072.012-.108.02.036-.008.072-.013.108-.02l.004-2.783c.003-1.652-.003-3.304.049-4.955.034-1.102.062-2.205.213-3.3.13-.936.363-1.844.69-2.732a8.42 8.42 0 01.533-1.171c.41-.74.926-1.406 1.515-2.017 1.406-1.455 3.137-2.293 5.09-2.718.994-.216 2.003-.296 3.016-.34 3.148-.136 6.297-.086 9.446-.091a104.84 104.84 0 013.82.046c1.082.038 2.164.062 3.238.215 1.544.219 3.016.657 4.338 1.5 1.792 1.143 3.077 2.71 3.814 4.715.406 1.104.638 2.244.732 3.413.115 1.436.144 2.876.157 4.317.022 2.31.014 4.622.01 6.933z" fill="#fff"/><path d="M39.892 17.12c-.064-.991-.235-1.96-.586-2.896A5.947 5.947 0 0037.37 11.6a5.61 5.61 0 00-1.163-.705 6.73 6.73 0 00-1.169-.426 11.554 11.554 0 00-1.638-.296c-.226-.022-.453-.047-.68-.066-.32-.027-.642-.03-.964-.05a42.869 42.869 0 00-2.338-.065 636.57 636.57 0 00-8.74-.003 72.16 72.16 0 00-3.418.116c-.904.047-1.795.185-2.661.462-1.485.476-2.641 1.373-3.441 2.708-.575.958-.841 2.022-.975 3.123-.116.958-.133 1.923-.164 2.887-.045 1.334-.036 2.668-.039 4.003-.002.879.003 1.757.004 2.636l-.002 1.416c0 1.542.01 3.084.08 4.625.042.892.09 1.783.292 2.658.175.76.42 1.494.832 2.161A5.972 5.972 0 0013.4 38.92c.929.513 1.938.771 2.985.9.926.113 1.858.129 2.789.162a98.05 98.05 0 003.698.042c3.04-.007 6.08.048 9.117-.082.728-.031 1.455-.073 2.174-.2.743-.13 1.463-.334 2.143-.67.291-.145.578-.292.834-.493.278-.218.569-.423.804-.691a.379.379 0 00.037-.031c.489-.502.891-1.06 1.163-1.713a9.76 9.76 0 00.431-1.212c.213-.785.298-1.59.342-2.4.102-1.837.108-3.676.111-5.515.003-1.636-.001-3.272-.004-4.907-.002-1.665-.023-3.329-.131-4.99zm-5.194-4.102c1.248-.05 2.223.905 2.287 2.095.065 1.208-.924 2.3-2.139 2.301a2.198 2.198 0 01-2.258-2.12 2.186 2.186 0 012.11-2.276zm-4.131 19.576a9.471 9.471 0 01-4.393 1.751c-.605.081-1.208.069-1.814.052a5.332 5.332 0 01-.83-.08c-1.281-.242-2.5-.659-3.594-1.383-2.448-1.62-3.88-3.884-4.278-6.795-.036-.266-.044-.535-.066-.803-.106 0-.106 0 0 0a9.468 9.468 0 01.4-3.07c.168-.546.359-1.083.63-1.584a11.2 11.2 0 01.99-1.519c.325-.418.676-.81 1.074-1.157.257-.224.527-.433.8-.637 1.114-.83 2.364-1.341 3.718-1.61a9.185 9.185 0 011.583-.163 9.457 9.457 0 012.729.33 9.34 9.34 0 013.199 1.595 9.24 9.24 0 012.1 2.23 9.248 9.248 0 011.564 4.417 9.333 9.333 0 01-.64 4.34 9.353 9.353 0 01-1.536 2.558c-.026.03-.051.063-.076.095a10.03 10.03 0 01-1.56 1.433z" fill="#fff"/><path d="M25.358 18.91c-2.297-.101-4.122.816-5.433 2.704-.708 1.018-1.04 2.167-1.027 3.411-.009.33.02.656.075.98a6.046 6.046 0 001.557 3.16 6.102 6.102 0 007.39 1.205 5.844 5.844 0 001.752-1.437c.026-.03.055-.06.08-.09a6.098 6.098 0 00-.381-8.107c-1.101-1.122-2.444-1.757-4.013-1.826z" fill="#fff"/></svg>