<svg width="51" height="50" fill="none" xmlns="http://www.w3.org/2000/svg"><path d="M25.013.018c7.096 0 14.193-.002 21.29 0 1.92 0 3.282 1.12 3.664 3.004.037.182.043.37.043.557.002 14.29.003 28.578 0 42.867 0 1.89-1.515 3.457-3.404 3.536-.124.006-.25.005-.374.005-14.162 0-28.323-.011-42.486.013-1.955.004-3.282-1.344-3.582-2.588a4.928 4.928 0 01-.146-1.15C.012 32.097.026 17.933 0 3.769-.004 1.707 1.625-.014 3.77 0c6.94.047 13.881.018 20.822.018h.421zm1.664 21.943c0-.995-.017-1.85.007-2.705.011-.41-.093-.574-.544-.568a277.56 277.56 0 01-6.176 0c-.439-.005-.553.139-.552.56.01 7.628.011 15.255-.002 22.882 0 .467.166.58.598.576 2.121-.016 4.242-.02 6.363.001.466.005.608-.128.606-.609-.02-3.805-.021-7.611-.003-11.417.004-.805.053-1.622.193-2.415.284-1.615 1.02-2.927 2.75-3.36.535-.133 1.11-.159 1.664-.152 1.744.02 2.865.864 3.253 2.573.218.961.305 1.97.313 2.958.034 3.93.02 7.861.007 11.79-.002.452.108.638.6.632 2.12-.022 4.24-.02 6.362 0 .447.003.583-.133.581-.585-.015-4.243-.013-8.486-.003-12.728.005-1.718-.089-3.426-.482-5.101-.542-2.311-1.607-4.283-3.88-5.302-2.255-1.011-4.625-1.212-7.02-.587-1.969.512-3.465 1.72-4.634 3.557h-.001zm-11.791 8.703c0-3.805-.006-7.61.007-11.414.002-.418-.109-.566-.55-.561-2.151.021-4.303.02-6.454 0-.419-.003-.56.104-.559.546.013 7.64.013 15.28 0 22.92 0 .45.158.553.567.55 2.12-.012 4.24-.005 6.36-.006.627 0 .629-.004.629-.621V30.664zm-3.771-15.171a4.315 4.315 0 004.34-4.317 4.338 4.338 0 00-4.348-4.365c-2.421 0-4.336 1.932-4.333 4.371.003 2.401 1.927 4.312 4.34 4.31z" fill="#fff"/></svg>