<svg width="26" height="26" fill="none" xmlns="http://www.w3.org/2000/svg"><path d="M12.985.01c3.684 0 7.369-.002 11.052 0 .998 0 1.705.581 1.903 1.559.019.094.022.192.022.289.001 7.418.002 14.836 0 22.254 0 .982-.786 1.795-1.767 1.836-.064.003-.13.002-.194.002-7.352 0-14.704-.005-22.056.007C.93 25.96.24 25.26.085 24.614a2.559 2.559 0 01-.076-.597C.006 16.663.014 9.31 0 1.957A1.937 1.937 0 011.958 0C5.56.024 9.164.01 12.767.01h.218zm.864 11.39c0-.516-.009-.96.004-1.403.006-.214-.049-.298-.283-.295-1.069.012-2.137.011-3.206 0-.228-.003-.287.072-.286.29.005 3.96.006 7.92-.001 11.88 0 .242.086.3.31.298 1.101-.008 2.202-.01 3.303.001.242.003.316-.066.315-.316-.01-1.976-.011-3.951-.002-5.927.002-.418.028-.842.1-1.254.148-.839.53-1.52 1.429-1.744.277-.07.575-.083.863-.08.906.011 1.487.45 1.689 1.337.113.498.158 1.022.162 1.535.018 2.04.01 4.081.004 6.121-.001.235.056.331.311.328 1.1-.011 2.202-.01 3.303 0 .232.002.303-.07.302-.304-.008-2.202-.007-4.405-.002-6.607.003-.892-.046-1.779-.25-2.649-.282-1.2-.834-2.223-2.014-2.752a5.392 5.392 0 00-3.645-.305c-1.022.266-1.798.893-2.405 1.847h-.001zm-6.121 4.52c0-1.975-.003-3.95.004-5.925 0-.217-.057-.294-.286-.292-1.117.011-2.234.01-3.35 0-.218-.001-.291.054-.29.283.006 3.967.006 7.933 0 11.9 0 .233.081.287.294.285 1.1-.007 2.201-.003 3.302-.003.325 0 .326-.002.326-.323V15.92zM5.77 8.043a2.24 2.24 0 002.253-2.241 2.252 2.252 0 00-2.257-2.266 2.241 2.241 0 00-2.25 2.27A2.234 2.234 0 005.77 8.042z" fill="#960096"/></svg>