<svg width="112" height="120" fill="none" xmlns="http://www.w3.org/2000/svg"><path d="M30.113 39.559h48.643v9.265c0 1.264 1.474 1.685 2.317.841l23.794-23.794c.421-.42.421-1.261 0-1.894L81.073.39c-.843-.84-2.317-.209-2.317.844v11.791H30.113c-.63 0-1.262.633-1.262 1.265v23.794c0 .84.633 1.476 1.262 1.476zm51.38-34.956l20.428 20.424-20.427 20.427V4.603zm-2.737 11.37V37.03H31.377v-6.528h25.058c.633 0 1.265-.63 1.265-1.261 0-.632-.632-1.262-1.265-1.262H31.377V16.185h47.38v-.212zm4.002 66.966H34.115V71.145c0-1.262-1.476-1.685-2.317-.841L8.213 93.889c-.42.423-.42 1.264 0 1.894l23.585 23.796c.209.209.632.421.84.421.633 0 1.265-.632 1.265-1.262v-9.265h48.644c.632 0 1.264-.632 1.264-1.261V84.415c.209-.841-.209-1.473-1.053-1.473v-.003zm-51.38 32.43L10.95 94.942l20.427-20.425v40.855-.003zm2.737-8.633V85.679h47.379v6.528H43.377c-.63 0-1.261.632-1.261 1.264s.632 1.262 1.261 1.262h38.117v11.794h-47.38v.209zM56.433 50.93v2.313c-2.106.212-3.79 1.056-4.631 2.95-.42 1.052-.42 2.526-.21 3.578.421 1.053 1.053 1.685 2.106 2.106 1.264.632 2.526.84 2.95 1.055v2.947c-.633 0-1.056-.21-1.474-.421-.632-.212-1.685-.632-2.317-1.055-.209-.21-.42-.21-.42-.421l-1.685 3.158c1.685 1.056 3.79 1.685 5.684 1.897v2.525h1.473v-2.525c1.264 0 2.737-.424 3.79-1.265.423-.42.841-.84 1.264-1.473.21-.632.42-1.264.42-2.108 0-1.894-.84-3.161-2.737-4-1.261-.631-2.526-.84-2.737-.84V56.4c1.476.21 3.37 1.265 3.578 1.474l1.685-2.95c-.632-.42-1.261-.629-2.105-1.052-.841-.42-1.685-.632-2.738-.632v-2.315h-1.896v.003zm.423 8.212c-.423-.209-.84-.42-1.053-.63-.211-.211-.423-.423-.423-.84 0-.844.423-1.265 1.473-1.265v2.738l.003-.003zm2.105 4.634c.212.209.424.42.424.841 0 .63-.632 1.053-1.685 1.262V63.14c.632.209 1.053.42 1.261.632v.003z" fill="#960096"/><path d="M38.114 61.248c0 10.53 8.633 19.162 19.163 19.162 10.53 0 19.162-8.633 19.162-19.162 0-10.53-8.633-19.163-19.162-19.163-10.53 0-19.163 8.633-19.163 19.163zm35.379 0c0 9.053-7.369 16.425-16.425 16.425-9.057 0-16.425-7.372-16.425-16.425 0-9.054 7.371-16.426 16.425-16.426 9.053 0 16.425 7.369 16.425 16.425z" fill="#960096"/><path d="M49.485 51.77c-.42-.423-1.262-.423-1.894 0-5.264 5.264-5.264 13.9 0 19.163.212.209.632.42.84.42 1.265 0 1.686-1.472.845-2.314-4.214-4.21-4.214-11.161 0-15.372.632-.632.632-1.473.209-1.894v-.003zM65.7 71.354c.424 0 .633-.21.842-.42 5.263-5.264 5.263-13.9 0-19.164-.42-.423-1.262-.423-1.894 0-.423.42-.423 1.262 0 1.894 4.21 4.21 4.21 11.162 0 15.373-.632.84 0 2.314 1.053 2.314v.003zm-50.116-4.211c0-3.579-2.95-6.528-6.528-6.528-3.578 0-6.527 2.947-6.527 6.528 0 3.581 2.946 6.528 6.527 6.528 3.582 0 6.528-2.738 6.528-6.528zm-10.53 0c0-2.105 1.685-4 4.002-4 2.317 0 4.002 1.686 4.002 4 0 2.108-1.685 4.002-4.002 4.002-2.317 0-4.002-1.685-4.002-4.002zm106.764-17.055c0-5.054-4.21-9.265-9.265-9.265-5.054 0-9.265 4.21-9.265 9.265 0 5.055 4.21 9.266 9.265 9.266 5.055 0 9.265-4.211 9.265-9.266zm-9.265 6.528c-3.578 0-6.528-2.946-6.528-6.528 0-3.581 2.947-6.528 6.528-6.528 3.582 0 6.528 2.95 6.528 6.528 0 3.579-2.949 6.528-6.528 6.528zM7.16 30.502A1.895 1.895 0 115.266 32.4a1.9 1.9 0 011.894-1.897zM30.745 6.705a1.894 1.894 0 100-3.787 1.894 1.894 0 000 3.787zm75.175 1.268a1.894 1.894 0 110 3.788 1.894 1.894 0 010-3.788zm3.79 60.643a1.895 1.895 0 11.004 3.79 1.895 1.895 0 01-.004-3.79zM93.917 90.94c1.047 0 1.897.85 1.897 1.893 0 1.045-.85 1.894-1.897 1.894a1.894 1.894 0 010-3.787zM1.894 84.412A1.895 1.895 0 110 86.31c0-1.045.85-1.897 1.894-1.897z" fill="#960096"/></svg>