<svg width="34" height="30" fill="none" xmlns="http://www.w3.org/2000/svg"><path d="M24.872 17.244c-.122.008-.23.02-.337.02-1.218.002-2.437.008-3.655 0a20.14 20.14 0 00-4.323.427c-3.195.68-6.058 2.056-8.622 4.075-.285.225-.663.415-1.017.455-1.15.13-1.985-.672-1.985-1.838-.002-6.14 0-12.278 0-18.417 0-.099.002-.197.007-.295C4.99.721 5.758.003 6.71 0c.585-.002 1.012.318 1.444.655 3.356 2.613 7.158 4.072 11.406 4.296 1.62.086 3.248.042 4.871.057h.44v12.236h.001zm1.21-12.218c.139-.007.247-.017.356-.017 1.562-.001 3.125-.004 4.688 0 1.26.004 1.964.711 1.964 1.968v8.304c0 1.252-.717 1.98-1.958 1.985-1.563.004-3.125 0-4.689 0h-.36V5.027zm3.112 13.442c-.05.13-.082.232-.127.329-1.457 3.224-2.912 6.45-4.373 9.672-.564 1.242-1.836 1.812-3.04 1.396-1.037-.358-1.912-1.622-1.53-3.017.736-2.677 1.408-5.371 2.108-8.058.03-.114.073-.224.104-.322h6.858zM3.724 6.524v9.191C1.895 15.611.12 13.55.007 11.428c-.127-2.401 1.496-4.56 3.717-4.903v-.001z" fill="#492464"/><path d="M24.872 17.244V5.008h-.44c-1.623-.015-3.25.029-4.87-.057C15.313 4.726 11.51 3.268 8.155.655 7.722.318 7.295-.002 6.71 0a1.758 1.758 0 00-1.772 1.671 5.887 5.887 0 00-.007.295v18.417c0 1.167.836 1.969 1.985 1.838.354-.04.73-.231 1.017-.455 2.565-2.02 5.428-3.394 8.622-4.075a20.083 20.083 0 014.323-.426c1.219.007 2.437.002 3.655 0 .107 0 .215-.013.337-.02h.002zm1.209-12.218v12.24h.361c1.563 0 3.125.003 4.689 0 1.24-.004 1.959-.733 1.959-1.984V6.977c0-1.256-.704-1.965-1.964-1.968-1.563-.004-3.125 0-4.688 0-.109 0-.216.01-.355.017h-.002zm3.111 13.442h-6.857c-.032.098-.075.208-.104.322-.7 2.687-1.372 5.38-2.107 8.058-.383 1.395.492 2.659 1.529 3.017 1.204.415 2.477-.154 3.04-1.396 1.461-3.222 2.916-6.448 4.373-9.672.044-.097.077-.2.127-.329h-.001zM3.724 6.523C1.504 6.867-.12 9.025.007 11.427c.113 2.123 1.888 4.182 3.717 4.287V6.522v.001z" fill="#492464"/></svg>