<svg width="20" height="32" fill="none" xmlns="http://www.w3.org/2000/svg"><path d="M2.733 31.073v-1.818h6.36V25.46c-3.028-.359-5.465-1.735-7.246-4.209C.617 19.545.027 17.62 0 15.497h1.809c.08 2.626 1.107 4.797 3.175 6.43 1.602 1.268 3.45 1.841 5.486 1.728 4.25-.236 7.687-3.703 7.751-8.156h1.771c.192 4.119-3.064 9.31-9.043 9.956v3.79h6.35v1.829H2.734v-.001z" fill="#492464"/><path d="M16.31 5.45h-4.448v1.825h4.512v2.724h-4.516v1.825h4.509v2.735h-4.513v1.815h4.441c-.2 2.22-2.202 5.225-5.898 5.46-3.29.21-6.208-2.17-6.676-5.436h4.457v-1.826H3.666v-2.735h4.516v-1.814h-4.52V7.298h4.513V5.464H3.724C4.06 2.434 6.849.01 9.984 0c3.172-.011 5.955 2.38 6.325 5.45z" fill="#492464"/></svg>