<svg width="127" height="120" fill="none" xmlns="http://www.w3.org/2000/svg"><path d="M43.497 19.02h3.06v7.865h2.404v-7.866h3.06v-2.187h-8.524v2.187zm12.898-2.188L52.68 26.888h2.405l.875-2.185h3.06l.874 2.185H62.3l-3.717-10.056h-2.188zm-.218 6.339l1.31-3.497 1.095 3.497h-2.405zm14.425-6.339l-2.185 3.497-2.187-3.497h-2.625l3.5 5.247-3.28 4.806h2.405l2.187-3.277 2.185 3.277h2.404l-3.279-4.806 3.497-5.247h-2.622zm7.214 5.901h3.934v-1.747h-3.934V19.02h4.588v-2.187h-6.773v10.053h6.99V24.92h-4.805v-2.188zm9.618-3.059c0-.655.437-.875 1.31-.875.872 0 1.75.438 2.404.658.217 0 .217.217.217.217l1.093-1.967c-3.497-1.967-6.122-1.092-6.997.875-.437.657-.437 1.75-.217 2.404.875 2.185 5.03 1.75 5.03 3.06 0 .437-.438.657-1.313.657-.438 0-.875 0-1.092-.217-.658-.22-1.31-.437-1.75-.658-.218-.217-.435-.217-.435-.217l-1.095 1.967c1.313.875 3.717 1.53 5.684 1.093.875-.218 1.53-.658 1.967-1.53.438-.655.438-1.967 0-2.622-.657-1.967-4.809-1.31-4.809-2.842l.003-.003z" fill="#960096"/><path d="M109.072 8.089h-6.776V1.312c0-.657-.658-1.312-1.312-1.312H19.016c-.657 0-1.312.658-1.312 1.312v109.293c0 .654.658 1.309 1.313 1.309h6.776v6.776c0 .655.657 1.31 1.312 1.31h81.967c.658 0 1.313-.658 1.313-1.31V9.401c0-.875-.438-1.31-1.313-1.31V8.09zm-1.309 24.48H28.415V10.71h79.345v21.862l.003-.003zm-87.437 76.503V2.622h79.345v5.467H27.105c-.657 0-1.312.654-1.312 1.31v99.673h-5.467zm8.089 8.306V35.411h79.345v81.967H28.415z" fill="#960096"/><path d="M33.879 73.664h34.098c.658 0 1.313-.657 1.313-1.31V40.879c0-.658-.658-1.313-1.313-1.313H33.88c-.655 0-1.31.658-1.31 1.313v31.477c0 .654.658 1.31 1.31 1.31zm1.53-31.477h31.476v28.635H35.408V42.187zm66.887-2.842H73.661c-.655 0-1.31.658-1.31 1.31v16.394c0 .655.658 1.31 1.31 1.31h28.635c.657 0 1.309-.658 1.309-1.31V40.655c0-.655-.654-1.31-1.309-1.31zm-1.313 16.395h-26.01V41.97h26.01v13.77zm1.313 5.464H73.661c-.655 0-1.31.657-1.31 1.312s.658 1.31 1.31 1.31h28.635c.657 0 1.309-.658 1.309-1.31s-.654-1.312-1.309-1.312zm0 5.464H73.661c-.655 0-1.31.657-1.31 1.312s.658 1.31 1.31 1.31h28.635c.657 0 1.309-.658 1.309-1.31s-.654-1.313-1.309-1.313zm0 5.464H73.661c-.655 0-1.31.657-1.31 1.312s.658 1.31 1.31 1.31h28.635c.657 0 1.309-.658 1.309-1.31s-.654-1.312-1.309-1.312zm0 5.466H33.879c-.655 0-1.31.658-1.31 1.313 0 .654.658 1.309 1.31 1.309h68.417c.658 0 1.31-.658 1.31-1.31 0-.651-.655-1.312-1.31-1.312zm0 5.464H33.879c-.655 0-1.31.658-1.31 1.313 0 .654.658 1.31 1.31 1.31h68.417c.658 0 1.31-.656 1.31-1.31 0-.655-.655-1.313-1.31-1.313zm0 5.464H33.879c-.655 0-1.31.658-1.31 1.313 0 .654.658 1.309 1.31 1.309h68.417c.658 0 1.31-.655 1.31-1.31 0-.654-.655-1.312-1.31-1.312zm0 5.464H33.879c-.655 0-1.31.658-1.31 1.312 0 .655.658 1.31 1.31 1.31h68.417c.658 0 1.31-.655 1.31-1.31 0-.654-.655-1.312-1.31-1.312zm0 5.464H33.879c-.655 0-1.31.657-1.31 1.312s.658 1.31 1.31 1.31h68.417c.658 0 1.31-.655 1.31-1.31s-.655-1.312-1.31-1.312zm0 5.467H33.879c-.655 0-1.31.654-1.31 1.309 0 .655.658 1.31 1.31 1.31h68.417c.658 0 1.31-.655 1.31-1.31s-.655-1.309-1.31-1.309zm0 5.464H33.879c-.655 0-1.31.654-1.31 1.309 0 .655.658 1.31 1.31 1.31h68.417c.658 0 1.31-.655 1.31-1.31s-.655-1.309-1.31-1.309zM13.553 91.368c0-3.717-3.06-6.776-6.777-6.776S0 87.652 0 91.368c0 3.717 3.06 6.776 6.776 6.776 3.717 0 6.777-3.059 6.777-6.776zM6.556 95.52c-2.184 0-4.154-1.75-4.154-4.152 0-2.187 1.75-4.154 4.154-4.154 2.405 0 4.154 1.75 4.154 4.154 0 2.184-1.75 4.152-4.154 4.152zm118.911-62.296c0-3.497-2.842-6.119-6.122-6.119-3.279 0-6.121 2.842-6.121 6.119 0 3.496 2.842 6.121 6.121 6.121 3.28 0 6.122-2.622 6.122-6.121zm-6.122 3.496c-1.967 0-3.496-1.53-3.496-3.496 0-1.967 1.529-3.497 3.496-3.497s3.497 1.53 3.497 3.497c0 1.967-1.53 3.496-3.497 3.496zM8.743 12.24a1.967 1.967 0 110 3.934 1.968 1.968 0 110-3.934zm0 43.717c1.087 0 1.967.88 1.967 1.97a1.97 1.97 0 11-1.967-1.97zm107.98-43.934a1.967 1.967 0 100-3.933 1.967 1.967 0 000 3.933zm0 46.339a1.967 1.967 0 100-3.934 1.967 1.967 0 000 3.934zM12.895 111.914a1.97 1.97 0 010 3.937 1.967 1.967 0 01-1.967-1.97c0-1.089.88-1.967 1.967-1.967zm111.914-8.306a1.967 1.967 0 110 3.934 1.967 1.967 0 010-3.934z" fill="#960096"/></svg>