<svg width="26" height="26" fill="none" xmlns="http://www.w3.org/2000/svg"><path d="M13.051 23.947c-3.412-.005-6.516-1.44-8.659-3.94A10.934 10.934 0 011.76 13.58a10.79 10.79 0 01-.01-1.381c.102-1.71.568-3.314 1.415-4.804a11.24 11.24 0 018.604-5.622 11.426 11.426 0 011.87-.047 11.257 11.257 0 019.292 5.915 10.838 10.838 0 011.121 3.226c.094.524.147 1.052.168 1.585.017.42.007.841-.028 1.26-.17 2.035-.84 3.89-2.038 5.543-1.632 2.248-3.808 3.699-6.502 4.373-.48.12-.968.2-1.46.252-.404.043-.808.06-1.14.066zm6.365-6.16a2.965 2.965 0 00-.069-.646 3.208 3.208 0 00-2.976-2.522 3.16 3.16 0 00-1.301.196A3.18 3.18 0 0013 18.218a3.14 3.14 0 00.768 1.678 3.245 3.245 0 003.102 1.02 3.2 3.2 0 002.546-3.13zM6.542 7.855c0 .478.104.932.31 1.363A3.235 3.235 0 0010.71 10.9a3.192 3.192 0 002.277-2.968 3.055 3.055 0 00-.247-1.302 3.23 3.23 0 00-3.78-1.86c-1.432.37-2.416 1.63-2.417 3.085zm14.51 1.532a3.108 3.108 0 00-.312-1.37 3.23 3.23 0 00-3.493-1.759 3.196 3.196 0 00-2.624 2.853 3.079 3.079 0 00.285 1.615 3.228 3.228 0 003.58 1.783c1.488-.304 2.572-1.607 2.565-3.122zm-9.706 6.848a2.68 2.68 0 00-.07-.64 3.218 3.218 0 00-3.382-2.508 3.227 3.227 0 00-1.389.424 3.163 3.163 0 00-1.29 4.118 3.229 3.229 0 003.732 1.715 3.194 3.194 0 002.399-3.109zm3.006-3.33a1.42 1.42 0 00-1.435-1.42 1.427 1.427 0 00-1.435 1.422 1.43 1.43 0 001.438 1.418c.808-.001 1.441-.658 1.432-1.42zM20.46 3.19l.688.181c.628.165 1.257.324 1.883.497a3.972 3.972 0 012.85 3.053 3.837 3.837 0 01-.06 1.782c-.22.824-.441 1.648-.663 2.471-.008.032-.02.063-.034.11-.482-3.327-2.053-6.006-4.664-8.093z" fill="#960096"/><path d="M14.762 24.891c3.26-.552 5.913-2.116 7.972-4.699l-.039.15c-.215.8-.425 1.601-.647 2.4a3.988 3.988 0 01-2.94 2.806 4.213 4.213 0 01-2.091-.058c-.722-.197-1.446-.382-2.17-.572l-.085-.027zM11.146.747c-3.15.495-5.753 1.95-7.824 4.39.003-.031.003-.05.007-.068.193-.72.382-1.44.582-2.157A3.987 3.987 0 016.862.104a4.13 4.13 0 012.019.045c.719.193 1.44.38 2.16.569.035.009.07.02.104.03zM.71 14.825c.57 3.088 2.09 5.597 4.521 7.568l-.492-.128c-.603-.16-1.208-.311-1.81-.479a3.972 3.972 0 01-2.85-3.05 3.894 3.894 0 01.068-1.828c.182-.668.36-1.337.54-2.005l.023-.078z" fill="#960096"/></svg>