<svg width="27" height="27" fill="none" xmlns="http://www.w3.org/2000/svg"><path d="M11.584 16.08c-1.653 1.768-3.243 3.468-4.83 5.168-1.398 1.496-2.783 3.007-4.207 4.477-.22.228-.612.35-.942.397-.476.066-.97.017-1.525-.138l10.508-11.235L0 .573C.232.545.35.518.47.518 2.755.516 5.04.535 7.327.503c.485-.007.684.261.919.574 2.129 2.85 4.262 5.695 6.393 8.542.09.12.188.232.336.415.639-.67 1.263-1.314 1.874-1.968 2.163-2.314 4.334-4.621 6.473-6.958.4-.436.799-.665 1.393-.599.4.046.809.01 1.422.01L15.977 11.42l10.954 14.652c-.281.03-.442.062-.602.062-2.178.003-4.355-.016-6.534.015-.519.007-.823-.178-1.118-.576-2.164-2.93-4.345-5.848-6.523-8.769-.165-.223-.343-.436-.572-.726l.002.001zm12.092 8.34c-.2-.292-.325-.486-.462-.669-1.692-2.26-3.387-4.517-5.08-6.775-3.566-4.76-7.13-9.523-10.702-14.278-.147-.194-.365-.462-.56-.469-1.13-.045-2.262-.022-3.51-.022.19.28.3.456.424.62 1.148 1.537 2.3 3.07 3.449 4.605 4.12 5.502 8.24 11.005 12.369 16.5.146.195.37.457.566.464 1.13.044 2.263.022 3.506.022v.001z" fill="#960096"/></svg>