<svg width="120" height="120" viewBox="0 0 120 120" fill="none" xmlns="http://www.w3.org/2000/svg">
<path d="M119.444 63.9002C119.444 33.11 93.9259 8.22381 63.3473 8.22381C55.9673 8.22381 49.6371 9.27649 44.3652 11.3875L40.781 1.89644C40.5693 1.26426 39.7283 0.843754 39.0933 1.0526C21.1667 8.01497 6.82426 22.1457 0.0763805 40.0695C-0.135285 40.7017 0.0763805 41.5455 0.920219 41.7572L10.6201 45.3414C-1.39963 83.7262 26.0152 120 63.3445 120C94.3464 120 119.441 94.9049 119.441 63.903L119.444 63.9002ZM70.0924 11.3875C69.0397 17.7149 63.5533 46.8174 61.4451 58.4167L45.2062 14.1279C52.5863 10.9642 62.5006 10.332 70.0924 11.3875ZM35.9268 55.0441L59.337 63.9002L39.9343 80.983C34.4508 73.1796 33.1864 63.6885 35.9268 55.0413V55.0441ZM38.8788 4.00744L59.7575 61.1598L3.0284 39.8579C9.56744 23.6189 22.6427 10.5437 38.8816 4.00744H38.8788ZM12.94 46.3969L33.1864 53.9886C30.2344 63.4769 31.7104 74.0234 37.6145 82.459L21.3755 96.5898C10.4085 82.2473 7.66528 63.6885 12.94 46.3941V46.3969ZM63.3445 117.257C47.3172 117.257 32.9748 110.086 23.2749 98.6979L39.5138 84.5672C45.4207 91.5267 53.8562 95.7459 63.5562 95.7459C80.4273 95.7459 94.3464 82.6707 95.4019 65.7995C95.4019 65.1674 94.9814 64.5352 94.1375 64.3235C93.5054 64.3235 92.8732 64.744 92.6615 65.5879C91.8177 80.983 78.9541 93.0027 63.5562 93.0027C54.7001 93.0027 46.8967 88.998 41.622 82.6707C64.4 62.633 62.924 64.1119 62.924 63.9002C63.1328 63.6885 63.1328 63.4797 63.1328 63.268C63.3445 62.4242 69.4602 29.523 72.6239 11.3875C97.7217 16.0272 116.913 37.7497 116.913 63.9002C116.913 93.4261 92.8704 117.257 63.3445 117.257Z" fill="#960096"/>
<path d="M11.0434 99.9651C7.45924 99.9651 4.50439 102.92 4.50439 106.504C4.50439 110.088 7.45642 113.04 11.0434 113.04C14.6305 113.04 17.5825 110.088 17.5825 106.504C17.5825 102.92 14.6305 99.9651 11.0434 99.9651ZM11.0434 110.509C8.93525 110.509 7.03591 108.824 7.03591 106.504C7.03591 104.184 8.72359 102.497 11.0434 102.497C13.3633 102.497 15.051 104.184 15.051 106.504C15.051 108.824 13.1544 110.509 11.0434 110.509Z" fill="#960096"/>
<path d="M110.585 18.3472C115.225 18.3472 119.232 14.5513 119.232 9.69996C119.232 4.84859 115.437 1.05273 110.585 1.05273C105.734 1.05273 101.938 5.06026 101.938 9.69996C101.938 14.3397 105.734 18.3472 110.585 18.3472ZM110.585 3.79591C113.961 3.79591 116.492 6.53627 116.492 9.69996C116.492 12.8636 113.749 15.6068 110.585 15.6068C107.422 15.6068 104.678 12.8636 104.678 9.69996C104.678 6.53627 107.21 3.79591 110.585 3.79591Z" fill="#960096"/>
<path d="M117.124 97.4336C118.171 97.4336 119.021 98.2803 119.021 99.3301C119.021 100.38 118.171 101.227 117.124 101.227C116.077 101.227 115.228 100.377 115.228 99.3301C115.228 98.2831 116.077 97.4336 117.124 97.4336Z" fill="#960096"/>
<path d="M24.751 113.252C25.8009 113.252 26.6504 114.102 26.6504 115.149C26.6504 116.196 25.8009 117.045 24.751 117.045C23.7012 117.045 22.8545 116.196 22.8545 115.149C22.8545 114.102 23.704 113.252 24.751 113.252Z" fill="#960096"/>
<path d="M2.39628 79.0864C3.44331 79.0864 4.29562 79.9359 4.29562 80.9829C4.29562 82.03 3.44613 82.8795 2.39628 82.8795C1.34642 82.8795 0.499756 82.03 0.499756 80.9829C0.499756 79.9359 1.34924 79.0864 2.39628 79.0864Z" fill="#960096"/>
<path d="M115.857 27.6265C116.904 27.6265 117.757 28.4759 117.757 29.523C117.757 30.57 116.907 31.4223 115.857 31.4223C114.807 31.4223 113.961 30.5728 113.961 29.523C113.961 28.4731 114.81 27.6265 115.857 27.6265Z" fill="#960096"/>
<path d="M85.4904 1.2644C86.5374 1.2644 87.3869 2.11389 87.3869 3.16092C87.3869 4.20796 86.5374 5.05744 85.4904 5.05744C84.4434 5.05744 83.5911 4.20796 83.5911 3.16092C83.5911 2.11389 84.4406 1.2644 85.4904 1.2644Z" fill="#960096"/>
<path d="M18.2117 0C19.2616 0 20.111 0.849483 20.111 1.89652C20.111 2.94356 19.2616 3.79304 18.2117 3.79304C17.1618 3.79304 16.3152 2.94356 16.3152 1.89652C16.3152 0.849483 17.1647 0 18.2117 0Z" fill="#960096"/>
<path d="M2.39628 17.0828C3.44331 17.0828 4.29562 17.9322 4.29562 18.9793C4.29562 20.0263 3.44613 20.8786 2.39628 20.8786C1.34642 20.8786 0.499756 20.0291 0.499756 18.9793C0.499756 17.9294 1.34924 17.0828 2.39628 17.0828Z" fill="#960096"/>
<path d="M93.926 59.2634C94.6231 59.2634 95.1903 59.8279 95.1903 60.5278C95.1903 61.2277 94.6231 61.7921 93.926 61.7921C93.2289 61.7921 92.6616 61.2277 92.6616 60.5278C92.6616 59.8279 93.2289 59.2634 93.926 59.2634Z" fill="#960096"/>
<path d="M102.573 113.252C103.62 113.252 104.469 114.102 104.469 115.149C104.469 116.196 103.62 117.045 102.573 117.045C101.526 117.045 100.674 116.196 100.674 115.149C100.674 114.102 101.523 113.252 102.573 113.252Z" fill="#960096"/>
</svg>
