<svg width="51" height="50" viewBox="0 0 51 50" fill="none" xmlns="http://www.w3.org/2000/svg">
<path d="M25.4367 46.6743C18.785 46.6637 12.7349 43.8681 8.55968 38.9945C6.14287 36.1734 4.55849 32.9374 3.80565 29.2981C3.61264 28.3653 3.49127 27.422 3.42597 26.4707C3.36429 25.573 3.35434 24.6754 3.4077 23.7782C3.60541 20.4456 4.51345 17.3186 6.16476 14.4152C9.16149 9.14675 14.1919 5.36787 20.0877 3.94503C21.0254 3.71874 21.9745 3.55775 22.9345 3.45609C24.1482 3.32766 25.3638 3.29348 26.5817 3.36456C34.4113 3.82184 41.1694 8.31124 44.6923 14.8933C45.7521 16.8735 46.4814 18.9701 46.8767 21.1823C47.0594 22.2041 47.1637 23.233 47.2044 24.2706C47.2366 25.0916 47.2167 25.9109 47.1487 26.7277C46.8182 30.6929 45.5131 34.3103 43.1761 37.5308C39.9967 41.912 35.754 44.7403 30.5042 46.055C29.5686 46.2892 28.6177 46.4439 27.6578 46.5454C26.8716 46.6286 26.0835 46.6619 25.4367 46.6745V46.6743ZM37.8427 34.667C37.8483 34.2638 37.7982 33.834 37.7079 33.408C37.1696 30.8662 34.9767 28.6815 31.9077 28.4923C31.0371 28.4386 30.1902 28.573 29.3704 28.8759C26.6019 29.899 24.9528 32.6633 25.3374 35.5074C25.5052 36.7492 26.0102 37.8377 26.8342 38.7782C28.3066 40.4586 30.6406 41.2429 32.8797 40.7654C35.7153 40.1607 37.8362 37.6881 37.8425 34.667H37.8427ZM12.7488 15.3099C12.7488 16.2409 12.9518 17.1258 13.3537 17.9651C14.6884 20.7516 17.8981 22.1515 20.8704 21.2442C23.4581 20.4544 25.2252 18.1579 25.3102 15.4589C25.3379 14.5802 25.1715 13.7326 24.8274 12.922C23.5835 9.99221 20.4035 8.53463 17.4585 9.2967C14.6689 10.0184 12.7506 12.4732 12.7488 15.3099ZM41.0324 18.2954C41.0476 17.3463 40.7955 16.3943 40.4225 15.6239C39.1957 13.0899 36.4028 11.6831 33.6136 12.197C30.8357 12.7087 28.7534 14.9644 28.4994 17.7565C28.3997 18.8523 28.5843 19.9064 29.0551 20.9056C30.2945 23.5362 33.1628 24.9657 36.0317 24.3802C38.9338 23.7878 41.0473 21.2474 41.0324 18.2954ZM22.1122 31.6431C22.123 31.2618 22.0736 30.8252 21.9778 30.3943C21.2891 27.2981 18.4384 25.2846 15.3847 25.5078C14.4182 25.5784 13.5168 25.8528 12.6781 26.3339C9.85844 27.9509 8.75938 31.4454 10.1623 34.3591C11.5005 37.1384 14.5911 38.4489 17.4361 37.7035C20.2369 36.9697 22.1239 34.4749 22.1123 31.6429L22.1122 31.6431ZM27.9721 25.151C27.9975 23.7862 26.8827 22.3963 25.1753 22.3863C23.6334 22.3774 22.3781 23.6304 22.3781 25.1558C22.3781 26.6796 23.6349 27.9214 25.1802 27.9198C26.7562 27.9181 27.9902 26.6375 27.9723 25.151H27.9721Z" fill="white"/>
<path d="M39.877 6.21875C40.3243 6.33614 40.7716 6.45318 41.2189 6.57093C42.4421 6.89273 43.6689 7.2015 44.8875 7.53958C47.7352 8.3295 49.8497 10.5985 50.4419 13.4896C50.6805 14.6547 50.6344 15.8147 50.3273 16.9635C49.8978 18.5694 49.4662 20.1746 49.035 21.7802C49.0184 21.842 48.9965 21.9022 48.9668 21.995C48.0275 15.5088 44.9656 10.2881 39.877 6.21893V6.21875Z" fill="white"/>
<path d="M28.7715 48.5164C35.1269 47.4394 40.297 44.3907 44.3103 39.3574C44.2848 39.4551 44.26 39.5531 44.2338 39.6506C43.8145 41.2091 43.4051 42.7704 42.9732 44.3253C42.2145 47.0561 39.9983 49.16 37.2405 49.7965C35.8711 50.1127 34.5175 50.051 33.1657 49.682C31.7599 49.2982 30.3477 48.9384 28.9383 48.5676C28.8822 48.5527 28.8272 48.5336 28.7717 48.5164H28.7715Z" fill="white"/>
<path d="M21.7215 1.45646C15.5828 2.4213 10.5086 5.25813 6.47266 10.0109C6.47881 9.95175 6.47754 9.9143 6.48677 9.87975C6.86319 8.47789 7.23039 7.0735 7.62019 5.67543C8.38407 2.93592 10.6052 0.833309 13.3727 0.202018C14.693 -0.0991562 16.0013 -0.0588187 17.3072 0.291195C18.709 0.667075 20.1145 1.02993 21.5184 1.39894C21.5864 1.41685 21.6538 1.43729 21.7215 1.45664V1.45646Z" fill="white"/>
<path d="M1.3827 28.8945C2.49388 34.9126 5.45715 39.8028 10.1938 43.6456C9.87455 43.562 9.55511 43.4788 9.23584 43.3947C8.05937 43.0852 6.87945 42.7885 5.70749 42.4629C2.85782 41.6716 0.746525 39.4083 0.151231 36.5156C-0.0949545 35.3196 -0.0338152 34.1317 0.285448 32.9543C0.638536 31.6525 0.986017 30.349 1.33639 29.0463C1.35014 28.9953 1.36714 28.9452 1.3827 28.8945Z" fill="white"/>
</svg>
