<svg width="117" height="120" viewBox="0 0 117 120" fill="none" xmlns="http://www.w3.org/2000/svg">
<path d="M58.0386 91.4985C59.5231 91.4985 60.7226 92.7008 60.7226 94.1825C60.7226 95.6641 59.5203 96.8664 58.0386 96.8664C56.557 96.8664 55.3547 95.6641 55.3547 94.1825C55.3547 92.7008 56.557 91.4985 58.0386 91.4985Z" fill="#960096"/>
<path d="M108.226 17.969H7.84854C3.51082 17.969 0 21.4798 0 25.8175V95.2155C0 99.5532 3.51082 103.064 7.84854 103.064H41.5146L34.0809 116.074H30.9821C30.3612 116.074 29.7432 116.695 29.7432 117.316C29.7432 117.937 30.3612 118.555 30.9821 118.555H85.301C85.9191 118.555 86.54 117.937 86.54 117.316C86.54 116.695 85.9191 116.074 85.301 116.074H82.2023L74.7658 103.064H108.432C112.77 103.064 116.28 99.5532 116.28 95.2155V25.8175C116.074 21.4798 112.563 17.969 108.226 17.969ZM79.1035 116.074H37.1769L44.6134 103.064H71.4638L79.1063 116.074H79.1035ZM113.596 95.2155C113.596 98.1054 111.119 100.586 108.226 100.586H7.84854C4.95579 100.586 2.47789 98.1082 2.47789 95.2155V25.8175C2.47789 22.9248 4.95579 20.4469 7.84854 20.4469H108.226C111.119 20.4469 113.596 22.9248 113.596 25.8175V95.2155Z" fill="#960096"/>
<path d="M111.739 105.748C112.767 105.748 113.599 106.58 113.599 107.608C113.599 108.635 112.767 109.467 111.739 109.467C110.712 109.467 109.88 108.635 109.88 107.608C109.88 106.58 110.712 105.748 111.739 105.748Z" fill="#960096"/>
<path d="M26.4384 109.671C27.4657 109.671 28.2983 110.503 28.2983 111.53C28.2983 112.558 27.4657 113.39 26.4384 113.39C25.4112 113.39 24.5786 112.558 24.5786 111.53C24.5786 110.503 25.4112 109.671 26.4384 109.671Z" fill="#960096"/>
<path d="M88.3999 3.92285C89.4272 3.92285 90.2597 4.7554 90.2597 5.78268C90.2597 6.80996 89.4272 7.64251 88.3999 7.64251C87.3726 7.64251 86.54 6.80996 86.54 5.78268C86.54 4.7554 87.3726 3.92285 88.3999 3.92285Z" fill="#960096"/>
<path d="M65.2661 9.0874C66.2934 9.0874 67.1259 9.91995 67.1259 10.9472C67.1259 11.9745 66.2934 12.8071 65.2661 12.8071C64.2388 12.8071 63.4062 11.9745 63.4062 10.9472C63.4062 9.91995 64.2388 9.0874 65.2661 9.0874Z" fill="#960096"/>
<path d="M43.1655 3.92285C44.1928 3.92285 45.0253 4.7554 45.0253 5.78268C45.0253 6.80996 44.1928 7.64251 43.1655 7.64251C42.1382 7.64251 41.3057 6.80996 41.3057 5.78268C41.3057 4.7554 42.1382 3.92285 43.1655 3.92285Z" fill="#960096"/>
<path d="M9.70846 9.0874C10.7357 9.0874 11.5683 9.91995 11.5683 10.9472C11.5683 11.9745 10.7357 12.8071 9.70846 12.8071C8.68118 12.8071 7.84863 11.9745 7.84863 10.9472C7.84863 9.91995 8.68118 9.0874 9.70846 9.0874Z" fill="#960096"/>
<path d="M1.85983 105.748C2.88711 105.748 3.71966 106.58 3.71966 107.608C3.71966 108.635 2.88711 109.467 1.85983 109.467C0.832549 109.467 0 108.635 0 107.608C0 106.58 0.832549 105.748 1.85983 105.748Z" fill="#960096"/>
<path d="M107.196 25.6116H9.08758C8.46952 25.6116 7.84863 26.2296 7.84863 26.8505V86.3341C7.84863 86.9521 8.4667 87.573 9.08758 87.573H107.196C107.817 87.573 108.435 86.9521 108.435 86.3341V27.0565C108.435 26.2296 107.817 25.6116 107.196 25.6116ZM105.751 28.2955V78.6915H10.3265V28.2955H105.748H105.751ZM10.3265 85.0923V81.1694H105.954V85.0923H10.3265Z" fill="#960096"/>
<path d="M80.5514 47.7122C83.0293 47.7122 84.8891 45.8524 84.8891 43.3717C84.8891 40.8909 83.0293 39.0339 80.5514 39.0339C79.3124 39.0339 78.2795 39.4488 77.4526 40.2757C75.8016 41.9267 75.8016 44.8194 77.4526 46.4704C78.2767 47.0913 79.3124 47.7122 80.5514 47.7122ZM80.5514 41.5147C81.5843 41.5147 82.4112 42.3416 82.4112 43.3745C82.4112 45.0255 80.5514 45.6464 79.3124 44.6162C78.9004 44.2014 78.6915 43.7893 78.6915 43.3745C78.6915 42.3416 79.5185 41.5147 80.5514 41.5147Z" fill="#960096"/>
<path d="M87.1608 60.5136C85.5099 62.1645 85.5099 65.0573 87.1608 66.7111C88.8118 68.3649 91.7046 68.3649 93.3584 66.7111C95.0122 65.0601 95.0122 62.1674 93.3584 60.5136C91.7074 58.8597 88.8147 58.8597 87.1608 60.5136ZM91.4986 64.8513C90.4656 65.8842 88.3998 65.2633 88.3998 63.6095C88.3998 61.9557 90.2596 61.3376 91.4986 62.3706C92.3255 62.9886 92.3255 64.2304 91.4986 64.8485V64.8513Z" fill="#960096"/>
<path d="M80.7573 64.2333L96.4544 48.5362C97.2813 47.7121 97.6934 46.6764 97.6934 45.4403C97.6934 42.9624 95.8335 41.1025 93.3556 41.1025C92.1167 41.1025 91.0838 41.5146 90.2569 42.3415L74.5598 58.0386C72.9088 59.6896 72.9088 62.5823 74.5598 64.2333C75.3867 65.0602 78.8975 65.8843 80.7545 64.2333H80.7573ZM76.4196 59.8956L92.1167 44.1985C92.5287 43.7865 92.9436 43.5804 93.3556 43.5804C95.0094 43.5804 95.6275 45.4403 94.5946 46.6764L78.8975 62.3735C77.8646 63.4064 75.7987 62.7855 75.7987 61.1317C75.7987 60.7197 76.0047 60.0988 76.4168 59.8928L76.4196 59.8956Z" fill="#960096"/>
<path d="M14.2523 109.671C11.3595 109.671 9.08765 111.943 9.08765 114.835C9.08765 117.728 11.3595 120 14.2523 120C17.145 120 19.4169 117.728 19.4169 114.835C19.4169 111.943 16.939 109.671 14.2523 109.671ZM14.2523 117.313C12.8045 117.313 11.5655 116.071 11.5655 114.629C11.5655 113.187 12.8045 111.945 14.2523 111.945C15.7001 111.945 16.9362 113.184 16.9362 114.629C16.7302 116.28 15.6972 117.313 14.2523 117.313Z" fill="#960096"/>
<path d="M99.9652 105.748C96.0424 105.748 92.9436 108.847 92.9436 112.772C92.9436 116.698 96.0424 119.794 99.9652 119.794C103.888 119.794 106.987 116.695 106.987 112.772C107.193 108.847 103.888 105.748 99.9652 105.748ZM99.9652 117.316C97.4873 117.316 95.4215 115.25 95.4215 112.772C95.4215 110.294 97.4873 108.229 99.9652 108.229C102.443 108.229 104.509 110.294 104.509 112.772C104.509 115.25 102.443 117.316 99.9652 117.316Z" fill="#960096"/>
<path d="M15.4911 39.8608H27.0565C27.6774 39.8608 28.2955 39.2427 28.2955 38.6218V33.4572C28.2955 32.8363 27.6746 32.2183 27.0565 32.2183H15.4911C14.8731 32.2183 14.2522 32.8391 14.2522 33.4572V38.6218C14.2522 39.2427 14.6642 39.8608 15.4911 39.8608ZM16.7301 34.6962H25.8176V37.3801H16.7301V34.6962Z" fill="#960096"/>
<path d="M32.2211 39.8608H43.7865C44.4046 39.8608 45.0254 39.2427 45.0254 38.6218V33.4572C45.0254 32.8363 44.4046 32.2183 43.7865 32.2183H32.2211C31.6002 32.2183 30.9822 32.8391 30.9822 33.4572V38.6218C30.9822 39.2427 31.6002 39.8608 32.2211 39.8608ZM33.4601 34.6962H42.5476V37.3801H33.4601V34.6962Z" fill="#960096"/>
<path d="M48.9511 39.8608H60.5165C61.1345 39.8608 61.7554 39.2427 61.7554 38.6218V33.4572C61.7554 32.8363 61.1345 32.2183 60.5165 32.2183H48.9511C48.3302 32.2183 47.7122 32.8391 47.7122 33.4572V38.6218C47.7122 39.2427 48.3302 39.8608 48.9511 39.8608ZM50.3961 34.6962H59.4836V37.3801H50.3961V34.6962Z" fill="#960096"/>
<path d="M15.4911 50.1872H27.0565C27.6774 50.1872 28.2955 49.5691 28.2955 48.9483V43.7836C28.2955 43.1627 27.6746 42.5447 27.0565 42.5447H15.4911C14.8731 42.5447 14.2522 43.1656 14.2522 43.7836V48.9483C14.2522 49.5691 14.6642 50.1872 15.4911 50.1872ZM16.7301 45.0226H25.8176V47.7093H16.7301V45.0226Z" fill="#960096"/>
<path d="M32.2211 50.1872H43.7865C44.4046 50.1872 45.0254 49.5691 45.0254 48.9483V43.7836C45.0254 43.1627 44.4046 42.5447 43.7865 42.5447H32.2211C31.6002 42.5447 30.9822 43.1656 30.9822 43.7836V48.9483C30.9822 49.5691 31.6002 50.1872 32.2211 50.1872ZM33.4601 45.0226H42.5476V47.7093H33.4601V45.0226Z" fill="#960096"/>
<path d="M48.9511 50.1872H60.5165C61.1345 50.1872 61.7554 49.5691 61.7554 48.9483V43.7836C61.7554 43.1627 61.1345 42.5447 60.5165 42.5447H48.9511C48.3302 42.5447 47.7122 43.1656 47.7122 43.7836V48.9483C47.7122 49.5691 48.3302 50.1872 48.9511 50.1872ZM50.3961 45.0226H59.4836V47.7093H50.3961V45.0226Z" fill="#960096"/>
<path d="M15.4911 60.5136H27.0565C27.6774 60.5136 28.2955 59.8956 28.2955 59.2747V54.11C28.2955 53.4892 27.6746 52.8711 27.0565 52.8711H15.4911C14.8731 52.8711 14.2522 53.4892 14.2522 54.11V59.2747C14.2522 59.8956 14.6642 60.5136 15.4911 60.5136ZM16.7301 55.349H25.8176V58.0357H16.7301V55.349Z" fill="#960096"/>
<path d="M32.2211 60.5136H43.7865C44.4046 60.5136 45.0254 59.8956 45.0254 59.2747V54.11C45.0254 53.4892 44.4046 52.8711 43.7865 52.8711H32.2211C31.6002 52.8711 30.9822 53.4892 30.9822 54.11V59.2747C30.9822 59.8956 31.6002 60.5136 32.2211 60.5136ZM33.4601 55.349H42.5476V58.0357H33.4601V55.349Z" fill="#960096"/>
<path d="M48.9511 60.5136H60.5165C61.1345 60.5136 61.7554 59.8956 61.7554 59.2747V54.11C61.7554 53.4892 61.1345 52.8711 60.5165 52.8711H48.9511C48.3302 52.8711 47.7122 53.4892 47.7122 54.11V59.2747C47.7122 59.8956 48.3302 60.5136 48.9511 60.5136ZM50.3961 55.349H59.4836V58.0357H50.3961V55.349Z" fill="#960096"/>
<path d="M15.4911 70.843H27.0565C27.6774 70.843 28.2955 70.2221 28.2955 69.604V64.4394C28.2955 63.8185 27.6746 63.2004 27.0565 63.2004H15.4911C14.8731 63.2004 14.2522 63.8185 14.2522 64.4394V69.604C14.2522 70.2249 14.6642 70.843 15.4911 70.843ZM16.7301 65.6783H25.8176V68.3622H16.7301V65.6783Z" fill="#960096"/>
<path d="M32.2211 70.843H43.7865C44.4046 70.843 45.0254 70.2221 45.0254 69.604V64.4394C45.0254 63.8185 44.4046 63.2004 43.7865 63.2004H32.2211C31.6002 63.2004 30.9822 63.8185 30.9822 64.4394V69.604C30.9822 70.2249 31.6002 70.843 32.2211 70.843ZM33.4601 65.6783H42.5476V68.3622H33.4601V65.6783Z" fill="#960096"/>
<path d="M48.9511 70.843H60.5165C61.1345 70.843 61.7554 70.2221 61.7554 69.604V64.4394C61.7554 63.8185 61.1345 63.2004 60.5165 63.2004H48.9511C48.3302 63.2004 47.7122 63.8185 47.7122 64.4394V69.604C47.7122 70.2249 48.3302 70.843 48.9511 70.843ZM50.3961 65.6783H59.4836V68.3622H50.3961V65.6783Z" fill="#960096"/>
<path d="M25.8175 15.2851C28.7074 15.2851 30.9821 13.0132 30.9821 10.1204C30.9821 7.22768 28.7102 4.95581 25.8175 4.95581C22.9247 4.95581 20.6528 7.22768 20.6528 10.1204C20.6528 13.0132 22.9247 15.2851 25.8175 15.2851ZM25.8175 7.64255C27.2624 7.64255 28.5014 8.88149 28.5014 10.3265C28.5014 11.7714 27.2624 13.0104 25.8175 13.0104C24.3725 13.0104 23.1307 11.7686 23.1307 10.3265C23.1307 8.67547 24.3697 7.64255 25.8175 7.64255Z" fill="#960096"/>
<path d="M102.031 12.8043C105.542 12.8043 108.435 9.91157 108.435 6.40075C108.435 2.88993 105.542 0 102.031 0C98.5202 0 95.6274 2.88993 95.6274 6.40075C95.6274 9.91157 98.3114 12.8043 102.031 12.8043ZM102.031 2.47789C104.097 2.47789 105.954 4.12888 105.954 6.40075C105.954 8.4666 104.303 10.3264 102.031 10.3264C99.9652 10.3264 98.1082 8.67545 98.1082 6.40075C98.1082 4.12606 99.7591 2.47789 102.031 2.47789Z" fill="#960096"/>
</svg>
