<svg width="26" height="30" viewBox="0 0 26 30" fill="none" xmlns="http://www.w3.org/2000/svg">
<path d="M12.8674 0.0143129V0.400761C12.8674 2.00381 12.8674 3.62117 12.8674 5.22421C12.8674 7.19939 14.2414 8.57343 16.2166 8.57343C17.8197 8.57343 19.4371 8.57343 21.0401 8.57343C21.1546 8.57343 21.2834 8.57343 21.4266 8.57343C21.4266 8.68793 21.4409 8.78812 21.4409 8.88831C21.4409 10.9923 21.4409 13.1106 21.4409 15.2146C21.4409 15.4293 21.3693 15.5438 21.1976 15.6583C20.8827 15.873 20.5678 16.1163 20.2815 16.3883C17.5907 19.0648 14.8998 21.7413 12.2233 24.4321C12.0802 24.5753 11.98 24.7756 11.9227 24.9617C11.5077 26.5361 11.1212 28.1105 10.7204 29.6993C10.6918 29.7995 10.6632 29.8853 10.6346 29.9998C10.5344 29.9998 10.4485 29.9998 10.3626 29.9998C7.64314 29.9998 4.93799 29.9998 2.21852 29.9998C0.916032 29.9998 0 29.0838 0 27.7957C0 19.2652 0 10.7347 0 2.2185C0 0.958965 0.916032 0 2.11832 0C5.65364 0 9.17464 0 12.7099 0C12.7386 0 12.7815 0 12.8674 0V0.0143129ZM10.7061 13.9265C12.4237 13.9265 14.1412 13.9265 15.8588 13.9265C16.6603 13.9265 17.147 13.5114 17.147 12.853C17.147 12.2089 16.646 11.7938 15.8731 11.7938C14.0411 11.7938 12.209 11.7938 10.3769 11.7938C8.73093 11.7938 7.07062 11.7938 5.42463 11.7938C4.93799 11.7938 4.58016 11.9942 4.37978 12.4379C4.05058 13.1536 4.58016 13.9408 5.41032 13.9408C7.17082 13.9408 8.93132 13.9408 10.7061 13.9408V13.9265ZM10.1622 18.206C11.7367 18.206 13.3111 18.206 14.8855 18.206C15.5869 18.206 16.0735 17.7623 16.0735 17.1325C16.0735 16.5028 15.5869 16.0734 14.8712 16.0734C13.8264 16.0734 12.7958 16.0734 11.751 16.0734C9.64697 16.0734 7.55727 16.0734 5.45325 16.0734C4.96661 16.0734 4.60879 16.2451 4.39409 16.6888C4.03627 17.4188 4.56585 18.2203 5.41032 18.2203C6.99906 18.2203 8.57349 18.2203 10.1622 18.2203V18.206ZM8.07253 20.353C7.19944 20.353 6.32635 20.353 5.46757 20.353C4.78054 20.353 4.2939 20.7967 4.2939 21.4121C4.2939 22.0276 4.76623 22.4856 5.45325 22.4999C7.18513 22.4999 8.917 22.4999 10.6489 22.4999C11.3216 22.4999 11.8082 22.0419 11.8082 21.4264C11.8082 20.811 11.3216 20.3673 10.6346 20.3673C9.7901 20.3673 8.93132 20.3673 8.08685 20.3673L8.07253 20.353ZM7.50001 9.63259C8.20135 9.63259 8.90269 9.63259 9.60403 9.63259C10.2338 9.63259 10.7061 9.17457 10.7204 8.57343C10.7204 7.95797 10.2481 7.48565 9.60403 7.48565C8.21566 7.48565 6.81299 7.48565 5.42463 7.48565C4.76623 7.48565 4.2939 7.94366 4.2939 8.55912C4.2939 9.16026 4.78054 9.61827 5.42463 9.63259C6.11165 9.63259 6.81299 9.63259 7.50001 9.63259Z" fill="#492464"/>
<path d="M22.2426 23.8454C21.3981 24.6756 20.5537 25.52 19.7092 26.3645C18.9077 27.166 18.1205 27.9532 17.3189 28.7547C17.2331 28.8406 17.1185 28.9408 16.9897 28.9694C15.63 29.3129 14.2703 29.6564 12.8533 30C12.9678 29.5133 13.0823 29.0696 13.1825 28.6259C13.3972 27.7385 13.6262 26.8511 13.8552 25.9637C13.8838 25.8349 13.9554 25.6775 14.0556 25.5916C15.6729 23.9599 17.3046 22.3425 18.922 20.7109C18.9649 20.6679 19.0079 20.6393 19.0222 20.625C20.0957 21.6985 21.1405 22.7433 22.2283 23.8311L22.2426 23.8454Z" fill="#492464"/>
<path d="M21.2833 6.42628C19.5657 6.42628 17.7909 6.42628 16.0304 6.42628C15.4722 6.42628 15.0285 5.96827 15.0142 5.41006C15.0142 3.63526 15.0142 1.86046 15.0142 0.157227C17.0895 2.2326 19.1936 4.33659 21.2833 6.42628Z" fill="#492464"/>
<path d="M23.8462 22.2564C22.7584 21.1687 21.6993 20.1095 20.5972 19.0217C21.1411 18.5208 21.6563 17.9483 22.2718 17.5046C23.1449 16.8891 24.3472 17.0895 25.0771 17.8481C25.8214 18.6353 25.9502 19.8376 25.2918 20.6963C24.8624 21.2689 24.3042 21.7555 23.8319 22.2564H23.8462Z" fill="#492464"/>
</svg>
