<svg width="135" height="120" viewBox="0 0 135 120" fill="none" xmlns="http://www.w3.org/2000/svg">
<path d="M48.8533 24.1926L47.905 23.2415L47.668 23.4785V27.7458L48.8533 27.2745V24.1926Z" fill="#960096"/>
<path d="M53.1235 24.1925V27.5115L53.5977 28.934C54.0718 28.934 54.3089 28.4598 54.3089 28.2227V23.7156L54.0718 23.4785L53.1235 24.1897V24.1925Z" fill="#960096"/>
<path d="M48.8533 21.8189V18.7342L47.668 18.26V22.5301L47.905 22.7672L48.8533 21.8189Z" fill="#960096"/>
<path d="M48.8533 27.5115L47.668 27.9856C47.668 28.4598 48.1421 28.6968 48.3792 28.6968H53.3605L52.8863 27.2744L48.8561 27.5115H48.8533Z" fill="#960096"/>
<path d="M53.5977 17.0747L53.1235 18.5V21.8189L54.0718 22.7672L54.3089 22.5302V18.023C54.3089 17.5488 54.0718 17.3118 53.5977 17.0747Z" fill="#960096"/>
<path d="M52.8863 18.5L53.3605 17.0747H48.3792C47.905 17.0747 47.668 17.5488 47.668 17.7859L49.0904 18.2601H52.8835V18.5H52.8863Z" fill="#960096"/>
<path d="M48.3794 23.0042L48.8535 23.7154H53.1236L53.8348 23.0042L53.1236 22.293H48.8535L48.3794 23.0042Z" fill="#960096"/>
<path d="M64.0318 17.0747L63.5576 18.5V21.8189L64.5059 22.7672L64.743 22.5302V18.023C64.743 17.5488 64.5059 17.3118 64.0318 17.0747Z" fill="#960096"/>
<path d="M59.2901 24.1926L58.3418 23.2415L58.1047 23.4785V27.7458L59.2901 27.2745V24.1926Z" fill="#960096"/>
<path d="M59.2901 21.8189V18.7342L58.1047 18.26V22.5301L58.3418 22.7672L59.2901 21.8189Z" fill="#960096"/>
<path d="M63.3204 18.5L63.7946 17.0747H58.8133C58.3391 17.0747 58.1021 17.5488 58.1021 17.7859L59.5245 18.2601H63.3204V18.5Z" fill="#960096"/>
<path d="M63.5576 24.1925V27.5115L64.0318 28.934C64.5059 28.934 64.743 28.4598 64.743 28.2227V23.7156L64.5059 23.4785L63.5576 24.1897V24.1925Z" fill="#960096"/>
<path d="M59.2901 27.5115L57.8677 27.9856C57.8677 28.4598 58.3418 28.6968 58.5789 28.6968H63.5602L63.0861 27.2744L59.2901 27.5115Z" fill="#960096"/>
<path d="M58.5791 23.0042L59.2903 23.7154H63.5576L64.2688 23.0042L63.5576 22.293H59.2903L58.5791 23.0042Z" fill="#960096"/>
<path d="M69.7242 21.8189V18.7342L68.3018 18.26V22.5301L68.7759 22.7672L69.7242 21.8189Z" fill="#960096"/>
<path d="M73.9941 24.1925V27.5115L74.4683 28.934C74.9424 28.934 75.1795 28.4598 75.1795 28.2227V23.7156L74.9424 23.4785L73.9941 24.1897V24.1925Z" fill="#960096"/>
<path d="M74.4683 17.0747L73.9941 18.5V21.8189L74.9424 22.7672L75.1795 22.5302V18.023C75.1795 17.5488 74.9424 17.3118 74.4683 17.0747Z" fill="#960096"/>
<path d="M69.0129 23.0042L69.7242 23.7154H73.9942L74.7055 23.0042L73.9942 22.293H69.7242L69.0129 23.0042Z" fill="#960096"/>
<path d="M69.7242 27.5115L68.3018 27.9856C68.3018 28.4598 68.7759 28.6968 69.013 28.6968H73.9943L73.5201 27.2744L69.727 27.5115H69.7242Z" fill="#960096"/>
<path d="M73.5172 18.5L73.9913 17.0747H69.01C68.5359 17.0747 68.2988 17.5488 68.2988 17.7859L69.7212 18.2601H73.5144V18.5H73.5172Z" fill="#960096"/>
<path d="M80.158 27.5115L78.7356 27.9856C78.7356 28.4598 79.2097 28.6968 79.4468 28.6968H84.4281L83.954 27.2744L80.158 27.5115Z" fill="#960096"/>
<path d="M80.158 21.8189V18.7342L78.7356 18.26V22.5301L79.2097 22.7672L80.158 21.8189Z" fill="#960096"/>
<path d="M83.954 18.5L84.4281 17.0747H79.4468C78.9727 17.0747 78.7356 17.5488 78.7356 17.7859L80.158 18.2601H83.954V18.5Z" fill="#960096"/>
<path d="M84.4282 24.1925V27.5115L84.9024 28.934C85.3765 28.934 85.6136 28.4598 85.6136 28.2227V23.7156L85.3765 23.4785L84.4282 24.1897V24.1925Z" fill="#960096"/>
<path d="M80.158 24.1926L79.2097 23.2415L78.7356 23.4785V27.7458L80.158 27.2745V24.1926Z" fill="#960096"/>
<path d="M84.9024 17.0747L84.4282 18.5V21.8189L85.3765 22.7672L85.6136 22.5302V18.023C85.6136 17.5488 85.3765 17.3118 84.9024 17.0747Z" fill="#960096"/>
<path d="M98.4211 4.50439H34.8636C29.4081 4.50439 25.1409 9.01156 25.1409 14.2271V110.277C25.1409 115.733 29.648 120 34.8636 120H98.4211C103.877 120 108.144 115.493 108.144 110.277V14.2271C108.144 8.77449 103.637 4.50439 98.4211 4.50439ZM34.8636 7.34924H98.4211C102.217 7.34924 105.299 10.4312 105.299 14.2271V38.6538H28.22V14.2271C28.22 10.4312 31.0648 7.34924 34.8608 7.34924H34.8636ZM98.4211 117.155H34.8636C31.0676 117.155 27.9857 114.073 27.9857 110.277V41.5015H105.062V110.277C105.299 114.073 102.217 117.155 98.4211 117.155Z" fill="#960096"/>
<path d="M34.1495 34.1524H99.3693C100.081 34.1524 100.792 33.4411 100.792 32.7271V13.5188C100.792 12.8075 100.081 12.0935 99.3693 12.0935H34.1495C33.4383 12.0935 32.7271 12.8047 32.7271 13.5188V32.7271C32.49 33.4383 33.2012 34.1524 34.1495 34.1524ZM35.5719 14.9412H97.9441V31.3047H35.5719V14.9412Z" fill="#960096"/>
<path d="M46.0086 94.8621H34.1495C33.4383 94.8621 32.7271 95.5733 32.7271 96.2873V108.144C32.7271 108.855 33.4383 109.569 34.1495 109.569H46.0086C46.7199 109.569 47.4311 108.858 47.4311 108.144V96.2873C47.4311 95.5761 46.7199 94.8621 46.0086 94.8621ZM44.3491 106.721H35.3376V97.7069H44.3491V106.721Z" fill="#960096"/>
<path d="M63.7945 94.8621H51.9354C51.2242 94.8621 50.5129 95.5733 50.5129 96.2873V108.144C50.5129 108.855 51.2242 109.569 51.9354 109.569H63.7945C64.5057 109.569 65.217 108.858 65.217 108.144V96.2873C65.217 95.5761 64.5057 94.8621 63.7945 94.8621ZM62.1322 106.721H53.1207V97.7069H62.1322V106.721Z" fill="#960096"/>
<path d="M81.5832 94.8621H69.7269C69.0157 94.8621 68.3044 95.5733 68.3044 96.2873V108.144C68.3044 108.855 69.0157 109.569 69.7269 109.569H81.5832C82.2944 109.569 83.0056 108.858 83.0056 108.144V96.2873C83.0056 95.5761 82.2944 94.8621 81.5832 94.8621ZM79.9209 106.721H70.9094V97.7069H79.9209V106.721Z" fill="#960096"/>
<path d="M46.0086 77.0762H34.1495C33.4383 77.0762 32.7271 77.7874 32.7271 78.5014V90.3578C32.7271 91.069 33.4383 91.7802 34.1495 91.7802H46.0086C46.7199 91.7802 47.4311 91.069 47.4311 90.3578V78.5014C47.4311 77.7902 46.7199 77.0762 46.0086 77.0762ZM44.3491 88.9353H35.3376V79.921H44.3491V88.9353Z" fill="#960096"/>
<path d="M63.7945 77.0762H51.9354C51.2242 77.0762 50.5129 77.7874 50.5129 78.5014V90.3578C50.5129 91.069 51.2242 91.7802 51.9354 91.7802H63.7945C64.5057 91.7802 65.217 91.069 65.217 90.3578V78.5014C65.217 77.7902 64.5057 77.0762 63.7945 77.0762ZM62.1322 88.9353H53.1207V79.921H62.1322V88.9353Z" fill="#960096"/>
<path d="M81.5832 77.0762H69.7269C69.0157 77.0762 68.3044 77.7874 68.3044 78.5014V90.3578C68.3044 91.069 69.0157 91.7802 69.7269 91.7802H81.5832C82.2944 91.7802 83.0056 91.069 83.0056 90.3578V78.5014C83.0056 77.7902 82.2944 77.0762 81.5832 77.0762ZM79.9209 88.9353H70.9094V79.921H79.9209V88.9353Z" fill="#960096"/>
<path d="M99.3693 77.0762H87.513C86.8018 77.0762 86.0906 77.7874 86.0906 78.5014V108.147C86.0906 108.858 86.8018 109.572 87.513 109.572H99.3693C100.081 109.572 100.792 108.861 100.792 108.147V78.5014C100.792 77.7902 100.081 77.0762 99.3693 77.0762ZM97.7098 106.724H88.6955V80.1637H97.7098V106.724Z" fill="#960096"/>
<path d="M46.0086 59.2903H34.1495C33.4383 59.2903 32.7271 60.0015 32.7271 60.7155V72.5719C32.7271 73.2831 33.4383 73.9943 34.1495 73.9943H46.0086C46.7199 73.9943 47.4311 73.2859 47.4311 72.5719V60.7155C47.4311 60.0043 46.7199 59.2903 46.0086 59.2903ZM44.3491 71.1466H35.3376V62.1351H44.3491V71.1466Z" fill="#960096"/>
<path d="M63.7945 59.2903H51.9354C51.2242 59.2903 50.5129 60.0015 50.5129 60.7155V72.5719C50.5129 73.2831 51.2242 73.9943 51.9354 73.9943H63.7945C64.5057 73.9943 65.217 73.2859 65.217 72.5719V60.7155C65.217 60.0043 64.5057 59.2903 63.7945 59.2903ZM62.1322 71.1466H53.1207V62.1351H62.1322V71.1466Z" fill="#960096"/>
<path d="M81.5832 59.2903H69.7269C69.0157 59.2903 68.3044 60.0015 68.3044 60.7155V72.5719C68.3044 73.2831 69.0157 73.9943 69.7269 73.9943H81.5832C82.2944 73.9943 83.0056 73.2859 83.0056 72.5719V60.7155C83.0056 60.0043 82.2944 59.2903 81.5832 59.2903ZM79.9209 71.1466H70.9094V62.1351H79.9209V71.1466Z" fill="#960096"/>
<path d="M99.3693 59.2903H87.513C86.8018 59.2903 86.0906 60.0015 86.0906 60.7155V72.5719C86.0906 73.2831 86.8018 73.9943 87.513 73.9943H99.3693C100.081 73.9943 100.792 73.2859 100.792 72.5719V60.7155C100.792 60.0043 100.081 59.2903 99.3693 59.2903ZM97.7098 71.1466H88.6955V62.1351H97.7098V71.1466Z" fill="#960096"/>
<path d="M46.0086 47.4312H34.1495C33.4383 47.4312 32.7271 48.1424 32.7271 48.8564V54.786C32.7271 55.4972 33.4383 56.2084 34.1495 56.2084H46.0086C46.7199 56.2084 47.4311 55.4972 47.4311 54.786V48.8564C47.4311 48.1452 46.7199 47.4312 46.0086 47.4312ZM44.3491 53.3607H35.3376V50.2788H44.3491V53.3607Z" fill="#960096"/>
<path d="M63.7945 47.4312H51.9354C51.2242 47.4312 50.5129 48.1424 50.5129 48.8564V54.786C50.5129 55.4972 51.2242 56.2084 51.9354 56.2084H63.7945C64.5057 56.2084 65.217 55.4972 65.217 54.786V48.8564C65.217 48.1452 64.5057 47.4312 63.7945 47.4312ZM62.1322 53.3607H53.1207V50.2788H62.1322V53.3607Z" fill="#960096"/>
<path d="M81.5832 47.4312H69.7269C69.0157 47.4312 68.3044 48.1424 68.3044 48.8564V54.786C68.3044 55.4972 69.0157 56.2084 69.7269 56.2084H81.5832C82.2944 56.2084 83.0056 55.4972 83.0056 54.786V48.8564C83.0056 48.1452 82.2944 47.4312 81.5832 47.4312ZM79.9209 53.3607H70.9094V50.2788H79.9209V53.3607Z" fill="#960096"/>
<path d="M99.3693 47.4312H87.513C86.8018 47.4312 86.0906 48.1424 86.0906 48.8564V54.786C86.0906 55.4972 86.8018 56.2084 87.513 56.2084H99.3693C100.081 56.2084 100.792 55.4972 100.792 54.786V48.8564C100.792 48.1452 100.081 47.4312 99.3693 47.4312ZM97.7098 53.3607H88.6955V50.2788H97.7098V53.3607Z" fill="#960096"/>
<path d="M8.77437 83.0056C4.74417 83.0056 1.42236 86.3274 1.42236 90.3576C1.42236 94.3878 4.74135 97.7096 8.77437 97.7096C12.8074 97.7096 16.1264 94.3906 16.1264 90.3576C16.3634 86.3274 12.8074 83.0056 8.77437 83.0056ZM8.77437 94.862C6.40367 94.862 4.26721 92.9654 4.26721 90.3576C4.26721 87.9869 6.16377 85.8505 8.77437 85.8505C11.385 85.8505 13.2815 87.747 13.2815 90.3576C13.2815 92.9682 11.385 94.862 8.77437 94.862Z" fill="#960096"/>
<path d="M124.507 19.2083C118.817 19.2083 114.073 23.9525 114.073 29.645C114.073 35.3375 118.817 40.0817 124.507 40.0817C130.197 40.0817 134.944 35.3375 134.944 29.645C134.944 23.9525 130.2 19.2083 124.507 19.2083ZM124.507 36.997C120.477 36.997 117.155 33.6752 117.155 29.645C117.155 25.6148 120.477 22.293 124.507 22.293C128.537 22.293 131.859 25.612 131.859 29.645C131.859 33.678 128.54 36.997 124.507 36.997Z" fill="#960096"/>
<path d="M2.13363 4.26727C3.31201 4.26727 4.26727 3.31201 4.26727 2.13363C4.26727 0.955261 3.31201 0 2.13363 0C0.955261 0 0 0.955261 0 2.13363C0 3.31201 0.955261 4.26727 2.13363 4.26727Z" fill="#960096"/>
<path d="M11.1451 37.2341C12.3248 37.2341 13.2816 38.1909 13.2816 39.3678C13.2816 40.5447 12.3248 41.5014 11.1451 41.5014C9.9654 41.5014 9.01147 40.5447 9.01147 39.3678C9.01147 38.1909 9.96822 37.2341 11.1451 37.2341Z" fill="#960096"/>
<path d="M114.784 50.5129C115.964 50.5129 116.918 51.4697 116.918 52.6494C116.918 53.8291 115.961 54.783 114.784 54.783C113.608 54.783 112.648 53.8263 112.648 52.6494C112.648 51.4725 113.605 50.5129 114.784 50.5129Z" fill="#960096"/>
<path d="M125.221 87.51C126.398 87.51 127.355 88.4668 127.355 89.6436C127.355 90.8205 126.398 91.7773 125.221 91.7773C124.044 91.7773 123.085 90.8205 123.085 89.6436C123.085 88.4668 124.041 87.51 125.221 87.51Z" fill="#960096"/>
<path d="M11.1451 112.651C12.3248 112.651 13.2816 113.608 13.2816 114.785C13.2816 115.961 12.3248 116.918 11.1451 116.918C9.9654 116.918 9.01147 115.961 9.01147 114.785C9.01147 113.608 9.96822 112.651 11.1451 112.651Z" fill="#960096"/>
<path d="M116.207 7.58911C117.387 7.58911 118.341 8.54586 118.341 9.72275C118.341 10.8996 117.384 11.8564 116.207 11.8564C115.03 11.8564 114.071 10.8996 114.071 9.72275C114.071 8.54586 115.027 7.58911 116.207 7.58911Z" fill="#960096"/>
</svg>
