<svg width="29" height="30" viewBox="0 0 29 30" fill="none" xmlns="http://www.w3.org/2000/svg">
<path d="M28.5725 10.7339C28.5725 10.86 28.5725 10.9682 28.5725 11.0773C28.5725 16.3768 28.5734 21.6762 28.5716 26.9757C28.5716 28.4425 27.7603 29.5632 26.45 29.8968C26.1835 29.9648 25.9 29.9952 25.6236 29.9952C18.0693 30.0006 10.5159 30.0015 2.96165 29.9979C1.24794 29.9979 0.0163229 28.7869 0.0136396 27.0776C0.00469541 21.7227 0.0100619 16.3678 0.0109564 11.0121C0.0109564 10.9253 0.020795 10.8385 0.0261615 10.7339H28.5725ZM4.29612 24.279C4.29612 24.5017 4.29255 24.7253 4.29612 24.948C4.31133 25.8129 4.87302 26.4006 5.73256 26.4301C6.20034 26.4462 6.66992 26.4471 7.1377 26.4301C7.95251 26.4014 8.53031 25.8514 8.57324 25.0446C8.60097 24.533 8.60276 24.0178 8.57145 23.5071C8.52226 22.7093 7.94446 22.1699 7.15111 22.1521C6.6717 22.1413 6.19229 22.1413 5.71289 22.1521C4.89002 22.1708 4.32027 22.7504 4.29791 23.5769C4.29165 23.8112 4.29702 24.0455 4.29612 24.279ZM14.3092 22.1485C14.3092 22.1485 14.3092 22.1494 14.3092 22.1503C14.0525 22.1503 13.7958 22.1422 13.54 22.1521C12.7457 22.1807 12.1643 22.7746 12.15 23.5733C12.142 24.0303 12.1447 24.4874 12.1491 24.9453C12.1572 25.7852 12.7198 26.3898 13.5543 26.4283C14.0435 26.4506 14.5363 26.4506 15.0265 26.4283C15.8637 26.3898 16.4254 25.7888 16.4343 24.9489C16.4388 24.5026 16.4397 24.0563 16.4343 23.6109C16.4236 22.7567 15.8377 22.1699 14.9791 22.1503C14.7564 22.1449 14.5328 22.1503 14.3101 22.1503L14.3092 22.1485ZM22.1255 18.5654C22.1255 18.5654 22.1255 18.5645 22.1255 18.5636C22.3822 18.5636 22.6389 18.5717 22.8947 18.5619C23.6827 18.5332 24.2578 17.9644 24.281 17.1773C24.2954 16.6979 24.2927 16.2185 24.2837 15.7391C24.2685 14.909 23.7149 14.325 22.8893 14.2865C22.4001 14.2642 21.9073 14.2651 21.418 14.2865C20.6095 14.3205 20.0397 14.8876 20.0057 15.6952C19.9852 16.1854 19.9843 16.6773 20.0057 17.1666C20.0433 17.9921 20.6273 18.5449 21.4556 18.5645C21.6783 18.5699 21.9019 18.5645 22.1246 18.5645L22.1255 18.5654ZM14.2653 18.561C14.2653 18.561 14.2653 18.5627 14.2653 18.5636C14.522 18.5636 14.7787 18.5717 15.0345 18.5619C15.8306 18.5332 16.4155 17.9438 16.4316 17.1469C16.4415 16.6791 16.4388 16.2104 16.4325 15.7417C16.4218 14.9493 15.8905 14.3491 15.1016 14.2946C14.5578 14.257 14.0068 14.2561 13.4639 14.2973C12.6894 14.3554 12.1608 14.9529 12.15 15.7248C12.1429 16.2149 12.1375 16.7068 12.1527 17.197C12.176 17.9393 12.7564 18.5225 13.497 18.5592C13.7528 18.5717 14.0095 18.561 14.2662 18.561H14.2653ZM6.42663 18.5654C6.66097 18.5654 6.89531 18.5708 7.12875 18.5645C7.9552 18.544 8.53657 17.9903 8.57414 17.1621C8.5965 16.6728 8.5965 16.18 8.57414 15.6908C8.53747 14.8929 7.98471 14.3295 7.19136 14.2892C6.67975 14.2633 6.16457 14.2606 5.65296 14.291C4.85871 14.3384 4.3158 14.9198 4.29791 15.7113C4.28718 16.1907 4.28718 16.6702 4.29791 17.1496C4.31759 17.9724 4.89449 18.5413 5.72362 18.5645C5.95796 18.5708 6.19229 18.5654 6.42574 18.5663L6.42663 18.5654ZM24.2855 24.3067C24.2855 24.3067 24.2846 24.3067 24.2837 24.3067C24.2837 24.05 24.2918 23.7933 24.2819 23.5375C24.2533 22.7495 23.6827 22.1762 22.8956 22.153C22.4162 22.1395 21.9368 22.1413 21.4574 22.1503C20.6157 22.1655 20.0334 22.7343 20.0039 23.5787C19.9878 24.0464 19.9887 24.516 20.0039 24.9838C20.0299 25.8102 20.5951 26.3907 21.4171 26.4274C21.9073 26.4489 22.3992 26.4497 22.8884 26.4274C23.7149 26.388 24.265 25.8049 24.2846 24.9757C24.29 24.753 24.2846 24.5294 24.2846 24.3067H24.2855Z" fill="#492464"/>
<path d="M0.00910621 9.27147C0.00910621 8.79027 0.00910621 8.33501 0.00910621 7.87886C0.00910621 6.98623 0.0404109 6.0927 0.00284527 5.20186C-0.072286 3.40497 1.35074 2.05708 3.05818 2.14294C3.21292 2.15099 3.36944 2.14384 3.57605 2.14384C3.57605 2.39696 3.57248 2.63756 3.57605 2.87726C3.6011 4.33785 4.71912 5.57662 6.11442 5.69379C7.65282 5.82259 8.96046 4.86377 9.23416 3.37456C9.30571 2.98549 9.28514 2.57942 9.3075 2.16262H19.3009C19.3009 2.42469 19.2928 2.68854 19.3018 2.9515C19.3509 4.35395 20.4216 5.53727 21.7721 5.68843C23.23 5.8521 24.5431 4.99078 24.8946 3.5919C25.009 3.13575 25.0019 2.64918 25.0502 2.17335C26.7612 1.92828 28.1851 2.85401 28.517 4.44339C28.5554 4.62764 28.5679 4.81994 28.5688 5.00777C28.5733 6.34672 28.5724 7.68477 28.5706 9.02372C28.5706 9.09974 28.5563 9.17487 28.5474 9.26968H0.00910621V9.27147Z" fill="#492464"/>
<path d="M7.85945 2.1493C7.85945 2.406 7.86839 2.6627 7.85766 2.9185C7.82546 3.64567 7.25929 4.22972 6.54376 4.28339C5.80675 4.33795 5.11984 3.84334 5.04471 3.10454C4.98031 2.46682 4.9812 1.81121 5.04739 1.17349C5.12252 0.448116 5.79334 -0.0375545 6.52229 0.00448321C7.23693 0.0447321 7.8183 0.624316 7.85676 1.3479C7.87108 1.61444 7.85945 1.88277 7.85945 2.1502V2.1493Z" fill="#492464"/>
<path d="M23.5986 2.14649C23.5816 2.46759 23.5932 2.79405 23.5422 3.11068C23.425 3.84321 22.7667 4.34051 22.0297 4.28148C21.316 4.22513 20.7454 3.6366 20.7248 2.91033C20.7096 2.39783 20.7096 1.88532 20.7248 1.37282C20.7462 0.647446 21.3196 0.0589174 22.0324 0.00435777C22.7721 -0.0519907 23.4259 0.443518 23.5422 1.17784C23.5923 1.49446 23.5816 1.82093 23.5977 2.1456L23.5986 2.14649Z" fill="#492464"/>
</svg>
