<svg width="110" height="150" viewBox="0 0 110 150" fill="none" xmlns="http://www.w3.org/2000/svg">
<path d="M59.4045 30.4781C57.6417 32.4702 54.5125 34.3917 51.877 36.6306C49.9996 38.226 47.5227 41.2229 48.5276 46.1766C49.4266 50.5926 54.4332 53.237 54.4332 53.237C54.4332 53.237 57.2891 52.1969 58.3821 51.8443C60.1361 51.289 63.6178 50.5133 63.6178 50.5133C63.6178 50.5133 59.4222 47.9131 58.9286 47.5781C55.8171 45.4274 54.8475 44.2903 53.1551 42.1749C50.7929 39.222 54.1071 37.5385 55.3764 36.851C60.8413 33.8981 61.7139 31.4477 61.7139 31.4477C61.7139 31.4477 61.5112 40.2445 67.7694 39.8567C74.2392 39.46 76.2136 34.427 76.9188 31.9942C77.6768 29.3763 77.8002 26.0357 76.9188 23.4619C76.5045 22.2543 74.8474 20.4826 73.0316 20.1917C72.1149 20.0419 70.9955 20.7911 70.6341 21.364C69.6381 22.9154 67.9898 27.9484 69.0828 29.4292C69.7174 30.2842 72.8554 30.1344 73.4988 28.7241C73.7104 28.2657 74.8915 28.9004 75.0149 29.3851C75.2176 30.152 72.2295 31.9501 71.4803 32.2058C68.4922 33.2282 66.8615 31.8796 66.8615 31.8796C66.8615 31.8796 63.8823 29.8259 64.5786 26.2737C64.9753 24.2816 66.4208 19.3014 65.8479 18.2525C65.7069 17.9969 65.2132 18.1291 64.9753 18.2966C63.8118 19.1075 62.6483 23.2944 62.6483 23.2944C62.6483 23.2944 61.7756 27.8074 59.4134 30.4869L59.4045 30.4781Z" fill="#960096"/>
<path d="M74.3096 49.5348C74.7768 50.5838 75.9138 51.9941 76.8834 52.3731C77.7384 52.708 79.7481 52.664 80.6824 52.0558C81.5198 51.5093 83.4413 48.865 84.455 49.1823C86.1474 49.7111 88.3422 47.7896 88.3422 47.7896C88.3422 47.7896 90.0345 46.723 92.0442 46.2294C92.6524 46.0796 93.9834 44.4489 94.6268 43.9024C95.4201 43.2237 95.6846 42.4128 96.2046 41.3286C96.5484 40.6235 97.1566 38.9135 97.3329 37.8205C97.4827 36.8685 97.4034 35.6698 97.2535 32.7346C97.2447 32.5054 96.7423 32.2586 96.6365 32.4701C96.1429 33.4926 95.0235 35.6169 94.7062 36.6746C94.6269 36.939 94.4417 37.4943 94.4417 37.4943C94.4417 37.4943 94.6885 40.3855 94.4682 41.0642C94.1861 41.9633 92.7141 42.3423 92.7141 42.3423C92.7141 42.3423 91.7533 42.1924 91.4889 42.3423C91.1452 42.5362 91.0129 43.4882 90.6692 43.6909C90.3078 43.9024 89.3646 43.5322 88.9768 43.6909C88.6066 43.8407 88.5273 44.6076 88.1571 44.7751C87.5577 45.0307 85.9358 44.6869 85.2042 44.9514C84.1553 45.3304 82.1721 46.9434 80.8499 47.058C79.0165 47.2167 74.9707 45.7446 76.4956 40.4207C77.474 36.9831 76.9099 38.649 78.6287 35.3965C78.7873 35.0968 79.1664 33.6689 78.8667 33.8187C76.5308 34.9558 74.6357 40.121 74.1862 42.8535C73.9482 44.3255 73.4282 47.5869 74.3008 49.5437L74.3096 49.5348Z" fill="#960096"/>
<path d="M92.7759 31.3861C92.8993 31.6681 93.719 32.1705 94.1245 31.6417C95.0588 30.4429 96.3017 29.1296 96.7512 28.1335C96.9892 27.6135 97.0156 26.4676 96.4603 25.736C95.8257 24.8986 95.0324 24.0789 94.3272 23.7175C93.9129 23.506 93.199 22.8713 92.6613 23.5677C91.5419 25.0132 89.0386 28.1247 89.0386 28.1247C89.0386 28.1247 91.868 29.297 92.7759 31.3772V31.3861Z" fill="#960096"/>
<path d="M99.8011 38.6049C100.603 39.028 101.573 39.5745 102.084 40.0064C103.635 41.3198 103.865 43.682 104.543 42.9592C105.337 42.1131 107.32 39.9359 108.113 38.7812C108.527 38.1642 109.18 36.8332 108.906 35.9253C108.527 34.6649 105.839 31.8531 104.605 31.6503C104.252 31.5886 103.671 31.6503 103.168 32.3202C101.74 34.233 100.797 35.2643 99.3428 37.4414C98.9902 37.9703 99.5279 38.4639 99.8099 38.6137L99.8011 38.6049Z" fill="#960096"/>
<path d="M51.2954 32.2327C47.6463 35.6087 40.2598 43.6915 38.4528 47.7197C36.5136 52.0475 36.4872 53.3873 36.1611 56.1022C35.5088 61.523 37.9239 66.1242 37.9239 66.1242C37.9239 66.1242 31.3484 74.1894 31.3484 84.6256C31.3484 89.3414 34.5921 99.2664 48.3602 98.6406C54.971 98.3409 61.1588 95.8464 72.1503 87.0672C76.3901 83.6737 86.7646 70.9897 86.7646 70.9897C86.7646 70.9897 90.9603 65.2163 92.5822 63.4799C93.4195 62.5896 95.2706 60.8267 96.4781 60.5358C98.2939 60.0951 99.0431 60.1833 99.9069 59.6808C101.476 58.7641 103.829 55.1767 104.526 53.4138C105.178 51.7479 105.531 48.0811 105.619 46.1331C105.698 44.5288 105.31 44.6082 104.94 44.7051C103.979 44.9607 103.186 47.2878 102.525 48.7157C101.987 49.8792 102.472 52.1533 102.137 53.2287C102.049 53.5019 101.687 54.0043 101.432 54.1454C100.321 54.7888 98.8051 54.1101 97.6769 54.7183C94.7946 56.2696 90.4403 61.2322 86.4385 65.895C82.0666 70.9897 80.5505 73.59 78.1706 75.7495C72.9348 80.5181 67.8665 86.9791 54.6713 91.5538C50.2377 93.0875 40.8591 94.1276 35.9671 90.1523C33.8781 88.4599 31.9125 84.4846 33.0584 80.1391C35.7732 69.8351 38.9376 68.125 38.9376 68.125C38.9376 68.125 43.0451 75.1325 49.5942 76.0051C58.9728 77.248 66.7647 73.3432 70.5549 69.9232C72.1327 68.4953 75.3764 64.7227 75.3764 64.7227L73.684 63.9029C73.684 63.9029 69.1094 71.7213 58.2324 74.4097C55.4029 75.1061 50.6696 75.5997 46.1302 73.2991C42.7542 71.5891 40.0658 66.9439 40.0658 66.9439C40.0658 66.9439 43.8384 62.7306 48.0165 59.6191C51.7361 56.8514 55.7467 55.2207 58.1883 54.3129C65.6453 51.5539 69.3297 51.8624 72.3002 52.8056C75.4557 53.8104 75.9846 56.349 75.9846 56.349L78.0031 57.2921C78.0031 57.2921 77.4743 52.5852 72.7145 51.1132C69.8321 50.223 65.0283 50.8664 65.0283 50.8664C65.0283 50.8664 55.5175 51.9065 45.7776 58.8787C43.7327 60.3419 38.8935 65.1898 38.8935 65.1898C38.8935 65.1898 36.1346 59.0374 37.492 53.5284C39.3783 45.8598 42.4722 43.4182 44.667 40.7475C47.9019 36.8162 49.7882 34.974 51.8772 33.0348C60.5153 25.0225 63.5387 16.1729 63.5387 16.1729C63.5387 16.1729 57.4214 26.5651 51.3042 32.2239L51.2954 32.2327Z" fill="#960096"/>
<path d="M67.7079 53.2371C67.7079 53.2371 66.2094 52.6553 62.6396 53.6337C59.9247 54.383 57.4038 55.3437 57.4038 55.3437L61.6259 57.6267L83.5209 68.2216L87.699 63.2855C87.699 63.2855 82.5866 60.2093 80.6827 59.2309C77.6065 57.6443 67.7079 53.2459 67.7079 53.2459V53.2371Z" fill="#960096"/>
<path d="M71.7009 7.19942C71.9918 7.78999 71.5775 8.88298 71.2866 9.35014C70.8018 10.1082 69.5325 11.2452 68.9596 12.065C68.7481 12.3735 68.2897 13.2285 69.1447 13.6428C70.9517 14.5154 71.5863 15.1941 72.2033 16.578C72.3179 16.8424 72.7851 16.8248 73.0407 16.6837C73.975 16.1813 75.2002 14.251 75.7291 13.4665C76.3902 12.4793 76.4607 11.3334 75.9583 10.6106C75.4823 9.93189 73.5079 8.95349 73.455 8.0456C73.4021 6.93499 75.4558 5.36602 75.8877 4.34355C76.02 4.01741 76.0552 3.32989 75.9318 2.94205C75.6233 1.99891 74.116 0.888295 73.0848 0.112626C72.7322 -0.151807 72.1592 0.112626 71.9653 0.262471C70.9693 1.00288 68.5718 4.81953 68.5718 4.81953C68.5718 4.81953 71.3219 6.41494 71.7097 7.19061L71.7009 7.19942Z" fill="#960096"/>
<path d="M105.398 71.9939C104.464 71.6854 103.195 70.5748 101.934 70.7247C100.03 70.945 97.7651 73.748 97.7651 73.748C97.7651 73.748 95.8612 76.1632 95.2001 77.6087C95.1472 77.7321 95.4909 77.8732 95.5791 77.7762C96.5399 76.6391 98.1 74.9644 99.0432 74.1711C99.4134 73.8538 100.295 73.5982 101.326 73.7656C102.269 73.9155 104.349 75.1936 104.349 75.1936C104.349 75.1936 101.749 78.0406 100.665 78.5342C99.0343 79.2746 97.1128 79.4421 95.5791 78.7458C94.68 78.3315 93.3226 77.5646 92.6527 76.075C91.8594 74.3033 92.3883 71.659 92.9083 70.0195C93.305 68.7679 94.4597 66.5995 95.4204 65.0217C95.5879 64.7485 95.5262 63.9816 95.3147 63.9552C94.9709 63.9023 94.4597 64.5546 94.2481 64.819C92.8025 66.67 91.0925 70.9009 90.2111 73.1574C89.3826 75.2817 89.1093 79.3011 89.55 81.4254C89.929 83.2676 91.5421 84.4223 92.6968 84.6955C96.0022 85.4888 98.5055 83.6378 100.03 82.6065C101.079 81.9013 102.463 80.0327 103.512 78.9661C104.623 77.8203 105.839 75.8458 106.712 75.0614C107.126 74.6911 108.686 74.0565 108.686 74.0565L109.083 72.179C109.083 72.179 106.341 72.3024 105.398 71.9939Z" fill="#960096"/>
<path d="M99.7218 78.2089C100.171 77.918 98.5143 75.5293 98.5143 75.5293L96.1873 78.1824C96.1873 78.1824 98.5319 78.9757 99.7218 78.2177V78.2089Z" fill="#960096"/>
<path d="M93.3402 70.5488C92.397 73.4399 92.7408 75.1147 93.3842 76.1636C93.6839 76.6572 94.583 77.2566 94.583 77.2566L97.1127 73.3165L94.0101 68.8564C94.0101 68.8564 93.4724 70.1698 93.3402 70.5576V70.5488Z" fill="#960096"/>
<path d="M89.6555 72.8756C89.6555 72.8756 90.4841 70.7072 90.7926 69.9844C91.1011 69.2617 92.15 67.0933 92.15 67.0933L91.1275 66.2295L87.6987 70.8218L89.6555 72.8844V72.8756Z" fill="#960096"/>
<path d="M104.693 60.3775C104.349 60.3158 103.715 60.3687 103.38 60.827C102.578 61.92 100.4 64.5643 100.4 64.5643L100.039 65.0579C100.039 65.0579 101.784 65.7719 102.578 66.7239C103.292 67.57 103.953 68.8041 104.155 68.76C105.24 68.522 107.038 65.9923 107.461 65.2959C107.593 65.0667 107.99 63.7622 107.461 62.7838C107.108 62.1315 105.425 60.5185 104.702 60.3863L104.693 60.3775Z" fill="#960096"/>
<path d="M99.8012 83.4967C99.3604 83.8229 97.8972 84.625 97.8972 84.625C97.8972 84.625 99.0607 87.6659 99.2106 88.6443C100.11 94.5059 101.264 102.598 97.1128 112.479C95.1824 117.08 92.6879 122.254 87.0555 129.041C80.7973 136.586 80.7885 135.916 72.5117 143.505C71.6743 144.272 68.9595 140.438 68.9595 140.438C68.9595 140.438 66.324 136.374 64.4553 135.29C62.7453 134.294 60.1186 133.607 55.6321 132.02C54.4774 131.615 58.6554 135.07 59.0962 135.749C60.4448 137.811 61.2469 140.173 64.3143 141.407C67.4787 142.677 69.1799 143.426 69.3561 143.779C69.5324 144.131 63.5827 143.206 62.4721 142.95C61.2821 142.668 59.8454 141.681 59.8454 141.681C59.8454 141.681 55.8965 135.246 52.741 131.861C51.5951 130.627 50.0966 130.372 49.0037 129.79C47.0733 128.768 47.2672 128.186 44.8521 127.481C44.191 127.287 45.7952 129.058 46.4298 129.764C49.0918 132.716 49.0918 135.035 50.4316 136.665C51.5158 137.979 54.1072 138.931 55.9582 140.112C57.5448 141.125 58.1795 141.954 58.1795 141.954C58.1795 141.954 49.5237 139.786 47.3025 137.917C45.8393 136.692 44.6758 129.411 42.2165 126.52C40.8415 124.898 36.4431 120.121 36.3373 120.385C35.8966 121.522 37.5273 123.911 37.7829 125.251C38.206 127.481 38.3999 131.694 41.864 133.801C42.7102 134.312 44.667 136.339 44.667 136.604C44.667 136.868 36.8397 132.91 36.3373 131.518C34.9623 127.745 36.5753 125.903 34.5833 121.081C33.6225 118.754 29.8587 112.637 28.704 112.928C28.1223 113.078 29.6119 116.11 29.5238 118.076C29.4621 119.486 29.3563 121.549 30.1055 123.338C30.4052 124.043 31.886 126.229 33.2875 127.719C34.5744 129.085 34.4599 130.495 34.4599 130.495C34.4599 130.495 27.9196 125.568 26.95 123.1C26.1919 121.17 27.3907 114.841 26.7472 111.615C26.377 109.79 23.6005 104.228 23.2479 103.144C22.4811 100.773 22.8601 109.535 22.0756 112.549C21.5115 114.709 25.1959 121.443 25.1959 121.443C25.1959 121.443 18.9112 114.991 18.5058 112.117C18.1532 109.658 20.63 103.047 20.6653 100.015C20.7005 97.7056 18.5322 91.1036 18.5322 91.1036C18.5322 91.1036 18.021 93.6598 17.307 95.8986C16.5313 98.3049 15.5441 100.429 15.4383 101.452C15.2003 103.726 16.8486 106.476 17.069 108.089C17.1395 108.635 16.9809 110.583 16.9809 110.583L12.4062 100.403C12.4062 100.403 16.8398 90.7245 17.3158 87.2517C17.5626 85.4447 16.6988 79.9709 16.6988 79.9709C16.6988 79.9709 13.5432 86.8109 12.3445 88.4769C11.0135 90.3279 11.6129 98.0405 11.6129 98.0405C11.6129 98.0405 9.1184 90.5042 9.50623 87.9568C9.9734 84.8453 12.3709 83.0913 15.9672 77.8114C16.972 76.3306 17.1395 69.6669 17.1395 69.6669C17.1395 69.6669 11.2339 75.8194 10.2731 77.6616C9.35639 79.4068 9.96458 82.5712 9.66489 83.9991C9.55912 84.5192 8.73938 85.9031 8.73938 85.9031C8.73938 85.9031 7.5318 77.0093 8.60716 74.9027C9.74422 72.6814 15.5265 68.7766 17.4833 65.4889C18.5851 63.629 19.4136 58.1024 19.4136 58.1024C19.4136 58.1024 17.9593 59.7154 17.3951 60.1738C16.0818 61.2579 13.2612 62.5801 11.9919 64.2108C11.0576 65.4095 8.6336 71.2006 8.6336 71.2006C8.6336 71.2006 9.14484 64.4664 10.2995 62.6065C10.9518 61.5576 14.2484 59.6273 14.2484 59.6273C14.2484 59.6273 20.3832 56.1456 21.6437 53.1399C22.102 52.0469 23.4683 50.1077 24.6847 48.4065C25.478 47.2959 26.6944 47.1284 26.2889 46.8023C24.9755 45.7181 20.7711 49.5965 18.92 50.425C14.1514 52.5581 13.649 55.5374 12.4855 57.6617C12.1506 58.2699 10.7314 59.8124 10.7314 59.8124C10.7314 59.8124 13.3141 50.7511 15.5529 48.7238C16.8663 47.5339 20.1452 46.5202 22.3224 45.9297C27.188 44.6163 27.9813 42.9328 28.9949 41.4343C30.0791 39.8477 33.9662 36.5864 33.9662 36.5864C33.9662 36.5864 28.1135 38.3933 26.0773 38.9839C19.9778 40.738 20.1981 43.206 18.6203 45.0041C17.1924 46.6436 16.3374 45.7974 16.3374 45.7974C16.3374 45.7974 20.4273 38.3845 22.6221 36.8861C24.2351 35.7843 28.6688 35.7666 30.9517 35.5375C36.8662 34.9645 37.6066 32.7697 39.2196 31.0685C39.9689 30.2752 43.6269 30.143 43.3977 29.0853C43.1949 28.1245 39.2461 29.7023 34.4863 29.7552C30.7754 29.7993 28.3515 32.664 26.4475 33.7305C24.2087 34.9821 24.05 34.3123 24.05 34.3123C24.05 34.3123 29.753 27.578 32.2915 26.6261C33.6754 26.106 37.589 26.723 39.0169 26.8288C41.388 27.0051 45.4074 27.2607 47.2584 26.2471C48.6863 25.4626 49.4179 23.9112 53.3932 23.6468C53.8075 23.6204 55.1209 22.8271 54.7418 22.6508C54.3628 22.4745 50.7489 22.4392 49.8322 22.3335C47.4082 22.0338 43.6621 21.6636 41.388 22.448C40.0923 22.8976 38.1795 24.4401 36.9455 24.8456C36.3021 25.0571 34.5744 24.8456 34.5744 24.8456C34.5744 24.8456 39.0081 21.3903 40.6211 20.4648C43.3712 18.887 48.2456 19.9888 50.1231 19.6451C52.644 19.1867 55.8084 14.3828 58.1354 13.3339C59.1579 12.8668 61.573 13.1929 62.4897 12.5406C62.8599 12.2762 62.5779 11.9765 62.3751 11.8707C61.0441 11.1832 57.8269 11.051 56.3284 10.9981C50.3699 10.7601 47.135 12.6817 45.284 14.0391C43.2214 15.5463 41.0971 18.0849 39.581 19.3277C38.488 20.2268 34.7595 22.4569 34.7595 22.4569C34.7595 22.4569 39.5722 18.0496 40.3126 16.1457C41.9521 11.906 45.1077 9.2793 44.2262 9.2793C43.7591 9.2793 37.7212 12.8844 36.2404 14.471C35.1474 15.6521 34.4246 18.4199 33.8428 19.9183C33.3404 21.2228 32.0888 24.4225 32.0888 24.4225L24.1382 32.5494C24.1382 32.5494 24.0412 31.5181 24.2528 30.998C25.002 29.1999 28.4572 25.7446 29.2241 24.3079C29.8852 23.0562 29.8587 20.8791 30.0967 19.8037C30.3876 18.5433 30.9693 17.6971 33.2787 16.0311C33.4903 15.8813 33.931 15.1233 33.7194 14.8941C33.4903 14.6473 33.0231 14.8412 32.7234 15.0087C31.5511 15.6874 29.9292 17.6794 28.7217 18.5433C27.0469 19.7332 25.8305 20.2973 23.4595 24.9778C22.4722 26.917 22.7896 32.1792 22.4458 33.3691C21.6966 35.9605 16.3286 42.6331 16.3286 42.6331C16.3286 42.6331 18.6732 36.5952 19.1051 34.6825C19.4842 33.0077 19.1051 29.8522 19.6604 28.3713C20.0924 27.2166 22.6838 25.4009 22.5339 24.1845C22.4899 23.8495 21.8993 23.92 21.6789 24.1669C18.9288 27.2343 15.7733 29.9667 14.839 32.6111C14.3365 34.0214 14.3101 38.5432 14.3101 38.5432L14.1338 47.2254L10.2466 56.8155C10.2466 56.8155 9.71778 55.4404 10.4494 53.5718C11.2956 51.4122 11.4542 49.288 11.4718 47.6397C11.4895 45.9737 10.5199 43.0121 10.7138 41.355C10.8284 40.3942 11.8332 38.7459 12.318 37.8204C12.5648 37.362 13.5873 35.9958 13.0761 35.6256C12.8028 35.4229 12.3533 35.7314 12.1153 35.9782C10.2819 37.8292 8.17525 42.492 7.11752 45.1275C6.32422 47.0843 6.8619 50.8569 7.20567 52.7256C7.5318 54.4796 9.07432 57.8115 9.13603 59.592C9.21535 61.8661 7.29381 68.5034 7.29381 68.5034C7.29381 68.5034 7.55824 63.5673 7.29381 61.9543C6.99412 60.1297 5.4516 58.0671 4.94918 55.2112C4.75526 54.1271 5.4516 51.7824 6.19201 50.2575C6.32422 49.9843 6.32422 49.2174 6.06861 49.0676C5.7601 48.8913 5.20479 49.4907 4.98443 49.7727C4.19114 50.7864 2.96593 55.2641 2.96593 55.2641C2.96593 55.2641 2.37536 58.9574 2.40181 60.2619C2.42825 61.4695 3.0717 63.5144 3.4948 64.6427C4.25284 66.6788 6.27134 69.3055 6.76495 71.4827C7.39958 74.2416 7.11752 84.052 7.11752 84.052C7.11752 84.052 6.46526 82.4214 6.32422 81.8572C5.99809 80.5615 5.74247 77.8202 5.36345 76.595C4.79052 74.7793 2.45469 71.9322 1.94346 70.1958C1.58207 68.9529 1.85531 64.9336 1.85531 64.9336C1.85531 64.9336 1.97872 63.6378 1.43222 63.5761C0.991501 63.5232 0.868099 63.6466 0.806398 64.0874C0.489079 66.2822 0.321605 68.0274 0.189388 69.4113C0.00428551 71.4827 -0.14556 75.2464 0.39212 76.8947C1.00032 78.7546 4.6583 83.1794 4.6583 83.1794L7.81386 87.1283L9.03907 95.4579C9.03907 95.4579 7.98134 92.2494 7.46129 91.2446C6.95005 90.2486 5.74247 88.7149 4.68474 87.7365C3.53887 86.6699 0.709439 84.5545 1.32645 80.9846C1.40578 80.5263 0.127687 79.9004 0.127687 79.9004C0.127687 79.9004 -0.048601 81.5752 0.0130999 82.2098C0.215832 84.3958 1.28238 88.9617 2.0316 90.7774C2.73676 92.4874 4.62304 94.5765 6.15675 95.6254C9.89406 98.1992 10.7138 100.271 10.7138 100.271L13.6931 107.199C13.6931 107.199 12.2828 104.695 11.6746 103.955C10.8108 102.897 9.60319 100.773 8.49257 100.473C4.6583 99.4596 3.52124 96.6743 3.52124 96.6743L2.29603 94.4795C2.29603 94.4795 2.04923 95.308 2.05805 95.7047C2.11093 97.212 3.53005 99.9885 4.19114 101.496C5.01088 103.364 7.37314 106.494 9.4269 106.987C13.4022 107.948 15.1827 111.28 16.6459 112.628C18.8936 114.7 21.582 120.253 21.582 120.253C21.582 120.253 17.404 115.264 15.6234 114.03C14.504 113.254 11.5335 112.778 10.4229 111.985C9.29468 111.183 7.11752 107.542 7.11752 107.542C7.11752 107.542 6.56221 107.816 6.52696 108.177C6.38593 109.649 8.25458 112.664 9.13603 113.862C12.935 119.01 13.6226 118.411 15.359 119.213C17.2629 120.094 20.9914 121.24 22.816 122.28C25.3193 123.708 31.0839 129.182 31.6745 130.081C32.8292 131.861 26.6767 126.079 24.6582 125.286C23.2832 124.748 20.1893 124.792 18.779 124.29C17.8094 123.946 16.1611 122.122 15.359 122.007C14.839 121.936 15.6323 123.567 15.8879 124.025C16.6635 125.445 18.8936 127.921 20.2686 128.759C22.1461 129.896 26.0862 131.068 28.3955 131.244C29.559 131.333 32.0271 131.43 33.1906 131.738C35.879 132.461 42.719 137.529 42.719 137.529C42.719 137.529 40.8327 138.102 38.7701 136.039C38.0209 135.29 35.9495 134.506 34.9094 134.285C33.5167 133.986 30.5991 134.603 29.2065 134.285C28.563 134.136 26.7472 133.201 26.7472 133.201C26.7472 133.201 24.6141 131.659 24.3585 132.276C24.0853 132.946 26.853 135.687 27.9724 136.304C30.0967 137.467 32.7058 139.08 35.1209 139.283C36.7428 139.424 42.5339 138.508 44.667 138.728C45.8569 138.851 48.6687 140.129 48.6687 140.129L54.6273 142.615C54.6273 142.615 53.3844 143.109 51.075 142.033C48.1663 140.685 47.5228 141.169 46.5621 141.125C45.1341 141.055 43.3448 141.998 41.2117 141.945C38.4087 141.866 36.6546 140.808 36.6546 140.808C36.6546 140.808 35.024 140.359 35.0504 140.693C35.0769 141.205 35.5705 141.91 36.5665 142.271C40.0129 143.532 41.6524 145.162 47.2672 145.718C50.2112 146.009 54.451 144.061 56.5047 143.611C57.4479 143.408 59.2813 143.673 59.2813 143.673L67.4346 144.898C67.4346 144.898 66.7735 145.515 65.9714 145.603C64.6845 145.744 62.8687 144.792 61.5906 144.96C59.8895 145.189 56.9631 146.855 55.3324 147.181C53.7458 147.498 51.3835 147.225 48.845 147.093C48.5629 147.075 48.8802 147.622 49.0654 147.842C49.9821 148.926 53.0847 148.961 54.4598 149.199C56.2403 149.508 59.9247 150.486 62.1107 149.702C66.6677 148.08 70.264 146.52 72.3178 145.189C74.6624 143.664 75.7378 142.5 81.1146 137.882C84.9929 134.55 89.8232 129.182 93.6751 123.497C101.74 111.597 102.569 104.122 103.256 96.8858C103.794 91.1741 101.458 82.201 101.458 82.201C101.458 82.201 100.215 83.2323 99.7659 83.576L99.8012 83.4967Z" fill="#960096"/>
</svg>
