<svg width="27" height="26" viewBox="0 0 27 26" fill="none" xmlns="http://www.w3.org/2000/svg">
<path d="M0.00170898 13.7701C0.00170898 13.2627 0.00170898 12.7532 0.00170898 12.2458C0.0172636 12.1641 0.0328181 12.0824 0.0483727 12.0008C0.186419 11.1939 0.256415 10.3676 0.472235 9.58205C2.43989 2.46583 9.81664 -1.57835 16.8512 0.581788C23.3375 2.57472 27.2533 9.30012 25.6687 15.9147C24.5313 20.6627 21.539 23.8048 16.9309 25.3913C16.1862 25.648 15.3968 25.7685 14.6074 25.9571V15.7125H17.7203C17.8778 14.4953 18.0314 13.3074 18.1908 12.0844H14.6036C14.6036 11.1803 14.5666 10.3073 14.6133 9.44011C14.6658 8.49517 15.148 8.06353 16.0968 8.02854C16.7384 8.00521 17.3839 8.00909 18.0256 7.99937C18.115 7.99937 18.2044 7.98965 18.3094 7.98576C18.3094 6.94166 18.3133 5.92673 18.3017 4.91179C18.3017 4.85152 18.1908 4.74458 18.1267 4.74069C17.0962 4.69403 16.0637 4.61625 15.0333 4.63959C14.0514 4.66292 13.1395 4.98762 12.3734 5.63508C11.3721 6.4828 10.9405 7.60856 10.8724 8.87821C10.8219 9.84064 10.8452 10.807 10.8355 11.7733C10.8355 11.8725 10.8355 11.9697 10.8355 12.098H7.72261V15.7319H10.8219V25.7957C10.7849 25.7996 10.7596 25.8074 10.7363 25.8035C9.59499 25.6071 8.50422 25.2533 7.46207 24.7575C5.50025 23.8242 3.86119 22.4885 2.56627 20.7425C1.35301 19.1053 0.551952 17.2854 0.205863 15.275C0.120313 14.7773 0.0697602 14.2718 0.00365331 13.7721L0.00170898 13.7701Z" fill="#960096"/>
</svg>
