<svg width="126" height="120" viewBox="0 0 126 120" fill="none" xmlns="http://www.w3.org/2000/svg">
<path d="M46.607 57.4982H49.8751V46.3897H54.0126V43.5562H42.2522V46.3897H46.607V57.4982Z" fill="#960096"/>
<path d="M59.4567 54.4471H63.8114L64.9008 57.498H68.1662L63.1567 43.5588H60.3259L55.3164 57.498H58.5846L59.4567 54.4471ZM61.6355 47.2588L63.3768 52.2684H60.1086L61.6326 47.2588H61.6355Z" fill="#960096"/>
<path d="M70.345 57.4982H73.8305L76.6612 52.9204L79.7121 57.4982H83.1948L78.4054 50.7445L83.1948 43.5562H79.7121L76.6612 48.3484L73.6132 43.5562H70.1277L74.9199 50.7445L70.345 57.4982Z" fill="#960096"/>
<path d="M111.508 62.7221L108.025 66.2076C107.153 65.3355 106.064 64.6836 104.974 64.2489V22.4314C104.974 17.6392 101.054 13.719 96.2618 13.719H85.3707C84.2813 10.4509 81.2333 8.27489 77.7478 8.27489H74.2651C72.5237 3.4855 67.9488 0 62.722 0C57.4952 0 52.9203 3.26536 51.1789 8.27489H47.6963C44.2107 8.27489 41.1627 10.4509 40.0733 13.719H29.185C24.3928 13.719 20.4727 17.6392 20.4727 22.4314V111.288C20.4727 116.08 24.3928 120 29.185 120H96.2646C101.054 120 104.977 116.08 104.977 111.288V95.3898C112.165 91.4697 115.648 83.192 113.472 75.1344L118.482 70.1277C120.44 68.1691 120.44 64.9009 118.482 62.9394C116.74 60.7606 113.472 60.7606 111.511 62.7193L111.508 62.7221ZM47.9136 10.8883H52.2683C52.9203 10.8883 53.3577 10.4509 53.575 9.79891C54.6644 5.66147 58.3644 2.6106 62.722 2.6106C67.0796 2.6106 70.7796 5.44133 71.869 9.79891C72.0863 10.4509 72.5237 10.8883 73.1757 10.8883H77.5304C80.5813 10.8883 82.9746 13.2844 82.9746 16.3325C82.9746 19.3805 80.5785 21.7766 77.5304 21.7766H47.9107C44.8627 21.7766 42.4666 19.3805 42.4666 16.3325C42.4666 13.2844 44.8627 10.8883 47.9107 10.8883H47.9136ZM23.3034 111.07V22.4314C23.3034 19.1632 25.9168 16.3325 29.4023 16.3325H39.856C39.856 20.9045 43.5588 24.6074 48.1337 24.6074H77.7534C82.3283 24.6074 86.0311 20.9045 86.0311 16.3325H96.4848C99.7502 16.3325 102.584 18.9459 102.584 22.4314V63.1567C99.9703 62.2846 97.1396 62.0673 94.3088 62.2846V36.8024C94.3088 36.1476 93.6569 35.4957 93.0021 35.4957H32.885C32.2302 35.4957 31.5783 36.1504 31.5783 36.8024V117.166H29.3995C25.914 117.166 23.3006 114.336 23.3006 111.068L23.3034 111.07ZM34.1917 38.1119H91.4696V62.7221C84.2813 64.9009 78.8372 71.6517 78.8372 79.7093C78.8372 87.7669 84.064 94.3004 91.4696 96.6965V117.169H34.1917V38.1119ZM102.361 111.07C102.361 114.339 99.7473 117.169 96.2618 117.169H94.083V97.3513C96.9138 97.7859 99.7445 97.3513 102.358 96.4792V111.07H102.361ZM96.4791 94.7351C88.2043 94.7351 81.4534 87.9814 81.4534 79.7065C81.4534 71.4316 88.2043 64.6807 96.4791 64.6807C99.9646 64.6807 103.23 65.9874 106.061 68.1662L98.0032 76.2238L96.2618 74.4825C95.3897 73.6104 94.083 72.9584 92.7763 72.9584C89.9428 72.9584 87.7668 75.1344 87.7668 77.9651C87.7668 79.2719 88.2014 80.5786 89.2908 81.4506L97.1311 89.2909C97.5657 89.7255 98.4378 89.7255 99.0926 89.2909L111.288 77.0931C112.812 86.4602 105.623 94.7351 96.4763 94.7351H96.4791ZM116.735 67.9461L98.0032 86.6775L91.035 79.7065C90.6004 79.2719 90.3802 78.6171 90.3802 77.9651C90.3802 76.6584 91.4696 75.5719 92.7763 75.5719C93.4283 75.5719 94.083 75.7892 94.5177 76.2238L97.1311 78.8372C97.5657 79.2747 98.4378 79.2747 99.0926 78.8372L113.466 64.4634C114.338 63.5913 115.862 63.5913 116.732 64.4634C117.166 64.9009 117.384 65.5528 117.384 66.2048C117.384 66.8567 117.166 67.5115 116.732 67.9461H116.735Z" fill="#960096"/>
<path d="M82.9774 107.588H39.4185C38.7666 107.588 38.1118 108.242 38.1118 108.894C38.1118 109.546 38.7666 110.201 39.4185 110.201H82.9774C83.6294 110.201 84.2841 109.546 84.2841 108.894C84.2841 108.242 83.6294 107.588 82.9774 107.588Z" fill="#960096"/>
<path d="M82.9774 102.144H39.4185C38.7666 102.144 38.1118 102.798 38.1118 103.45C38.1118 104.102 38.7666 104.757 39.4185 104.757H82.9774C83.6294 104.757 84.2841 104.102 84.2841 103.45C84.2841 102.798 83.6294 102.144 82.9774 102.144Z" fill="#960096"/>
<path d="M82.9774 96.6992H39.4185C38.7666 96.6992 38.1118 97.354 38.1118 98.0059C38.1118 98.6579 38.7666 99.3126 39.4185 99.3126H82.9774C83.6294 99.3126 84.2841 98.6579 84.2841 98.0059C84.2841 97.354 83.6294 96.6992 82.9774 96.6992Z" fill="#960096"/>
<path d="M39.4185 93.8659H78.84C79.4919 93.8659 80.1467 93.2111 80.1467 92.5592C80.1467 91.9072 79.4919 91.2524 78.84 91.2524H39.4185C38.7666 91.2524 38.1118 91.9072 38.1118 92.5592C38.1118 93.2111 38.5464 93.8659 39.4185 93.8659Z" fill="#960096"/>
<path d="M39.4185 88.4218H76.2265C76.8785 88.4218 77.5333 87.767 77.5333 87.1151C77.5333 86.4631 76.8785 85.8083 76.2265 85.8083H39.4185C38.7666 85.8083 38.1118 86.4631 38.1118 87.1151C38.1118 87.767 38.5464 88.4218 39.4185 88.4218Z" fill="#960096"/>
<path d="M39.4185 82.9774H74.9198C75.5746 82.9774 76.2265 82.3227 76.2265 81.6707C76.2265 81.0188 75.5746 80.364 74.9198 80.364H39.4185C38.7666 80.364 38.1118 81.0188 38.1118 81.6707C38.1118 82.3227 38.5464 82.9774 39.4185 82.9774Z" fill="#960096"/>
<path d="M4.57218 70.7798C5.65311 70.7798 6.53083 71.6575 6.53083 72.7413C6.53083 73.825 5.65311 74.6999 4.57218 74.6999C3.49125 74.6999 2.61353 73.8222 2.61353 72.7413C2.61353 71.6603 3.49125 70.7798 4.57218 70.7798Z" fill="#960096"/>
<path d="M6.09611 34.1919C7.17986 34.1919 8.05758 35.0696 8.05758 36.1505C8.05758 37.2315 7.17986 38.1092 6.09611 38.1092C5.01235 38.1092 4.13745 37.2315 4.13745 36.1505C4.13745 35.0696 5.01518 34.1919 6.09611 34.1919Z" fill="#960096"/>
<path d="M33.3226 2.83081C34.4035 2.83081 35.2812 3.70854 35.2812 4.78946C35.2812 5.87039 34.4035 6.74812 33.3226 6.74812C32.2416 6.74812 31.3611 5.87039 31.3611 4.78946C31.3611 3.70854 32.2388 2.83081 33.3226 2.83081Z" fill="#960096"/>
<path d="M105.412 1.52393C106.493 1.52393 107.37 2.40165 107.37 3.48258C107.37 4.56351 106.493 5.44123 105.412 5.44123C104.331 5.44123 103.45 4.56351 103.45 3.48258C103.45 2.40165 104.328 1.52393 105.412 1.52393Z" fill="#960096"/>
<path d="M113.469 47.6963C114.55 47.6963 115.428 48.574 115.428 49.6549C115.428 50.7359 114.55 51.6136 113.469 51.6136C112.388 51.6136 111.508 50.7359 111.508 49.6549C111.508 48.574 112.386 47.6963 113.469 47.6963Z" fill="#960096"/>
<path d="M114.993 102.144C116.074 102.144 116.952 103.021 116.952 104.102C116.952 105.183 116.074 106.064 114.993 106.064C113.912 106.064 113.035 105.183 113.035 104.102C113.035 103.021 113.912 102.144 114.993 102.144Z" fill="#960096"/>
<path d="M39.4185 77.5333H74.9198C75.5746 77.5333 76.2265 76.8786 76.2265 76.2266C76.2265 75.5747 75.5746 74.9199 74.9198 74.9199H39.4185C38.7666 74.9199 38.1118 75.5747 38.1118 76.2266C38.1118 76.8786 38.5464 77.5333 39.4185 77.5333Z" fill="#960096"/>
<path d="M39.4185 72.0892H76.2265C76.8785 72.0892 77.5333 71.4345 77.5333 70.7825C77.5333 70.1306 76.8785 69.4758 76.2265 69.4758H39.4185C38.7666 69.4758 38.1118 70.1306 38.1118 70.7825C38.1118 71.4345 38.5464 72.0892 39.4185 72.0892Z" fill="#960096"/>
<path d="M39.4185 66.6449H80.364C81.0188 66.6449 81.6707 65.9901 81.6707 65.3382C81.6707 64.6863 81.0188 64.0315 80.364 64.0315H39.4185C38.7666 64.0315 38.1118 64.6863 38.1118 65.3382C38.1118 65.9901 38.5464 66.6449 39.4185 66.6449Z" fill="#960096"/>
<path d="M6.75086 89.9485C3.04805 89.9485 0 92.9965 0 96.6994C0 100.402 3.04805 103.453 6.75086 103.453C10.4537 103.453 13.5017 100.402 13.5017 96.6994C13.5017 92.9965 10.4537 89.9485 6.75086 89.9485ZM6.75086 100.837C4.57207 100.837 2.61342 99.0955 2.61342 96.6994C2.61342 94.5234 4.35476 92.5619 6.75086 92.5619C9.14697 92.5619 10.8883 94.3032 10.8883 96.6994C10.8883 98.8781 8.92966 100.837 6.75086 100.837Z" fill="#960096"/>
<path d="M116.952 23.0833C112.38 23.0833 108.677 26.7861 108.677 31.361C108.677 35.9359 112.38 39.6359 116.952 39.6359C121.524 39.6359 125.23 35.933 125.23 31.361C125.23 26.7889 121.527 23.0833 116.952 23.0833ZM116.952 36.8051C113.904 36.8051 111.508 34.409 111.508 31.361C111.508 28.3129 113.904 25.9168 116.952 25.9168C120 25.9168 122.396 28.3101 122.396 31.361C122.396 34.4118 120 36.8051 116.952 36.8051Z" fill="#960096"/>
</svg>
