<svg width="62" height="50" viewBox="0 0 62 50" fill="none" xmlns="http://www.w3.org/2000/svg">
<path d="M7.50556 16.1347C5.32525 16.1347 3.14494 16.1347 0.964624 16.1281C0.171184 16.1281 0.00853978 15.9676 0.00634189 15.1852C-0.00244969 10.6993 -0.00244969 6.27272 0.00853978 2.02639C0.00853978 1.27471 0.171184 1.11206 0.91627 1.10987C3.10537 1.10327 5.29228 1.10107 7.48138 1.10107C9.67049 1.10107 11.8794 1.10327 14.0795 1.10767C14.8663 1.10767 15.0268 1.27031 15.029 2.05936C15.0355 3.61547 15.0333 5.17158 15.0333 6.72549V8.63766V10.5059C15.0333 12.0488 15.0355 13.5917 15.0312 15.1346C15.029 15.9896 14.8905 16.1281 14.0487 16.1303C11.8684 16.1347 9.68807 16.1347 7.50776 16.1347H7.50556ZM1.35145 14.7742H13.6751V2.48135H1.34926V14.7742H1.35145Z" fill="white"/>
<path d="M30.3082 50.0001C25.5146 50.0001 21.6023 46.0901 21.587 41.2877C21.5716 36.5006 25.4684 32.5752 30.273 32.54H30.339C35.1348 32.54 39.0382 36.4721 39.0426 41.3052C39.0426 43.6196 38.1349 45.7999 36.4821 47.4462C34.8293 49.0946 32.638 50.0001 30.3126 50.0001H30.3082ZM30.2884 33.9137C26.2992 33.9379 22.9453 37.3161 22.9672 41.2921C22.9892 45.3208 26.2861 48.5979 30.3192 48.5979C32.2973 48.5935 34.1369 47.8242 35.5172 46.4351C36.8975 45.0461 37.6536 43.202 37.6448 41.2415C37.6272 37.2018 34.3479 33.9137 30.3324 33.9137H30.2884Z" fill="white"/>
<path d="M52.9264 16.1325H48.3174C47.2514 16.1347 46.1854 16.1325 45.1195 16.1304C44.6249 16.1304 44.2755 16.0205 44.1656 15.8336C44.0579 15.6512 44.1282 15.3017 44.359 14.8797L44.6777 14.2951C47.1261 9.8114 49.6603 5.17604 52.1945 0.641785C52.3791 0.312101 52.8275 0.00879158 53.0539 0C53.1923 0 53.5967 0.316497 53.7814 0.646181C56.1815 4.95186 58.5882 9.34984 60.9157 13.6028L61.5773 14.8138C61.8015 15.2226 61.8564 15.5787 61.7311 15.7941C61.6081 16.0051 61.2762 16.126 60.8212 16.1304C59.7201 16.1369 58.6189 16.1391 57.5178 16.1391C56.7727 16.1391 52.933 16.1347 52.933 16.1347L52.9264 16.1325ZM46.0338 14.7852H60.1025L53.0648 1.93635L46.036 14.7852H46.0338Z" fill="white"/>
<path d="M34.5874 12.1986C34.3237 12.1986 34.0973 12.0645 34.0248 11.8667C33.8533 11.4029 33.9654 11.0952 34.3852 10.871C35.1743 10.4468 35.9853 10.0249 36.7677 9.61604C37.104 9.44021 37.4381 9.26658 37.7744 9.09075L38.7942 8.55666L37.6777 8.27533C34.8929 7.572 32.0555 7.21594 29.2487 7.21594C26.9717 7.21594 24.6485 7.44892 22.343 7.91268C22.1825 7.94564 22.0353 7.96103 21.9078 7.96103C21.4924 7.96103 21.299 7.80498 21.2198 7.40276C21.1649 7.12803 21.2462 7.00714 21.2726 6.96978C21.3869 6.80054 21.6638 6.66867 22.0704 6.58954C24.5782 6.10601 27.108 5.86204 29.5872 5.86204C32.2533 5.86204 34.9413 6.14557 37.5766 6.70383C37.6887 6.72801 37.7898 6.7346 37.9194 6.74559C37.9832 6.74999 38.0579 6.75658 38.1458 6.76537L39.0228 6.85329L37.9502 5.08618C37.493 4.33011 37.0513 3.6026 36.6073 2.8795C36.2776 2.33881 36.3985 2.06847 36.6842 1.8289C36.8051 1.7278 36.9392 1.67285 37.0732 1.67285C37.2711 1.67285 37.4579 1.79374 37.5985 2.01133C38.814 3.89712 40.0734 5.9082 41.3438 7.994C41.4229 8.12587 41.5086 8.32148 41.4559 8.5127C41.4009 8.71271 41.2185 8.84678 41.0756 8.92371C38.9349 10.0754 36.937 11.1172 34.9677 12.1129C34.849 12.1744 34.7171 12.2052 34.5896 12.2052L34.5874 12.1986Z" fill="white"/>
<path d="M15.2185 39.2347C15.1834 39.2303 15.0339 39.1819 14.6471 38.7292C11.3986 34.929 8.93037 30.4893 7.30832 25.5374L6.72808 23.7637L4.62909 27.5946C4.2972 28.1991 3.98291 28.5177 3.72136 28.5177C3.63344 28.5177 3.53453 28.4848 3.42464 28.4188C3.16089 28.2628 2.83121 28.0672 3.45541 26.9419L4.06862 25.8363C4.83349 24.456 5.60056 23.0758 6.36982 21.6999C6.6995 21.1108 6.88193 21.1108 6.95886 21.1108C7.10831 21.1108 7.3303 21.2032 7.61383 21.3878C9.25346 22.4428 11.0096 23.5879 12.9811 24.8868C13.7591 25.4011 13.524 25.7704 13.4229 25.9286C13.247 26.2034 13.0624 26.2363 12.9393 26.2363C12.7481 26.2363 12.5085 26.1462 12.247 25.977C11.5481 25.5242 10.8557 25.0671 10.1612 24.6099L8.09297 23.2604C8.09297 23.2604 8.91059 26.0363 9.17433 26.6825C9.77656 28.1573 10.4008 29.6826 11.2052 31.0915C12.2294 32.8828 13.4426 34.5927 14.6141 36.2477C15.0273 36.8302 15.4383 37.4104 15.8427 37.9973C16.2713 38.6193 16.1966 38.7907 16.0625 38.938C15.9131 39.1028 15.5438 39.2413 15.2559 39.2413H15.2141L15.2185 39.2347Z" fill="white"/>
<path d="M45.1519 39.3841C44.6574 39.3841 44.5739 38.894 44.5607 38.683C44.4244 36.5181 44.2948 34.2278 44.1695 31.8739C44.1541 31.5662 44.2156 31.2431 44.7959 31.1772C44.82 31.175 44.8464 31.1728 44.8706 31.1728C45.2618 31.1728 45.4289 31.542 45.4574 31.8871C45.4992 32.4454 45.5322 33.0146 45.5651 33.5663C45.5871 33.9355 45.6091 34.3048 45.6333 34.674C45.6465 34.8872 45.6706 35.0982 45.697 35.3664C45.7102 35.5026 45.7278 35.6521 45.7432 35.8257L45.8509 36.9247L46.5278 36.0521C46.6267 35.9224 46.7146 35.8147 46.7894 35.718C46.9322 35.5378 47.0443 35.3971 47.1498 35.2455C49.917 31.2717 51.8577 26.933 52.9215 22.3526C52.9347 22.2999 52.9501 22.2493 52.9654 22.1966C52.9808 22.1482 52.994 22.0999 53.0072 22.0493C53.1083 21.6691 53.3105 21.2163 53.7017 21.2163C53.7589 21.2163 53.8226 21.2251 53.8886 21.2427C54.0314 21.28 54.4622 21.3899 54.26 22.3284C53.1984 27.2781 51.1324 31.9728 48.1213 36.2873C48.029 36.417 47.9389 36.5488 47.8202 36.7225L47.0289 37.8698L48.9697 37.5906C49.6884 37.4873 50.3543 37.3906 51.0203 37.2961L51.2269 37.2653C51.506 37.2236 51.7676 37.1862 52.0247 37.1818C52.5391 37.1818 52.6446 37.4609 52.6819 37.7027C52.7105 37.8983 52.7259 38.3621 52.2313 38.439C49.6972 38.828 47.4114 39.1357 45.2442 39.3797C45.2113 39.3841 45.1783 39.3863 45.1475 39.3863L45.1519 39.3841Z" fill="white"/>
</svg>
