<svg width="51" height="50" viewBox="0 0 51 50" fill="none" xmlns="http://www.w3.org/2000/svg">
<path d="M30.9567 19.9137C28.6083 15.7391 24.2608 13.1309 19.5653 13.1309C14.8697 13.1309 10.5223 15.7391 8.17391 19.9137C8.08689 20.0877 8.08689 20.2618 8.17391 20.4347C10.5223 24.6093 14.8697 27.2175 19.5653 27.2175C24.2608 27.2175 28.6083 24.6093 30.9567 20.4347C31.0437 20.2606 31.0437 20.0877 30.9567 19.9137ZM19.5653 26.1744C15.3919 26.1744 11.4783 23.9143 9.30517 20.1748C11.4795 16.5223 15.3919 14.1739 19.5653 14.1739C23.7387 14.1739 27.6523 16.4341 29.8266 20.1748C27.6523 23.8273 23.7399 26.1744 19.5653 26.1744Z" fill="white"/>
<path d="M50.0011 47.9139H46.2616C48.61 46.0876 48.784 42.6092 46.7837 40.5219L35.2183 28.8694C38.0876 23.6518 38.1746 17.5639 35.7393 12.3474C36.6095 12.7825 37.5655 13.0436 38.6086 13.0436C42.174 13.0436 45.1304 10.0873 45.1304 6.52179C45.1304 2.95633 42.174 0 38.6086 0C34.695 0 31.6517 3.39143 32.1738 7.39081C28.7824 4.08641 24.3479 2.17315 19.5653 2.17315C9.91316 2.17432 1.73917 9.8262 1.65215 19.9993C1.56513 28.3485 7.04385 35.1302 14.3488 37.3033C11.7394 38.1735 9.82614 40.6089 9.82614 43.4782C9.82614 47.0425 12.7825 50 16.3479 50C19.9134 50 22.8697 47.0425 22.8697 43.4782C22.8697 41.2169 21.7396 39.2166 19.9134 37.9995C22.8697 37.9125 25.739 37.1305 28.2614 35.7393C40.5218 47.9997 39.9139 47.3918 40.349 47.8269H28.2614C28.0015 47.8269 27.7405 48.0867 27.7405 48.3478C27.7405 48.6089 28.0015 48.8687 28.2614 48.8687H50.0011C50.261 48.8687 50.5221 48.6089 50.5221 48.3478C50.6091 48.0867 50.348 47.9127 50.0011 47.9127V47.9139ZM31.8269 37.8266L37.2186 32.4349L38.7838 34.0001L33.3921 39.3918L31.8269 37.8266ZM38.6086 1.13008C41.5649 1.13008 44.0861 3.56546 44.0861 6.60763C44.0861 9.6498 41.6519 11.9993 38.6086 11.9993C35.5652 11.9993 33.1298 9.56396 33.1298 6.52179C33.1298 3.47962 35.6511 1.13008 38.6086 1.13008ZM21.7385 43.5652C21.7385 46.5216 19.3031 49.044 16.2597 49.044C13.2164 49.044 10.7822 46.6086 10.7822 43.5652C10.7822 40.5219 13.2176 38.0865 16.2597 38.0865C19.3019 38.0865 21.7385 40.5219 21.7385 43.5652ZM28.0862 34.6951C25.478 36.2603 22.5205 37.0434 19.5641 37.0434C10.4341 37.0434 2.69403 29.6514 2.78223 20.0863C2.86925 10.4353 10.6081 3.39143 19.5653 3.39143C24.088 3.39143 28.2614 5.13065 31.4788 8.34803C36.9575 13.8268 38.0006 22.1736 34.0882 28.7836C34 28.9576 34 29.3045 34.1753 29.4798L36.5224 31.8269L31.1307 37.2187L28.7835 34.7833C28.6095 34.6092 28.3484 34.5234 28.0874 34.6963L28.0862 34.6951ZM34.1729 40.1726L39.5646 34.7809L46.0864 41.3027C47.5646 42.7821 47.5646 45.2163 46.0864 46.6944C44.6082 48.1738 42.1729 48.1738 40.6947 46.6944L34.1729 40.1726Z" fill="white"/>
<path d="M42.4348 19.0444C42.4348 20.8706 43.913 22.3488 45.7392 22.3488C47.5655 22.3488 49.0436 20.8706 49.0436 19.0444C49.0436 17.2181 47.5655 15.7388 45.7392 15.7388C43.913 15.7388 42.4348 17.304 42.4348 19.0444ZM45.6522 16.87C46.8693 16.87 47.8265 17.8261 47.8265 19.0444C47.8265 20.2626 46.8693 21.2187 45.6522 21.2187C44.4351 21.2187 43.4779 20.2615 43.4779 19.0444C43.4779 17.8272 44.5209 16.87 45.6522 16.87Z" fill="white"/>
<path d="M2.17432 31.0439C0.957219 31.0439 0 32.0012 0 33.2183C0 34.4354 0.957219 35.3926 2.17432 35.3926C3.39143 35.3926 4.34864 34.4354 4.34864 33.2183C4.34864 32.0012 3.39143 31.0439 2.17432 31.0439ZM2.17432 34.2613C1.56518 34.2613 1.04424 33.7392 1.04424 33.1312C1.04424 32.5233 1.56518 32.0012 2.17432 32.0012C2.78346 32.0012 3.30441 32.5221 3.30441 33.1312C3.30441 33.8274 2.78346 34.2613 2.17432 34.2613Z" fill="white"/>
<path d="M27.4783 40.8701C27.9099 40.8701 28.2603 41.2206 28.2603 41.6521C28.2603 42.0837 27.9099 42.4353 27.4783 42.4353C27.0467 42.4353 26.6963 42.0849 26.6963 41.6521C26.6963 41.2194 27.0467 40.8701 27.4783 40.8701Z" fill="white"/>
<path d="M41.6531 25.043C42.0846 25.043 42.4351 25.3934 42.4351 25.825C42.4351 26.2565 42.0846 26.6082 41.6531 26.6082C41.2215 26.6082 40.8699 26.2577 40.8699 25.825C40.8699 25.3922 41.2203 25.043 41.6531 25.043Z" fill="white"/>
<path d="M4.69558 3.91357C5.12715 3.91357 5.47758 4.26401 5.47758 4.69558C5.47758 5.12715 5.12715 5.47758 4.69558 5.47758C4.26401 5.47758 3.91357 5.12715 3.91357 4.69558C3.91357 4.26401 4.26401 3.91357 4.69558 3.91357Z" fill="white"/>
<path d="M8.43508 37.0449C8.86665 37.0449 9.21826 37.3954 9.21826 37.8269C9.21826 38.2585 8.86665 38.6089 8.43508 38.6089C8.00351 38.6089 7.65308 38.2585 7.65308 37.8269C7.65308 37.3954 8.00351 37.0449 8.43508 37.0449Z" fill="white"/>
<path d="M33.1312 20.1746C33.1312 12.6956 27.0445 6.60889 19.5655 6.60889C12.0865 6.60889 6.00098 12.6956 6.00098 20.1746C6.00098 27.6536 12.0877 33.7391 19.5655 33.7391C27.0433 33.7391 33.1312 27.6524 33.1312 20.1746ZM19.5655 32.6961C12.6956 32.6961 7.04286 27.1303 7.04286 20.1746C7.04286 13.2189 12.6086 7.65195 19.5655 7.65195C26.5224 7.65195 32.087 13.2165 32.087 20.1746C31.9999 27.0445 26.4342 32.6961 19.5655 32.6961Z" fill="white"/>
<path d="M19.5651 15.3037C16.8699 15.3037 14.6956 17.478 14.6956 20.1733C14.6956 22.8686 16.8699 25.0429 19.5651 25.0429C22.2604 25.0429 24.4347 22.8686 24.4347 20.1733C24.5218 17.4769 22.2604 15.3037 19.5651 15.3037ZM19.5651 23.9998C17.4778 23.9998 15.7398 22.2606 15.7398 20.1745C15.7398 18.0883 17.4778 16.348 19.5651 16.348C21.6524 16.348 23.3917 18.0872 23.3917 20.1745C23.3917 22.2618 21.6524 23.9998 19.5651 23.9998Z" fill="white"/>
<path d="M19.5654 17.478C18.0872 17.478 16.8701 18.6963 16.8701 20.1745C16.8701 21.6526 18.0872 22.8697 19.5654 22.8697C21.0435 22.8697 22.2618 21.6526 22.2618 20.1745C22.2618 18.6963 21.1317 17.478 19.5654 17.478ZM18.0002 20.1745C18.0002 19.3043 18.6964 18.5223 19.6524 18.5223C20.6084 18.5223 21.3916 19.3925 21.2176 20.4355C21.0435 20.0886 20.6955 19.9146 20.2604 19.9146C19.6512 19.9146 19.1303 20.4355 19.1303 21.0447C19.1303 21.3927 19.2173 21.6538 19.4784 21.8267C18.6964 21.7397 18.0002 21.0447 18.0002 20.1745Z" fill="white"/>
<path d="M37.0448 7.47804L36.5227 8.5211C37.0448 8.86918 37.8268 9.13024 38.436 9.13024V9.99926H38.9569V9.13024C39.6531 9.13024 40.261 8.86918 40.6091 8.26121C40.7832 7.91313 40.7832 7.304 40.6091 6.95709C40.5209 6.69603 40.261 6.43615 39.7389 6.17509C39.3038 6.00105 38.8699 5.91403 38.7829 5.91403V4.87096C39.3038 4.95798 39.913 5.30606 40 5.39308L40.5209 4.35002C40.3481 4.263 40.0858 4.08896 39.8248 4.00194C39.5649 3.91492 39.2168 3.8279 38.9557 3.8279V3.0459H38.4348V3.8279C37.7386 3.91492 37.1307 4.17598 36.8696 4.87096C36.6956 5.21904 36.6956 5.74116 36.7826 6.08924C36.8696 6.43732 37.1307 6.61019 37.4787 6.7854C37.9138 6.95944 38.2608 7.04529 38.436 7.13231V8.08953C37.8268 8.00251 37.1318 7.56858 37.0448 7.48039V7.47804ZM38.8711 7.21815C39.0451 7.30517 39.2191 7.30517 39.3062 7.39219C39.3932 7.47921 39.4802 7.56623 39.4802 7.65325C39.4802 7.91431 39.3062 8.00133 38.8711 8.08835V7.21933V7.21815ZM38.0891 5.65297C38.0009 5.56595 38.0009 5.47893 38.0009 5.39308C38.0009 5.13203 38.1749 4.95798 38.523 4.95798V5.82818C38.3489 5.74116 38.1749 5.74116 38.0879 5.65414L38.0891 5.65297Z" fill="white"/>
<path d="M36.0872 9.82654C36.2613 9.6525 36.2613 9.3056 36.0872 9.04454C34.6961 7.6534 34.6961 5.39205 36.0872 4.00091C36.2613 3.82687 36.2613 3.47879 36.0872 3.21891C35.9144 3.04487 35.5663 3.04487 35.3052 3.21891C33.479 5.04515 33.479 8.00148 35.3052 9.82772C35.5663 10.0888 35.9144 10.0888 36.0872 9.82772V9.82654Z" fill="white"/>
<path d="M41.5648 9.99932C41.7389 9.99932 41.8259 9.9123 41.9129 9.82528C43.7392 7.99904 43.7392 5.04271 41.9129 3.21647C41.7389 3.04243 41.392 3.04243 41.1309 3.21647C40.9569 3.39051 40.9569 3.73741 41.1309 3.99847C42.522 5.38961 42.522 7.65096 41.1309 9.0421C40.7828 9.39018 41.0439 9.99814 41.566 9.99814L41.5648 9.99932Z" fill="white"/>
<path d="M16.1739 40.087V40.869C15.4778 40.956 14.8698 41.2171 14.6087 41.9121C14.4347 42.2602 14.4347 42.7823 14.5217 43.1304C14.6087 43.4784 14.8698 43.6513 15.2179 43.8253C15.653 43.9994 15.9999 44.0864 16.1751 44.1746V45.0436C15.4789 44.9566 14.7839 44.6085 14.6969 44.4345L14.1748 45.4776C14.6969 45.8256 15.4789 46.0867 16.0881 46.0867V46.9557H16.609V46.0867C17.3052 46.0867 17.9131 45.8256 18.2612 45.2165C18.4353 44.8684 18.4353 44.2605 18.2612 43.9124C18.173 43.6513 17.9131 43.3902 17.391 43.1304C16.9559 42.9563 16.522 42.8693 16.4338 42.8693V41.8262C16.9559 41.9133 17.5651 42.2613 17.6521 42.3472L18.173 41.3041C17.999 41.2171 17.7379 41.0442 17.4769 40.956C17.217 40.869 16.8689 40.782 16.6078 40.782V40L16.1727 40.087H16.1739ZM16.2609 42.7835C16.0881 42.6964 15.9999 42.6964 15.9129 42.6094C15.7388 42.5224 15.7388 42.4354 15.7388 42.2613C15.7388 42.0003 15.9129 41.8262 16.2598 41.8262V42.7835H16.2609ZM16.9571 44.3486C17.0441 44.4357 17.13 44.5215 17.13 44.6097C17.13 44.8696 16.9571 44.9578 16.522 45.0448V44.1758C16.7831 44.1758 16.8701 44.2628 16.9571 44.3498V44.3486Z" fill="white"/>
<path d="M13.8258 40.2619C13.6517 40.0878 13.3048 40.0878 13.0438 40.2619C11.2175 42.0881 11.2175 45.0444 13.0438 46.8707C13.1308 46.9577 13.3048 47.0447 13.3918 47.0447C13.9128 47.0447 14.088 46.4368 13.7399 46.0887C12.3488 44.6975 12.3488 42.4362 13.7399 41.0451C14.001 40.784 14.001 40.4359 13.8269 40.2631L13.8258 40.2619Z" fill="white"/>
<path d="M19.2173 46.9564C19.3913 46.9564 19.4783 46.8694 19.5654 46.7824C21.3916 44.9562 21.3916 41.9987 19.5654 40.1736C19.3913 40.0007 19.0444 40.0007 18.7834 40.1736C18.6093 40.3476 18.6093 40.6957 18.7834 40.9556C20.1745 42.3467 20.1745 44.6081 18.7834 46.0004C18.6093 46.2603 18.7834 46.9564 19.2185 46.9564H19.2173Z" fill="white"/>
</svg>
