<svg width="46" height="50" viewBox="0 0 46 50" fill="none" xmlns="http://www.w3.org/2000/svg">
<path d="M0 0V3.96534H24.0425V0H0ZM23.0408 2.96374H1.0016V1.0016H23.0408V2.96374Z" fill="white"/>
<path d="M6.0415 6.69043V10.6107H30.0379V6.69043H6.0415ZM29.0363 9.6091H7.04311V7.69203H29.0363V9.6091Z" fill="white"/>
<path d="M0.0141602 13.3359V17.156H24.0115V13.3359H0.0141602ZM23.0099 16.1544H1.01576V14.3375H23.0099V16.1544Z" fill="white"/>
<path d="M24.0426 19.8809H0.0222168V23.726C0.113363 23.741 0.161439 23.7561 0.209516 23.7561C7.21672 23.7581 14.2249 23.7591 21.2321 23.7521C21.4014 23.7521 21.5897 23.6809 21.7349 23.5898C22.4261 23.1561 23.1081 22.7084 23.7852 22.2527C23.8944 22.1795 24.0276 22.0423 24.0316 21.9311C24.0537 21.2531 24.0426 20.574 24.0426 19.8809ZM23.039 21.5475C22.375 21.9922 21.773 22.3839 21.2021 22.7414C21.1961 22.7454 21.1901 22.7484 21.1851 22.7504C17.0755 22.7545 12.9659 22.7555 8.85635 22.7555C6.24517 22.7555 3.63399 22.7555 1.02282 22.7545V20.8825H23.043C23.043 21.1068 23.043 21.3272 23.038 21.5475H23.039Z" fill="white"/>
<path d="M0.0258789 26.4834V30.2484H0.637858C5.45757 30.2484 10.2783 30.2264 15.098 30.2705C15.9333 30.2775 16.5052 30.1513 16.7086 29.2669C16.7406 29.1266 16.8378 28.9974 16.9159 28.8702C17.4027 28.081 17.8925 27.2937 18.3953 26.4834H0.0258789ZM16.0635 28.3444C16.0505 28.3654 16.0375 28.3854 16.0255 28.4045C15.9343 28.5457 15.7971 28.76 15.733 29.0425C15.708 29.1497 15.6829 29.1997 15.6729 29.2168C15.6399 29.2318 15.5197 29.2689 15.1601 29.2689H15.107C13.0197 29.2498 10.7841 29.2408 7.86041 29.2408C6.65648 29.2408 5.45156 29.2418 4.24763 29.2438C3.17391 29.2448 2.1012 29.2458 1.02748 29.2468V27.485H16.5954C16.4171 27.7725 16.2408 28.0579 16.0635 28.3444Z" fill="white"/>
<path d="M16.8169 43.2712C16.7408 43.0909 16.6717 42.9437 16.6156 42.7925C16.268 41.858 15.8914 40.9325 15.5939 39.982C15.4727 39.5933 15.3295 39.4721 14.9199 39.4732C10.1332 39.4892 5.34555 39.4832 0.558894 39.4832H0.0390625V43.2712H16.8179H16.8169ZM1.04066 42.2696V40.4848H6.70673C9.0645 40.4848 11.848 40.4848 14.7005 40.4758C14.8988 41.0877 15.1252 41.6867 15.3475 42.2696H1.04066Z" fill="white"/>
<path d="M0.0239258 32.9961V36.7491H14.9688C15.075 35.4831 15.1802 34.2471 15.2853 32.9961H0.0239258ZM14.0484 35.7475H1.02553V33.9977H14.1956C14.1956 33.9977 14.0804 35.3589 14.0474 35.7475H14.0484Z" fill="white"/>
<path d="M43.9385 31.1202C41.9483 26.62 38.4357 23.9067 33.5479 23.1394C29.4934 22.5024 25.8225 23.5431 22.7636 26.2594C18.5369 30.0124 17.1036 34.752 18.594 40.2017C19.7608 44.4695 22.5663 47.4363 26.6879 49.0519C27.9129 49.5316 29.262 49.6929 30.5541 50.0004H32.5573C33.0821 49.9153 33.612 49.8512 34.1318 49.742C38.2153 48.8806 41.3494 46.659 43.3656 43.0122C45.489 39.1721 45.7123 35.1306 43.9385 31.1202ZM42.4892 42.5274C40.6502 45.8538 37.7686 47.9511 33.9255 48.7614C33.601 48.8295 33.2664 48.8796 32.9119 48.9327C32.7666 48.9537 32.6224 48.9758 32.4782 48.9988H30.6703C30.2837 48.9097 29.896 48.8315 29.5194 48.7564C28.641 48.5811 27.8107 48.4149 27.0535 48.1184C23.1472 46.5869 20.6262 43.8345 19.5605 39.9363C18.1743 34.8672 19.4754 30.5172 23.4287 27.0076C25.7073 24.9844 28.3486 23.9587 31.2812 23.9587C31.9673 23.9587 32.6775 24.0158 33.3926 24.128C37.9269 24.8401 41.1671 27.3281 43.023 31.5248C44.6596 35.2248 44.4804 38.9267 42.4892 42.5274Z" fill="white"/>
<path d="M33.2093 33.5125C33.1792 33.3963 33.1502 33.2701 33.1121 33.1469C32.8837 32.4067 32.1946 31.95 31.4705 32.0582C30.7313 32.1694 30.1734 32.8124 30.1764 33.5506C30.1794 34.3108 30.7463 34.9608 31.5316 35.0309C32.3519 35.1051 33.1512 35.2142 33.8773 35.6439C35.4198 36.5574 36.2071 37.9286 36.161 39.6984C36.1149 41.4602 35.2275 42.7663 33.652 43.5566C33.2794 43.7429 33.1542 43.9382 33.1682 44.3388C33.1983 45.1862 33.1772 46.0365 33.1772 46.92H30.1714C30.1714 46.0426 30.1524 45.1792 30.1804 44.3178C30.1924 43.9382 30.0883 43.7439 29.7247 43.5666C28.0971 42.7723 27.2838 41.4232 27.1626 39.5912H30.1474C30.3918 40.6429 31.0718 41.1898 31.9242 41.0345C32.6624 40.9003 33.1982 40.2433 33.1732 39.5051C33.1472 38.7429 32.5712 38.1279 31.775 38.0638C30.9697 37.9987 30.1894 37.8785 29.4783 37.4588C27.9348 36.5474 27.1406 35.1782 27.1896 33.4083C27.2397 31.6295 28.1301 30.3104 29.7377 29.5241C30.0733 29.3609 30.1944 29.1886 30.1814 28.817C30.1504 27.9366 30.1714 27.0542 30.1714 26.1367H33.1772C33.1772 27.0472 33.1932 27.9446 33.1692 28.84C33.1602 29.1856 33.2674 29.3559 33.5879 29.5111C35.2345 30.3114 36.0668 31.6616 36.189 33.5125H33.2093Z" fill="white"/>
</svg>
