<svg width="39" height="50" viewBox="0 0 39 50" fill="none" xmlns="http://www.w3.org/2000/svg">
<path d="M38.4564 41.3876C38.1839 39.6858 37.0242 38.503 35.7269 37.4781C33.5902 35.7922 31.1273 34.7065 28.6282 33.6918C27.6932 33.312 26.7597 32.9191 25.858 32.4668C24.7621 31.9174 24.2171 31.0274 24.4273 29.7619C24.4403 29.6793 24.4287 29.5923 24.4287 29.472C23.514 29.472 22.6312 29.4908 21.7513 29.4676C20.122 29.427 18.8376 28.1166 18.8217 26.5076C18.8058 24.8869 20.1089 23.5431 21.7615 23.4939C22.4297 23.4736 23.1081 23.4257 23.7663 23.5055C24.3606 23.5779 24.9346 23.8099 25.5188 23.9693C25.6855 24.0143 25.8624 24.1143 26.0175 24.0882C26.5509 23.9998 27.0858 23.8939 27.6019 23.7388C27.7932 23.6809 28.0107 23.5011 28.0933 23.3199C29.5588 20.1409 30.1909 16.8272 29.5313 13.3496C28.8587 9.79374 27.0163 7.11344 23.5546 5.74503C21.7354 5.02603 19.8321 4.89267 17.8998 5.1362C14.1989 5.60297 11.4998 7.4657 9.97627 10.9056C8.87748 13.3858 8.8224 15.9937 9.19784 18.6247C9.66171 21.8732 11.0896 24.7028 13.0697 27.2831C13.4539 27.7832 13.8452 28.292 14.1294 28.8501C14.7367 30.0417 14.3946 31.297 13.2929 32.045C12.9233 32.2958 12.5 32.4726 12.0956 32.6727C10.0082 33.7004 7.89466 34.6789 5.83768 35.7632C4.28662 36.5808 2.81528 37.5491 1.61647 38.8639C0.136431 40.4874 -0.333237 42.3893 0.232104 44.4956C0.690176 46.2032 2.00061 47.1759 3.51543 47.8905C5.51442 48.8357 7.66272 49.2387 9.83276 49.5358C13.3567 50.0185 16.901 50.0084 20.4467 49.9968C24.1939 49.9837 27.9324 49.8518 31.6173 49.0966C33.4119 48.7284 35.163 48.2225 36.6908 47.1541C37.6084 46.512 38.3753 45.6958 38.5014 44.5623C38.6174 43.5171 38.6188 42.427 38.4535 41.392L38.4564 41.3876ZM37.6882 44.468C37.607 45.1972 37.1417 45.835 36.2226 46.4772C34.7368 47.5165 32.9784 47.9761 31.4549 48.2892C27.7657 49.0444 23.9837 49.1604 20.4467 49.1734C19.906 49.1749 19.3667 49.1778 18.826 49.1778C15.4992 49.1778 12.716 49.0995 9.94583 48.7211C7.9367 48.4457 5.81014 48.0659 3.86769 47.1469C2.22675 46.3714 1.35119 45.4871 1.02648 44.281C0.530721 42.4343 0.922111 40.844 2.22385 39.4162C3.20667 38.3377 4.47652 37.4085 6.22038 36.4895C7.61634 35.7531 9.06883 35.0529 10.472 34.3745C11.1345 34.0542 11.797 33.7338 12.458 33.4091C12.5493 33.3641 12.6421 33.3207 12.7349 33.2757C13.0712 33.1163 13.4191 32.951 13.7539 32.7234C15.2079 31.7362 15.6529 30.0286 14.86 28.4747C14.5425 27.8528 14.1279 27.3135 13.7264 26.7902C11.6303 24.0577 10.4155 21.3514 10.0096 18.5073C9.59213 15.5921 9.81972 13.2829 10.7257 11.2375C12.1043 8.12381 14.4845 6.39445 17.9998 5.95087C18.555 5.88129 19.1 5.84505 19.6204 5.84505C20.9338 5.84505 22.1224 6.06249 23.2502 6.50751C26.2668 7.70053 28.0556 9.98799 28.721 13.5004C29.3052 16.5836 28.8587 19.6727 27.3584 22.943C27.3526 22.9474 27.3468 22.9532 27.341 22.9561C26.9568 23.0706 26.5335 23.1648 25.9812 23.259C25.9696 23.2547 25.958 23.2503 25.9464 23.246C25.874 23.2199 25.8029 23.1952 25.7319 23.1749C25.5652 23.1286 25.3971 23.0764 25.2188 23.0213C24.7897 22.8865 24.3461 22.7473 23.8619 22.6893C23.5822 22.6545 23.2763 22.6386 22.9269 22.6386C22.6457 22.6386 22.366 22.6487 22.0949 22.6589C21.9746 22.6632 21.8528 22.6676 21.7325 22.6719C19.6509 22.7328 17.9751 24.4578 17.9954 26.5148C18.0157 28.579 19.6552 30.2359 21.7267 30.2881C22.0311 30.2954 22.3573 30.2997 22.7486 30.2997C23.0168 30.2997 23.2864 30.2983 23.5575 30.2968C23.5648 31.5565 24.233 32.5727 25.4855 33.2003C26.4234 33.6715 27.4004 34.0802 28.3151 34.4513C30.6576 35.4037 33.1205 36.4706 35.2137 38.1217C36.3342 39.006 37.4026 40.0279 37.6418 41.5152C37.7867 42.4227 37.8012 43.4156 37.6838 44.4651L37.6882 44.468Z" fill="white"/>
<path d="M2.08911 19.9653C2.08911 19.1332 2.08186 18.3012 2.09056 17.4691C2.1007 16.5182 2.49789 15.7716 3.27487 15.2106C3.43288 15.0961 3.57639 14.8555 3.59089 14.6627C4.12289 7.32339 9.73426 1.24814 16.9866 0.172545C25.616 -1.106 33.6656 4.85908 34.9471 13.4813C34.963 13.5885 34.9674 13.6973 34.976 13.806C35.0326 14.4989 35.0891 15.1353 35.7965 15.5919C36.3749 15.9644 36.5691 16.6733 36.5764 17.3676C36.5923 19.1216 36.6126 20.8771 36.5749 22.6297C36.5329 24.5605 34.6122 25.739 32.8046 24.9997C32.6248 24.9258 32.3349 24.8983 32.1899 24.9939C30.2083 26.3 28.0006 26.9045 25.6755 27.1843C25.4725 27.2089 25.2884 27.3814 25.0898 27.4756C24.6796 27.6699 24.2824 27.9642 23.8519 28.025C23.1966 28.1178 22.5168 28.0613 21.8485 28.0468C20.9643 28.0265 20.3192 27.409 20.2815 26.5711C20.2438 25.7187 20.8063 25.0229 21.692 24.9534C22.4646 24.8925 23.2459 24.9142 24.0215 24.949C24.2766 24.9606 24.6042 25.0505 24.7622 25.2273C25.1333 25.6376 25.545 25.6303 26.0234 25.5564C27.789 25.2839 29.4748 24.791 31.0114 23.8473C31.2926 23.6748 31.3796 23.5255 31.3187 23.1631C31.2201 22.5818 31.252 21.9759 31.2491 21.3787C31.2419 20.1494 31.2665 18.9187 31.2404 17.6894C31.2187 16.6312 31.5753 15.7934 32.4624 15.1802C32.5915 15.0918 32.6683 14.8149 32.648 14.6395C32.1261 9.87758 29.8039 6.25214 25.587 3.98643C17.5026 -0.363804 7.51784 4.67498 6.11463 13.7436C6.09288 13.8857 6.10593 14.0365 6.06824 14.1742C5.91314 14.7308 6.02185 15.1208 6.55096 15.4832C7.13514 15.8847 7.40912 16.5486 7.41347 17.2763C7.42361 19.0666 7.44101 20.8568 7.41347 22.6471C7.39172 24.1329 6.23205 25.2215 4.75056 25.2143C3.27777 25.207 2.13259 24.1039 2.0949 22.6239C2.07171 21.7382 2.09056 20.8525 2.08911 19.9653Z" fill="white"/>
</svg>
