<svg width="50" height="50" viewBox="0 0 50 50" fill="none" xmlns="http://www.w3.org/2000/svg">
<path d="M43.4665 6.88147L43.3795 6.79445C43.3795 6.79445 43.3795 6.70743 43.2925 6.70743C36.3228 -0.261053 36.7591 0.174036 36.672 0.0881938C36.498 0 37.7174 0 10.2786 0C10.0175 0 9.75648 0.261054 9.75648 0.523283V5.40099H5.92416C5.66311 5.40099 5.40088 5.66204 5.40088 5.92427V49.4779C5.40088 49.7389 5.66193 50 5.92416 50H36.411C36.672 50 36.9343 49.7389 36.9343 49.4779V45.6444H42.9444C43.2054 45.6444 43.4677 45.3833 43.4677 45.1223C43.4677 5.31397 43.5547 7.05668 43.4677 6.88147H43.4665ZM37.0201 1.82973L41.7238 6.53457H37.0201V1.82973ZM35.8877 48.9546H6.53329V6.5334H9.84349V45.2081C9.84349 45.4692 10.1045 45.7302 10.3656 45.7302H35.9747V48.9534H35.8877V48.9546ZM10.8877 44.599V1.04539H35.9747V7.05668C35.9747 7.31773 36.2358 7.57879 36.498 7.57879H42.4211V44.599H10.8877Z" fill="white"/>
<path d="M32.3167 31.271C31.6194 31.9684 31.6194 33.1866 32.3167 33.8839C33.014 34.5812 34.2334 34.5812 34.9296 33.8839C35.6269 33.1866 35.6269 31.9684 34.9296 31.271C34.1452 30.5737 33.0128 30.5737 32.3167 31.271ZM34.1464 33.1008C33.8854 33.3618 33.3621 33.3618 33.101 33.1008C32.84 32.8397 32.84 32.3164 33.101 32.0554C33.3621 31.7943 33.8854 31.7943 34.1464 32.0554C34.4075 32.3164 34.4075 32.7527 34.1464 33.1008Z" fill="white"/>
<path d="M36.4112 39.8082C36.0632 40.1562 35.8879 40.5925 35.8879 41.1146C35.8879 42.16 36.6723 42.9443 37.7177 42.9443C38.2409 42.9443 38.676 42.7703 39.0241 42.4211C39.7214 41.7237 39.7214 40.5055 39.0241 39.8082C38.676 39.4601 37.1085 39.1109 36.4112 39.8082ZM37.7177 41.899C37.0203 41.899 36.6723 41.1146 37.1944 40.5925C37.6306 40.1574 38.5008 40.4173 38.5008 41.1146C38.5008 41.2887 38.1528 41.899 37.7165 41.899H37.7177Z" fill="white"/>
<path d="M37.6306 32.2293L31.0972 38.7627C30.3999 39.46 30.3999 40.6783 31.0972 41.3756C31.7945 42.0729 33.014 42.0729 33.7101 41.3756L40.3305 34.7563C41.0267 34.059 41.0267 32.8396 40.3305 32.1435C39.5462 31.4461 38.3267 31.4461 37.6306 32.2305V32.2293ZM39.4603 34.0578L32.8399 40.6783C32.4048 41.1133 31.5335 40.8523 31.5335 40.1561C31.5335 39.9809 31.6205 39.8081 31.7945 39.6329L38.4149 33.0136C38.85 32.5785 39.7214 32.8384 39.7214 33.5357C39.7214 33.7098 39.6344 33.8838 39.4603 34.059V34.0578Z" fill="white"/>
<path d="M35.3657 24.4769C35.6267 24.4769 35.8878 24.2158 35.8878 23.9548V11.4113C35.8878 11.1502 35.6267 10.8892 35.3657 10.8892H32.0555C31.7944 10.8892 31.5322 11.1502 31.5322 11.4113V11.9346H28.8323C28.5712 11.9346 28.309 12.1956 28.309 12.4567V13.5891H25.6091C25.3481 13.5891 25.0858 13.8501 25.0858 14.1123V14.6345H22.3859C22.1249 14.6345 21.8626 14.8955 21.8626 15.1566V16.2901H19.1627C18.9017 16.2901 18.6394 16.5512 18.6394 16.8123V17.9447H15.9395C15.6785 17.9447 15.4163 18.2057 15.4163 18.4679V23.956C15.4163 24.217 15.6773 24.4781 15.9395 24.4781H35.3645L35.3657 24.4769ZM32.6658 11.9346H34.8436V23.3456H32.6658V11.9346ZM16.29 18.9901H18.4678V23.3456H16.29V18.9901ZM19.6002 17.4226H21.778V23.4327H19.6002V17.4226ZM22.8234 15.7669H25.0012V23.4327H22.8234V15.7669ZM26.1336 14.6345H28.3114V23.3456H26.1336V14.6345ZM29.3568 13.067H31.5346V23.4327H29.3568V13.067Z" fill="white"/>
<path d="M25.522 26.6543H15.2433C14.9822 26.6543 14.7212 26.9154 14.7212 27.1776C14.7212 27.4398 14.9822 27.6997 15.2433 27.6997H25.609C25.8701 27.6997 26.1311 27.4386 26.1311 27.1776C26.1311 26.9165 25.8701 26.6543 25.5208 26.6543H25.522Z" fill="white"/>
<path d="M25.522 28.8325H15.2433C14.9822 28.8325 14.7212 29.0936 14.7212 29.3558C14.7212 29.618 14.9822 29.8779 15.2433 29.8779H25.609C25.8701 29.8779 26.1311 29.6169 26.1311 29.3558C26.1311 29.0947 25.8701 28.8325 25.5208 28.8325H25.522Z" fill="white"/>
<path d="M25.522 31.0103H15.2433C14.9822 31.0103 14.7212 31.2713 14.7212 31.5335C14.7212 31.7958 14.9822 32.0556 15.2433 32.0556H25.609C25.8701 32.0556 26.1311 31.7946 26.1311 31.5335C26.1311 31.2725 25.8701 31.0103 25.5208 31.0103H25.522Z" fill="white"/>
<path d="M25.522 33.188H15.2433C14.9822 33.188 14.7212 33.449 14.7212 33.7113C14.7212 33.9735 14.9822 34.2334 15.2433 34.2334H25.609C25.8701 34.2334 26.1311 33.9723 26.1311 33.7113C26.1311 33.4502 25.8701 33.188 25.5208 33.188H25.522Z" fill="white"/>
<path d="M25.522 35.3657H15.2433C14.9822 35.3657 14.7212 35.6268 14.7212 35.8878C14.7212 36.1489 14.9822 36.4099 15.2433 36.4099H25.609C25.8701 36.4099 26.1311 36.1489 26.1311 35.8878C26.1311 35.6268 25.8701 35.3657 25.5208 35.3657H25.522Z" fill="white"/>
<path d="M25.522 37.5435H15.2433C14.9822 37.5435 14.7212 37.8045 14.7212 38.0656C14.7212 38.3266 14.9822 38.5877 15.2433 38.5877H25.609C25.8701 38.5877 26.1311 38.3266 26.1311 38.0656C26.1311 37.8045 25.8701 37.5435 25.5208 37.5435H25.522Z" fill="white"/>
<path d="M25.522 39.7212H15.2433C14.9822 39.7212 14.7212 39.9822 14.7212 40.2433C14.7212 40.5044 14.9822 40.7654 15.2433 40.7654H25.609C25.8701 40.7654 26.1311 40.5044 26.1311 40.2433C26.1311 39.9822 25.8701 39.7212 25.5208 39.7212H25.522Z" fill="white"/>
<path d="M2.1778 32.0557C0.958373 32.0557 0 33.014 0 34.2335C0 35.4529 0.958373 36.4113 2.1778 36.4113C3.39722 36.4113 4.3556 35.4541 4.3556 34.2335C4.3556 33.0129 3.31021 32.0557 2.1778 32.0557ZM2.1778 35.3659C1.56867 35.3659 1.04539 34.8426 1.04539 34.2323C1.04539 33.622 1.56867 33.0999 2.1778 33.0999C2.78692 33.0999 3.31021 33.6232 3.31021 34.2323C3.22319 34.8426 2.70108 35.3659 2.1778 35.3659Z" fill="white"/>
<path d="M47.299 12.4565C45.8185 12.4565 44.5991 13.676 44.5991 15.1564C44.5991 16.6369 45.8185 17.8575 47.299 17.8575C48.7795 17.8575 49.9989 16.6381 49.9989 15.1564C49.9989 13.6748 48.7795 12.4565 47.299 12.4565ZM47.299 16.8121C46.4277 16.8121 45.6445 16.1148 45.6445 15.1564C45.6445 14.1981 46.3418 13.5019 47.299 13.5019C48.1704 13.5019 48.9535 14.1993 48.9535 15.1564C48.9535 16.1136 48.2574 16.8121 47.299 16.8121Z" fill="white"/>
<path d="M3.48429 1.04541C3.91703 1.04541 4.26862 1.39701 4.26862 1.82975C4.26862 2.26248 3.91703 2.61408 3.48429 2.61408C3.05155 2.61408 2.69995 2.26248 2.69995 1.82975C2.69995 1.39701 3.05155 1.04541 3.48429 1.04541Z" fill="white"/>
<path d="M2.43888 21.7769C2.87162 21.7769 3.22321 22.1285 3.22321 22.5612C3.22321 22.9939 2.87279 23.3455 2.43888 23.3455C2.00496 23.3455 1.65454 22.9939 1.65454 22.5612C1.65454 22.1285 2.00496 21.7769 2.43888 21.7769Z" fill="white"/>
<path d="M44.338 2.17773C44.7708 2.17773 45.1224 2.52816 45.1224 2.96207C45.1224 3.39598 44.772 3.74641 44.338 3.74641C43.9041 3.74641 43.5537 3.39598 43.5537 2.96207C43.5537 2.52816 43.9053 2.17773 44.338 2.17773Z" fill="white"/>
<path d="M47.0378 22.8223C47.4705 22.8223 47.8221 23.1727 47.8221 23.6066C47.8221 24.0405 47.4717 24.3909 47.0378 24.3909C46.6038 24.3909 46.2534 24.0405 46.2534 23.6066C46.2534 23.1727 46.605 22.8223 47.0378 22.8223Z" fill="white"/>
<path d="M45.9923 43.0317C46.4251 43.0317 46.7767 43.3833 46.7767 43.8161C46.7767 44.2488 46.4251 44.6004 45.9923 44.6004C45.5596 44.6004 45.208 44.2488 45.208 43.8161C45.208 43.3833 45.5596 43.0317 45.9923 43.0317Z" fill="white"/>
<path d="M3.48429 41.376C3.91703 41.376 4.26862 41.7264 4.26862 42.1603C4.26862 42.5942 3.91703 42.9447 3.48429 42.9447C3.05155 42.9447 2.69995 42.5931 2.69995 42.1603C2.69995 41.7276 3.05155 41.376 3.48429 41.376Z" fill="white"/>
<path d="M15.9409 16.2016L32.3167 9.1461C32.5777 9.05791 32.7529 8.71101 32.5777 8.44878C32.4907 8.18773 32.1415 8.01369 31.8804 8.18773L15.5916 15.2432C15.3306 15.3303 15.1565 15.6783 15.3306 15.9406C15.3306 16.2016 15.6786 16.3756 15.9397 16.2016H15.9409Z" fill="white"/>
</svg>
