<svg width="50" height="50" viewBox="0 0 50 50" fill="none" xmlns="http://www.w3.org/2000/svg">
<path d="M50.0005 12.4999C49.957 12.4658 49.9773 12.4169 49.9761 12.3754C49.9504 11.534 49.9138 10.6931 49.8044 9.85755C49.6491 8.67309 49.3874 7.5172 48.8832 6.42553C48.6839 5.99408 48.4801 5.56557 48.2185 5.16879C47.9758 4.80034 47.7253 4.43678 47.447 4.0925C47.2009 3.78802 46.9403 3.49673 46.6632 3.22326C45.8064 2.37795 44.8327 1.69672 43.7393 1.1891C42.2447 0.494929 40.6589 0.196067 39.0266 0.0937605C38.4218 0.0559145 37.8165 0.0324744 37.2107 0.0222193C37.1765 0.021731 37.1365 0.0373577 37.1096 0H12.8909C12.8611 0.0422411 12.8164 0.023196 12.7788 0.0241726C11.9774 0.0405319 11.1763 0.0649487 10.3784 0.147233C9.93446 0.193137 9.49374 0.261016 9.05302 0.335487C8.24189 0.472465 7.45543 0.685868 6.69875 1.00329C4.43897 1.95041 2.71075 3.49673 1.51164 5.63296C0.801359 6.89848 0.412156 8.26704 0.219263 9.69787C0.0832613 10.7073 0.0402877 11.7225 0.0209985 12.7395C0.0200218 12.7898 0.0393111 12.8447 0 12.8906V37.1096C0.0439502 37.2967 0.0214868 37.4874 0.0266143 37.6761C0.0576237 38.8271 0.128432 39.9754 0.345254 41.1079C0.598212 42.4283 1.05993 43.6719 1.77144 44.8183C2.35695 45.7615 3.0753 46.5885 3.9189 47.3095C4.62234 47.9109 5.39758 48.4009 6.23166 48.7948C6.80325 49.0648 7.39927 49.2726 8.01042 49.4411C8.88161 49.6814 9.7716 49.7939 10.6679 49.8721C11.3238 49.9292 11.9813 49.9495 12.6394 49.9648C12.676 49.9658 12.7236 49.9463 12.7444 50H37.2808C37.4466 49.9541 37.617 49.9775 37.7848 49.9722C39.1216 49.9287 40.4528 49.8369 41.7569 49.5124C41.8316 49.4938 41.9053 49.4721 41.9796 49.4521C43.4448 49.0651 44.7689 48.3968 45.9385 47.4343C47.9514 45.7776 49.1674 43.6482 49.6574 41.0962C49.8467 40.1109 49.9219 39.114 49.9609 38.1132C49.9685 37.9171 49.947 37.7179 50.0005 37.5245V12.4999ZM43.3301 27.8112C43.3269 29.4796 43.3064 31.1475 43.2087 32.8135C43.1267 34.2126 42.9081 35.5855 42.4125 36.9075C41.8362 38.4438 40.9174 39.7318 39.6754 40.7958C39.6414 40.8249 39.6089 40.8554 39.576 40.8852C39.0007 41.3472 38.3876 41.7498 37.7191 42.065C36.7715 42.5119 35.7784 42.8102 34.7485 42.998C34.4228 43.0573 34.0949 43.0915 33.7677 43.1311C32.8626 43.2402 31.9516 43.2585 31.0418 43.2829C27.8124 43.3689 24.5823 43.3354 21.3525 43.3298C20.136 43.3279 18.9203 43.2961 17.7051 43.2444C17.4224 43.2324 17.1384 43.2304 16.8564 43.2119C16.5668 43.1928 16.2794 43.1401 15.9901 43.1125C15.3733 43.0537 14.7687 42.9328 14.171 42.7741C13.6802 42.6437 13.1992 42.4852 12.7346 42.2789C12.1576 42.0228 11.5904 41.7493 11.0694 41.3875C10.5896 41.0544 10.1581 40.6674 9.74255 40.2589C9.47323 39.9942 9.22418 39.7147 8.98831 39.4204C8.2878 38.5468 7.81289 37.5562 7.44981 36.5048C7.2784 36.0079 7.13019 35.5037 7.0401 34.9871C6.88212 34.081 6.80667 33.1651 6.76492 32.2458C6.6841 30.4653 6.67873 28.6836 6.67043 26.9019C6.67043 26.8614 6.6675 26.8209 6.66603 26.7801C6.63038 26.7874 6.59376 26.7921 6.55835 26.8001C6.59376 26.7921 6.63038 26.7872 6.66603 26.7799C6.6675 25.8523 6.66896 24.9244 6.67043 23.9968C6.67311 22.345 6.66652 20.6928 6.71853 19.0417C6.7532 17.94 6.78103 16.8373 6.93193 15.7427C7.06109 14.8059 7.29476 13.8976 7.62219 13.01C7.77138 12.6052 7.94718 12.2133 8.15472 11.839C8.56566 11.0982 9.08061 10.4326 9.67027 9.82215C11.0757 8.36739 12.8071 7.52941 14.7602 7.10431C15.7537 6.88798 16.7626 6.80765 17.7759 6.76394C20.9237 6.62819 24.0733 6.67824 27.2223 6.67287C28.4959 6.67067 29.7695 6.67482 31.0423 6.71902C32.1237 6.75662 33.2061 6.78103 34.2802 6.93364C35.8236 7.15266 37.2962 7.5907 38.6179 8.43405C40.4103 9.57749 41.6951 11.1436 42.4325 13.1494C42.8383 14.2533 43.0703 15.3931 43.1638 16.5617C43.2788 17.9981 43.3081 19.4382 43.3215 20.8786C43.343 23.1896 43.3354 25.5007 43.331 27.812L43.3301 27.8112Z" fill="white"/>
<path d="M39.8923 17.1196C39.8276 16.129 39.6575 15.1592 39.3061 14.2242C38.9076 13.1641 38.2547 12.2951 37.3691 11.5992C37.0112 11.3179 36.6229 11.082 36.2056 10.8938C35.826 10.7226 35.4431 10.5668 35.0371 10.4677C34.4967 10.3356 33.9547 10.225 33.3992 10.1715C33.1733 10.1498 32.9458 10.1254 32.7199 10.1061C32.3996 10.0787 32.0768 10.0758 31.7552 10.0556C30.9765 10.0067 30.1964 9.9972 29.4168 9.99085C26.5036 9.9679 23.5902 9.97156 20.6771 9.98767C19.5365 9.99402 18.3975 10.0438 17.2592 10.1037C16.3545 10.1513 15.4643 10.289 14.5978 10.5664C13.113 11.0417 11.9568 11.9388 11.1567 13.2739C10.5824 14.232 10.3158 15.2961 10.1822 16.3966C10.0658 17.3554 10.0494 18.3202 10.0177 19.2836C9.97346 20.6175 9.98249 21.9524 9.97907 23.2868C9.97688 24.1655 9.98176 25.0443 9.98347 25.9233C9.98249 26.3953 9.98054 26.867 9.98054 27.339C9.98103 28.8812 9.99055 30.4231 10.0616 31.964C10.1029 32.8562 10.1502 33.7474 10.3527 34.622C10.5285 35.3819 10.7738 36.1161 11.1853 36.7832C11.7403 37.6829 12.472 38.4076 13.4001 38.9201C14.3289 39.4329 15.3381 39.691 16.3846 39.8191C17.311 39.9327 18.2432 39.949 19.174 39.9823C20.4063 40.0262 21.6393 40.0264 22.8721 40.0238C25.9113 40.0167 28.9512 40.0719 31.9891 39.942C32.7172 39.911 33.4441 39.8694 34.1629 39.7425C34.9059 39.6111 35.6255 39.4075 36.3062 39.0713C36.5975 38.9274 36.8839 38.7802 37.1398 38.5793C37.4179 38.3605 37.7087 38.1564 37.9444 37.888C37.9568 37.8775 37.9703 37.8682 37.9815 37.8568C38.4698 37.3545 38.872 36.7966 39.1435 36.1442C39.309 35.7467 39.4631 35.3462 39.5754 34.9316C39.7881 34.1466 39.8728 33.3416 39.9172 32.532C40.0186 30.6948 40.0252 28.8558 40.0281 27.0167C40.0308 25.381 40.0269 23.7453 40.0244 22.1096C40.022 20.4454 40.001 18.7814 39.8926 17.1201L39.8923 17.1196ZM34.6982 13.0176C35.9456 12.9685 36.9213 13.9232 36.985 15.113C37.0497 16.3214 36.0611 17.4128 34.8464 17.4143C33.639 17.4499 32.6261 16.4967 32.5878 15.2944C32.5465 14.0035 33.543 13.0627 34.6982 13.0176ZM30.5666 32.5945C29.2517 33.5528 27.7865 34.1293 26.174 34.3454C25.5694 34.4265 24.9661 34.414 24.3601 34.3972C24.0803 34.3893 23.8014 34.3671 23.5302 34.3163C22.249 34.0753 21.0308 33.6585 19.9362 32.9341C17.4882 31.3143 16.0569 29.0496 15.6582 26.1387C15.6218 25.8732 15.6135 25.6039 15.592 25.3363C15.4864 25.3368 15.4864 25.3368 15.592 25.3363C15.5615 24.2913 15.6863 23.266 15.9929 22.2652C16.1599 21.7204 16.3509 21.1828 16.6229 20.6817C16.9115 20.1502 17.2409 19.6431 17.6127 19.1633C17.937 18.745 18.2881 18.3524 18.6861 18.0057C18.9427 17.782 19.213 17.573 19.4867 17.3691C20.5996 16.5394 21.8498 16.0277 23.2039 15.7591C23.7255 15.6555 24.2539 15.6084 24.7874 15.5962C25.7142 15.5752 26.623 15.6819 27.5155 15.9263C28.6862 16.2472 29.7489 16.7885 30.7146 17.5215C31.5391 18.1473 32.2389 18.8925 32.8146 19.7512C33.7117 21.0893 34.2394 22.5606 34.3785 24.168C34.5082 25.6652 34.2994 27.1136 33.7393 28.5088C33.3645 29.443 32.8515 30.2954 32.2028 31.0657C32.1766 31.0967 32.152 31.129 32.1268 31.1607C31.6536 31.6898 31.1409 32.1755 30.5663 32.5945H30.5666Z" fill="white"/>
<path d="M25.3579 18.9099C23.0607 18.8086 21.2365 19.7262 19.9249 21.6136C19.2173 22.6318 18.8845 23.7808 18.8982 25.0251C18.8891 25.3545 18.9172 25.6812 18.9734 26.0054C19.1826 27.2114 19.6937 28.2686 20.5304 29.1657C22.4371 31.2094 25.4665 31.7046 27.9197 30.3704C28.5943 30.0034 29.1837 29.5295 29.6716 28.9332C29.6984 28.903 29.7268 28.8737 29.7522 28.8422C31.6967 26.4405 31.5441 22.9519 29.3705 20.7363C28.2698 19.6143 26.9269 18.9793 25.3576 18.9099H25.3579Z" fill="white"/>
</svg>
