<svg width="26" height="26" viewBox="0 0 26 26" fill="none" xmlns="http://www.w3.org/2000/svg">
<path d="M25.9569 6.48925C25.9343 6.4715 25.9448 6.44615 25.9442 6.4246C25.9309 5.98779 25.9119 5.55124 25.8551 5.11747C25.7745 4.50257 25.6386 3.9025 25.3768 3.33576C25.2734 3.11178 25.1676 2.88932 25.0318 2.68334C24.9058 2.49206 24.7758 2.30332 24.6313 2.12459C24.5035 1.96652 24.3682 1.8153 24.2244 1.67333C23.7796 1.2345 23.2741 0.880841 22.7064 0.617311C21.9305 0.256938 21.1073 0.101787 20.2599 0.0486751C19.9459 0.0290276 19.6317 0.0168588 19.3172 0.011535C19.2994 0.0112815 19.2786 0.019394 19.2647 0H6.6917C6.67624 0.0219291 6.65304 0.012042 6.63352 0.012549C6.2175 0.0210418 5.8016 0.0337176 5.38736 0.0764351C5.15691 0.100266 4.92812 0.135504 4.69932 0.174165C4.27823 0.245277 3.86994 0.356063 3.47712 0.520849C2.30397 1.01254 1.40678 1.8153 0.78427 2.92431C0.415531 3.58129 0.213479 4.29177 0.11334 5.03457C0.0427362 5.55859 0.0204268 6.08565 0.0104129 6.6136C0.00990587 6.63971 0.0199198 6.66823 -0.000488281 6.69206V19.2652C0.0223282 19.3623 0.0106664 19.4613 0.0133283 19.5593C0.0294266 20.1568 0.0661864 20.7529 0.178748 21.3408C0.310069 22.0264 0.549768 22.6719 0.919141 23.2671C1.22311 23.7567 1.59603 24.1861 2.03398 24.5604C2.39917 24.8726 2.80162 25.127 3.23463 25.3314C3.53137 25.4716 3.84079 25.5795 4.15806 25.667C4.61033 25.7917 5.07237 25.8501 5.53769 25.8907C5.87817 25.9204 6.21953 25.9309 6.56114 25.9389C6.58015 25.9394 6.60487 25.9292 6.61564 25.9571H19.3536C19.4396 25.9333 19.5281 25.9455 19.6152 25.9427C20.3092 25.9201 21.0003 25.8724 21.6773 25.704C21.7161 25.6944 21.7544 25.6831 21.7929 25.6727C22.5536 25.4718 23.241 25.1248 23.8481 24.6251C24.8931 23.7651 25.5244 22.6596 25.7788 21.3348C25.877 20.8233 25.9161 20.3057 25.9364 19.7862C25.9403 19.6844 25.9291 19.5809 25.9569 19.4805V6.48925ZM22.494 14.438C22.4923 15.3041 22.4817 16.17 22.431 17.0349C22.3884 17.7612 22.2749 18.474 22.0176 19.1602C21.7185 19.9578 21.2415 20.6264 20.5967 21.1789C20.5791 21.1939 20.5622 21.2098 20.5451 21.2252C20.2464 21.4651 19.9281 21.6741 19.5811 21.8377C19.0891 22.0697 18.5736 22.2246 18.0389 22.3221C17.8699 22.3529 17.6996 22.3706 17.5298 22.3912C17.0599 22.4478 16.5869 22.4573 16.1146 22.47C14.4381 22.5146 12.7613 22.4973 11.0845 22.4943C10.453 22.4933 9.82186 22.4769 9.19099 22.45C9.0442 22.4438 8.89678 22.4428 8.75038 22.4331C8.60004 22.4232 8.45085 22.3959 8.30064 22.3815C7.98045 22.351 7.6666 22.2882 7.35629 22.2058C7.10151 22.1382 6.85179 22.0559 6.61057 21.9488C6.31105 21.8158 6.01659 21.6738 5.74609 21.486C5.49701 21.3131 5.27302 21.1122 5.05728 20.9001C4.91747 20.7627 4.78817 20.6176 4.66573 20.4648C4.30206 20.0113 4.05551 19.497 3.86702 18.9512C3.77804 18.6933 3.7011 18.4315 3.65432 18.1633C3.57231 17.6929 3.53314 17.2174 3.51147 16.7402C3.46951 15.8158 3.46672 14.8909 3.46241 13.9659C3.46241 13.9449 3.46089 13.9239 3.46013 13.9027C3.44162 13.9065 3.42261 13.9089 3.40423 13.9131C3.42261 13.9089 3.44162 13.9064 3.46013 13.9026C3.46089 13.421 3.46165 12.9393 3.46241 12.4578C3.46381 11.6003 3.46039 10.7425 3.48738 9.88535C3.50538 9.31342 3.51983 8.74098 3.59817 8.17272C3.66523 7.68635 3.78653 7.21481 3.95652 6.75405C4.03397 6.54388 4.12523 6.34044 4.23298 6.14611C4.44631 5.76153 4.71364 5.41599 5.01976 5.09909C5.74938 4.34387 6.64822 3.90884 7.66216 3.68815C8.17794 3.57584 8.7017 3.53414 9.22775 3.51145C10.8619 3.44097 12.497 3.46696 14.1318 3.46417C14.7929 3.46303 15.4541 3.46518 16.1149 3.48813C16.6763 3.50765 17.2382 3.52032 17.7958 3.59955C18.5971 3.71325 19.3615 3.94065 20.0477 4.37847C20.9782 4.97208 21.6452 5.78511 22.028 6.82642C22.2387 7.3995 22.3591 7.9912 22.4077 8.59787C22.4674 9.34359 22.4826 10.0912 22.4895 10.8389C22.5007 12.0387 22.4968 13.2385 22.4945 14.4384L22.494 14.438Z" fill="#960096"/>
<path d="M20.709 8.88797C20.6754 8.37371 20.587 7.87023 20.4046 7.38487C20.1978 6.83449 19.8588 6.38336 19.3991 6.0221C19.2132 5.87607 19.0117 5.75362 18.7951 5.65589C18.598 5.56703 18.3992 5.48616 18.1884 5.4347C17.9079 5.36612 17.6265 5.3087 17.3381 5.28094C17.2209 5.26966 17.1027 5.25698 16.9855 5.24697C16.8192 5.23277 16.6516 5.23125 16.4846 5.22073C16.0804 5.19538 15.6754 5.19044 15.2707 5.18714C13.7583 5.17523 12.2459 5.17713 10.7335 5.18549C10.1414 5.18879 9.55009 5.21465 8.95915 5.2457C8.48951 5.27042 8.02735 5.34191 7.57749 5.48591C6.80667 5.73271 6.20647 6.19842 5.79109 6.89153C5.49295 7.38893 5.35453 7.94134 5.2852 8.51264C5.22473 9.01042 5.21624 9.51124 5.19976 10.0114C5.17682 10.7039 5.18151 11.3969 5.17973 12.0896C5.17859 12.5458 5.18113 13.002 5.18201 13.4584C5.18151 13.7034 5.18049 13.9483 5.18049 14.1933C5.18075 14.9939 5.18569 15.7944 5.22258 16.5943C5.244 17.0575 5.26859 17.5202 5.37367 17.9742C5.46494 18.3687 5.59233 18.7499 5.80592 19.0962C6.09404 19.5633 6.47393 19.9395 6.95574 20.2056C7.43793 20.4717 7.96182 20.6057 8.5051 20.6723C8.98602 20.7312 9.46998 20.7397 9.95318 20.757C10.5929 20.7798 11.2331 20.7799 11.8731 20.7785C13.4508 20.7748 15.029 20.8035 16.6061 20.736C16.9841 20.7199 17.3614 20.6984 17.7346 20.6325C18.1203 20.5643 18.4939 20.4586 18.8473 20.284C18.9985 20.2094 19.1472 20.1329 19.28 20.0286C19.4244 19.915 19.5754 19.8091 19.6977 19.6697C19.7042 19.6643 19.7111 19.6595 19.717 19.6535C19.9705 19.3928 20.1793 19.1031 20.3202 18.7644C20.4062 18.5581 20.4861 18.3502 20.5444 18.135C20.6549 17.7274 20.6988 17.3095 20.7219 16.8892C20.7745 15.9355 20.7779 14.9807 20.7795 14.026C20.7809 13.1768 20.7788 12.3277 20.7776 11.4785C20.7763 10.6145 20.7654 9.75068 20.7091 8.88822L20.709 8.88797ZM18.0125 6.75843C18.6601 6.73295 19.1666 7.22858 19.1997 7.84627C19.2333 8.4736 18.72 9.0402 18.0894 9.04096C17.4626 9.05947 16.9368 8.56461 16.9169 7.94045C16.8955 7.27028 17.4128 6.78188 18.0125 6.75843ZM15.8676 16.9216C15.185 17.4192 14.4243 17.7184 13.5872 17.8306C13.2734 17.8727 12.9601 17.8662 12.6455 17.8575C12.5003 17.8534 12.3555 17.8419 12.2147 17.8155C11.5496 17.6904 10.9172 17.474 10.3489 17.098C9.07805 16.257 8.33499 15.0814 8.128 13.5702C8.10911 13.4324 8.1048 13.2926 8.09365 13.1536C8.0388 13.1539 8.0388 13.1539 8.09365 13.1536C8.0778 12.6111 8.14257 12.0788 8.30178 11.5593C8.38848 11.2765 8.48761 10.9973 8.62882 10.7372C8.77865 10.4613 8.94964 10.198 9.14269 9.94893C9.31103 9.7318 9.49331 9.52797 9.69992 9.34797C9.83315 9.23186 9.97347 9.12336 10.1156 9.01751C10.6933 8.58679 11.3423 8.32111 12.0453 8.18167C12.3161 8.12793 12.5904 8.10346 12.8674 8.09712C13.3485 8.08622 13.8203 8.14162 14.2836 8.2685C14.8914 8.43506 15.4431 8.71608 15.9444 9.09661C16.3725 9.42149 16.7358 9.80836 17.0346 10.2542C17.5004 10.9488 17.7743 11.7126 17.8465 12.5471C17.9138 13.3244 17.8055 14.0763 17.5147 14.8006C17.3201 15.2856 17.0538 15.7281 16.717 16.128C16.7034 16.1441 16.6906 16.1608 16.6776 16.1773C16.4319 16.452 16.1657 16.7041 15.8675 16.9216H15.8676Z" fill="#960096"/>
<path d="M13.1639 9.81643C11.9714 9.76382 11.0244 10.2402 10.3435 11.22C9.97611 11.7486 9.80334 12.3451 9.81044 12.9911C9.80575 13.1621 9.82032 13.3317 9.84948 13.5C9.95811 14.1261 10.2234 14.6749 10.6578 15.1406C11.6477 16.2016 13.2204 16.4587 14.4939 15.7661C14.8441 15.5755 15.1501 15.3295 15.4034 15.02C15.4173 15.0043 15.432 14.989 15.4452 14.9727C16.4547 13.7259 16.3755 11.9148 15.2471 10.7646C14.6757 10.1821 13.9785 9.85243 13.1638 9.81643H13.1639Z" fill="#960096"/>
</svg>
