<svg width="51" height="50" viewBox="0 0 51 50" fill="none" xmlns="http://www.w3.org/2000/svg">
<path d="M25.0131 0.0178628C32.1091 0.0178628 39.2061 0.0159915 46.3022 0.0187985C48.2231 0.0187985 49.5854 1.13879 49.9672 3.02227C50.0037 3.20379 50.0102 3.3928 50.0102 3.57899C50.0121 17.8684 50.013 32.1569 50.0102 46.4463C50.0102 48.3364 48.4954 49.9027 46.6063 49.9822C46.4818 49.9878 46.3564 49.9869 46.232 49.9869C32.0698 49.9869 17.9086 49.9757 3.7464 50C1.79086 50.0037 0.464095 48.6564 0.163747 47.412C0.0729881 47.0377 0.017784 46.6456 0.017784 46.262C0.01217 32.097 0.026205 17.933 6.43603e-06 3.76893C-0.00373621 1.70673 1.62525 -0.0139497 3.77072 8.52559e-05C10.7105 0.0468684 17.6513 0.0178628 24.592 0.0178628C24.7324 0.0178628 24.8727 0.0178628 25.0131 0.0178628ZM26.6767 21.961C26.6767 20.9655 26.6598 20.1103 26.6842 19.256C26.6954 18.8453 26.5906 18.6824 26.1396 18.6881C24.0811 18.7115 22.0227 18.7105 19.9642 18.6881C19.5254 18.6834 19.4113 18.8265 19.4122 19.2485C19.4225 26.876 19.4234 34.5026 19.4103 42.1301C19.4103 42.597 19.5759 42.7093 20.0082 42.7056C22.1293 42.6897 24.2505 42.6869 26.3707 42.7074C26.8367 42.7121 26.9789 42.5793 26.977 42.0983C26.9564 38.293 26.9555 34.4867 26.9742 30.6814C26.9779 29.8758 27.0275 29.0589 27.167 28.2664C27.4514 26.6505 28.1878 25.3387 29.9178 24.9065C30.4521 24.7727 31.0266 24.7474 31.5814 24.754C33.3255 24.7745 34.4455 25.6176 34.8338 27.327C35.0518 28.288 35.1388 29.2966 35.1472 30.2847C35.1809 34.2154 35.1669 38.1461 35.1538 42.0759C35.1519 42.5269 35.2623 42.7131 35.7535 42.7074C37.8737 42.685 39.9949 42.6869 42.116 42.7065C42.5633 42.7102 42.6989 42.5736 42.6971 42.1217C42.6821 37.8794 42.684 33.6362 42.6943 29.3939C42.6989 27.676 42.6054 25.9684 42.2124 24.2927C41.6697 21.9816 40.6049 20.0102 38.3322 18.9912C36.0773 17.9798 33.7072 17.7795 31.3119 18.4036C29.3433 18.9164 27.8472 20.1234 26.6776 21.961H26.6767ZM14.8855 30.6636C14.8855 26.8592 14.8798 23.0548 14.8929 19.2504C14.8948 18.8322 14.7844 18.6843 14.3428 18.689C12.1917 18.7105 10.0397 18.7086 7.88857 18.6899C7.47033 18.6862 7.32905 18.7929 7.32998 19.2345C7.34308 26.8751 7.34308 34.5148 7.32998 42.1554C7.32998 42.6055 7.48811 42.7084 7.89699 42.7056C10.0172 42.6925 12.1374 42.7 14.2576 42.699C14.8836 42.699 14.8855 42.6953 14.8855 42.0777C14.8855 38.2733 14.8855 34.4689 14.8855 30.6645V30.6636ZM11.1147 15.4928C13.5231 15.4918 15.4525 13.5728 15.4543 11.1756C15.4562 8.7532 13.5222 6.81077 11.1073 6.81077C8.68576 6.81077 6.77139 8.74291 6.7742 11.1822C6.77701 13.5831 8.70073 15.4937 11.1147 15.4928Z" fill="white"/>
</svg>
