<svg width="26" height="26" viewBox="0 0 26 26" fill="none" xmlns="http://www.w3.org/2000/svg">
<path d="M12.9853 0.00927336C16.6692 0.00927336 20.3536 0.00830187 24.0374 0.0097591C25.0347 0.0097591 25.7419 0.591192 25.9401 1.56899C25.959 1.66322 25.9624 1.76134 25.9624 1.85801C25.9634 9.27626 25.9639 16.694 25.9624 24.1123C25.9624 25.0935 25.176 25.9066 24.1953 25.9479C24.1307 25.9508 24.0656 25.9503 24.001 25.9503C16.6488 25.9503 9.2971 25.9445 1.94491 25.9571C0.929713 25.9591 0.240931 25.2596 0.0850082 24.6136C0.0378912 24.4193 0.00923244 24.2157 0.00923244 24.0166C0.00631799 16.6629 0.0136041 9.30977 3.34122e-06 1.95661C-0.00193963 0.886037 0.843737 -0.00724187 1.95754 4.426e-05C5.56029 0.0243314 9.16352 0.00927336 12.7668 0.00927336C12.8396 0.00927336 12.9125 0.00927336 12.9853 0.00927336ZM13.849 11.4009C13.849 10.8841 13.8402 10.4401 13.8529 9.99661C13.8587 9.78337 13.8043 9.69885 13.5702 9.70177C12.5015 9.71391 11.4329 9.71342 10.3643 9.70177C10.1365 9.69934 10.0772 9.77366 10.0777 9.99273C10.083 13.9525 10.0835 17.9118 10.0767 21.8715C10.0767 22.1139 10.1627 22.1722 10.3871 22.1703C11.4883 22.162 12.5895 22.1606 13.6902 22.1712C13.9321 22.1737 14.0059 22.1047 14.0049 21.855C13.9942 19.8795 13.9937 17.9035 14.0035 15.928C14.0054 15.5098 14.0311 15.0857 14.1035 14.6743C14.2512 13.8354 14.6335 13.1544 15.5316 12.93C15.809 12.8605 16.1072 12.8474 16.3952 12.8508C17.3007 12.8615 17.8821 13.2992 18.0837 14.1866C18.1969 14.6855 18.242 15.2091 18.2464 15.7221C18.2639 17.7627 18.2566 19.8033 18.2498 21.8434C18.2488 22.0775 18.3062 22.1742 18.5612 22.1712C19.6619 22.1596 20.763 22.1606 21.8642 22.1708C22.0964 22.1727 22.1668 22.1018 22.1659 21.8672C22.1581 19.6648 22.1591 17.462 22.1644 15.2596C22.1668 14.3678 22.1183 13.4813 21.9142 12.6114C21.6325 11.4116 21.0797 10.3881 19.8999 9.85915C18.7292 9.33406 17.4989 9.23011 16.2554 9.5541C15.2334 9.82029 14.4567 10.4469 13.8495 11.4009H13.849ZM7.72767 15.9188C7.72767 13.9438 7.72476 11.9687 7.73156 9.9937C7.73253 9.77657 7.67521 9.69983 7.44594 9.70225C6.32922 9.71343 5.21201 9.71245 4.09529 9.70274C3.87817 9.7008 3.80482 9.75617 3.80531 9.98544C3.81211 13.952 3.81211 17.9181 3.80531 21.8847C3.80531 22.1183 3.8874 22.1717 4.09966 22.1703C5.20036 22.1635 6.30105 22.1674 7.40174 22.1669C7.7267 22.1669 7.72767 22.1649 7.72767 21.8443C7.72767 19.8693 7.72767 17.8943 7.72767 15.9193V15.9188ZM5.77013 8.04296C7.02043 8.04247 8.02203 7.04622 8.023 5.80175C8.02397 4.54416 7.01994 3.53576 5.76624 3.53576C4.50915 3.53576 3.51532 4.53882 3.51677 5.80515C3.51823 7.05156 4.51692 8.04344 5.77013 8.04296Z" fill="#960096"/>
</svg>
