<svg width="112" height="120" viewBox="0 0 112 120" fill="none" xmlns="http://www.w3.org/2000/svg">
<path d="M30.1128 39.5587H78.7564V48.824C78.7564 50.0884 80.2295 50.5089 81.0734 49.665L104.867 25.871C105.288 25.4505 105.288 24.6095 104.867 23.9773L81.0734 0.38933C80.2295 -0.451687 78.7564 0.180487 78.7564 1.23317V13.0243H30.1128C29.4835 13.0243 28.8513 13.6565 28.8513 14.2887V38.0827C28.8513 38.9237 29.4835 39.5587 30.1128 39.5587ZM81.4939 4.60288L101.921 25.0272L81.4939 45.4543V4.60288ZM78.7564 15.9735V37.03H31.3772V30.5023H56.4355C57.0677 30.5023 57.6999 29.8729 57.6999 29.2407C57.6999 28.6086 57.0677 27.9792 56.4355 27.9792H31.3772V16.1852H78.7564V15.9764V15.9735Z" fill="#960096"/>
<path d="M82.7583 82.9388H34.1148V71.1448C34.1148 69.8833 32.6388 69.4599 31.7978 70.3038L8.2126 93.8889C7.79209 94.3123 7.79209 95.1533 8.2126 95.7827L31.7978 119.579C32.0066 119.788 32.4299 120 32.6388 120C33.271 120 33.9031 119.368 33.9031 118.738V109.473H82.5466C83.1788 109.473 83.811 108.841 83.811 108.212V84.4148C84.0198 83.5738 83.6021 82.9416 82.7583 82.9416V82.9388ZM31.3773 115.369L10.9501 94.9416L31.3773 74.5173V115.372V115.369ZM34.1148 106.736V85.6792H81.4939V92.2069H43.3773C42.7479 92.2069 42.1157 92.8391 42.1157 93.4713C42.1157 94.1034 42.7479 94.7328 43.3773 94.7328H81.4939V106.527H34.1148V106.736Z" fill="#960096"/>
<path d="M56.4328 50.9293V53.2435C54.3274 53.4552 52.6426 54.299 51.8016 56.1927C51.3811 57.2454 51.3811 58.7186 51.5927 59.7713C52.0132 60.824 52.6454 61.4562 53.6981 61.8767C54.9624 62.5088 56.224 62.7177 56.6473 62.9322V65.8786C56.0151 65.8786 55.5918 65.6697 55.1741 65.458C54.5419 65.2464 53.4892 64.8259 52.8571 64.4025C52.6482 64.1937 52.4366 64.1937 52.4366 63.982L50.7517 67.1401C52.4366 68.1956 54.5419 68.8249 56.4356 69.0366V71.5625H57.9088V69.0366C59.1732 69.0366 60.6464 68.6133 61.699 67.7723C62.1224 67.3517 62.5401 66.9312 62.9634 66.2991C63.1722 65.6669 63.3839 65.0347 63.3839 64.1909C63.3839 62.2972 62.5429 61.03 60.6464 60.1918C59.3848 59.5596 58.1205 59.3508 57.9088 59.3508V56.4016C59.3848 56.6104 61.2785 57.6659 61.4874 57.8748L63.1722 54.9256C62.5401 54.5051 61.9107 54.2962 61.0669 53.8729C60.2259 53.4524 59.382 53.2407 58.3293 53.2407V50.9265H56.4328V50.9293ZM56.8561 59.142C56.4328 58.9331 56.0151 58.7214 55.8035 58.5126C55.5918 58.3009 55.3801 58.0893 55.3801 57.6716C55.3801 56.8277 55.8035 56.4072 56.8533 56.4072V59.1448L56.8561 59.142ZM58.9615 63.776C59.1732 63.9849 59.3848 64.1965 59.3848 64.617C59.3848 65.2464 58.7527 65.6697 57.7 65.8786V63.141C58.3321 63.3499 58.7527 63.5615 58.9615 63.7732V63.776Z" fill="#960096"/>
<path d="M38.1138 61.2475C38.1138 71.7771 46.7469 80.4103 57.2765 80.4103C67.8062 80.4103 76.4393 71.7771 76.4393 61.2475C76.4393 50.7178 67.8062 42.0847 57.2765 42.0847C46.7469 42.0847 38.1138 50.7178 38.1138 61.2475ZM73.4929 61.2475C73.4929 70.3011 66.1242 77.6727 57.0677 77.6727C48.0112 77.6727 40.6425 70.3011 40.6425 61.2475C40.6425 52.1939 48.0141 44.8223 57.0677 44.8223C66.1213 44.8223 73.4929 52.191 73.4929 61.2475Z" fill="#960096"/>
<path d="M49.4846 51.7704C49.0641 51.347 48.223 51.347 47.5909 51.7704C42.3275 57.0338 42.3275 65.6697 47.5909 70.9331C47.8025 71.142 48.223 71.3537 48.4319 71.3537C49.6962 71.3537 50.1167 69.8805 49.2757 69.0394C45.0622 64.8287 45.0622 57.8776 49.2757 53.6669C49.9079 53.0347 49.9079 52.1937 49.4846 51.7732V51.7704Z" fill="#960096"/>
<path d="M65.7007 71.3537C66.1241 71.3537 66.3329 71.1448 66.5418 70.9331C71.8052 65.6697 71.8052 57.0338 66.5418 51.7704C66.1213 51.347 65.2802 51.347 64.6481 51.7704C64.2247 52.1909 64.2247 53.0319 64.6481 53.6641C68.8588 57.8748 68.8588 64.8259 64.6481 69.0366C64.0159 69.8776 64.6481 71.3508 65.7007 71.3508V71.3537Z" fill="#960096"/>
<path d="M15.5841 67.143C15.5841 63.5644 12.6349 60.6152 9.05632 60.6152C5.47777 60.6152 2.52856 63.5616 2.52856 67.143C2.52856 70.7244 5.47495 73.6708 9.05632 73.6708C12.6377 73.6708 15.5841 70.9332 15.5841 67.143ZM5.05444 67.143C5.05444 65.0376 6.73929 63.1439 9.05632 63.1439C11.3734 63.1439 13.0582 64.8288 13.0582 67.143C13.0582 69.2512 11.3734 71.1449 9.05632 71.1449C6.73929 71.1449 5.05444 69.46 5.05444 67.143Z" fill="#960096"/>
<path d="M111.818 50.0883C111.818 45.0337 107.608 40.823 102.553 40.823C97.4986 40.823 93.2878 45.0337 93.2878 50.0883C93.2878 55.1429 97.4986 59.3536 102.553 59.3536C107.608 59.3536 111.818 55.1429 111.818 50.0883ZM102.553 56.6161C98.9746 56.6161 96.0254 53.6697 96.0254 50.0883C96.0254 46.5069 98.9718 43.5605 102.553 43.5605C106.135 43.5605 109.081 46.5097 109.081 50.0883C109.081 53.6669 106.132 56.6161 102.553 56.6161Z" fill="#960096"/>
<path d="M7.16006 30.5022C8.20709 30.5022 9.05376 31.3517 9.05376 32.3987C9.05376 33.4458 8.20427 34.2924 7.16006 34.2924C6.11584 34.2924 5.26636 33.4429 5.26636 32.3987C5.26636 31.3545 6.11584 30.5022 7.16006 30.5022Z" fill="#960096"/>
<path d="M30.745 6.70537C31.7909 6.70537 32.6387 5.85753 32.6387 4.81167C32.6387 3.76581 31.7909 2.91797 30.745 2.91797C29.6992 2.91797 28.8513 3.76581 28.8513 4.81167C28.8513 5.85753 29.6992 6.70537 30.745 6.70537Z" fill="#960096"/>
<path d="M105.92 7.97266C106.967 7.97266 107.814 8.82214 107.814 9.86636C107.814 10.9106 106.964 11.7601 105.92 11.7601C104.876 11.7601 104.026 10.9106 104.026 9.86636C104.026 8.82214 104.876 7.97266 105.92 7.97266Z" fill="#960096"/>
<path d="M109.71 68.6162C110.76 68.6162 111.607 69.4657 111.607 70.5099C111.607 71.5541 110.757 72.4064 109.71 72.4064C108.663 72.4064 107.817 71.5569 107.817 70.5099C107.817 69.4629 108.666 68.6162 109.71 68.6162Z" fill="#960096"/>
<path d="M93.9174 90.9397C94.9644 90.9397 95.8139 91.7892 95.8139 92.8334C95.8139 93.8776 94.9644 94.7271 93.9174 94.7271C92.8703 94.7271 92.0237 93.8776 92.0237 92.8334C92.0237 91.7892 92.8732 90.9397 93.9174 90.9397Z" fill="#960096"/>
<path d="M1.8937 84.4121C2.94074 84.4121 3.7874 85.2616 3.7874 86.3086C3.7874 87.3557 2.93791 88.2023 1.8937 88.2023C0.849484 88.2023 0 87.3528 0 86.3086C0 85.2644 0.849484 84.4121 1.8937 84.4121Z" fill="#960096"/>
</svg>
