<svg width="34" height="30" viewBox="0 0 34 30" fill="none" xmlns="http://www.w3.org/2000/svg">
<path d="M24.8722 17.2442C24.7499 17.2521 24.6423 17.2649 24.5348 17.2649C23.3166 17.2659 22.0984 17.2718 20.8802 17.2649C19.4233 17.256 17.9822 17.3882 16.5568 17.691C13.3619 18.3716 10.4994 19.7467 7.93476 21.7658C7.64969 21.9907 7.2719 22.1811 6.91778 22.2206C5.76863 22.3508 4.93315 21.5488 4.93315 20.3829C4.93118 14.2436 4.93315 8.10523 4.93315 1.9659C4.93315 1.86726 4.93512 1.76862 4.94006 1.67096C4.99036 0.721065 5.75778 0.00296828 6.70965 9.08606e-06C7.29458 -0.00196371 7.72169 0.317629 8.15374 0.654976C11.5104 3.26794 15.312 4.72682 19.5604 4.95073C21.1801 5.03655 22.8076 4.99315 24.4313 5.00794C24.5743 5.00893 24.7163 5.00794 24.8712 5.00794L24.8712 17.2442H24.8722ZM26.0825 5.0257C26.2206 5.0188 26.3291 5.00893 26.4376 5.00893C28 5.00794 29.5625 5.00499 31.1259 5.00893C32.3856 5.01288 33.0898 5.72012 33.0898 6.97679C33.0898 9.74462 33.0898 12.5124 33.0898 15.2813C33.0898 16.533 32.3727 17.2619 31.1318 17.2659C29.5694 17.2698 28.0069 17.2669 26.4435 17.2669H26.0825L26.0825 5.0257ZM29.1936 18.4683C29.1443 18.5975 29.1117 18.7001 29.0673 18.7968C27.6104 22.0213 26.1555 25.2468 24.6936 28.4694C24.1304 29.7113 22.858 30.2814 21.6536 29.8651C20.6169 29.5071 19.7419 28.2425 20.1246 26.8478C20.8595 24.1707 21.5322 21.4768 22.2316 18.7899C22.2612 18.6764 22.3046 18.566 22.3361 18.4683L29.1936 18.4683ZM3.72383 6.52404L3.72383 15.7153C1.89505 15.6107 0.119534 13.5501 0.00708389 11.4284C-0.120159 9.02652 1.50345 6.86829 3.72383 6.52502V6.52404Z" fill="#492464"/>
<path d="M24.8723 17.2442L24.8723 5.00795C24.7175 5.00795 24.5754 5.00893 24.4324 5.00795C22.8088 4.99315 21.1812 5.03655 19.5616 4.95073C15.3131 4.72584 11.5106 3.26794 8.15486 0.654976C7.72184 0.317629 7.29571 -0.00196371 6.70979 9.08606e-06C5.75792 0.00296828 4.9905 0.721065 4.93822 1.67097C4.93329 1.7696 4.93132 1.86726 4.93132 1.9659C4.93132 8.10523 4.93033 14.2436 4.93132 20.3829C4.93132 21.5498 5.7668 22.3518 6.91595 22.2206C7.27007 22.1801 7.64687 21.9897 7.93292 21.7658C10.4976 19.7467 13.3611 18.3716 16.555 17.691C17.9804 17.3872 19.4225 17.256 20.8784 17.2649C22.0966 17.2718 23.3148 17.2669 24.533 17.2649C24.6405 17.2649 24.748 17.2521 24.8703 17.2442H24.8723Z" fill="#492464"/>
<path d="M26.0815 5.02609L26.0815 17.2663H26.4425C28.005 17.2663 29.5674 17.2692 31.1309 17.2653C32.3717 17.2623 33.0898 16.5334 33.0898 15.2817C33.0898 12.5138 33.0898 9.746 33.0898 6.97718C33.0898 5.72051 32.3856 5.01228 31.1259 5.00932C29.5635 5.00537 28.001 5.00833 26.4376 5.00932C26.3291 5.00932 26.2216 5.01918 26.0825 5.02609H26.0815Z" fill="#492464"/>
<path d="M29.1916 18.4683H22.3352C22.3026 18.5659 22.2602 18.6764 22.2306 18.7898C21.5313 21.4768 20.8586 24.1706 20.1237 26.8477C19.741 28.2425 20.6159 29.507 21.6526 29.8651C22.857 30.2804 24.1295 29.7112 24.6927 28.4693C26.1545 25.2468 27.6095 22.0213 29.0664 18.7967C29.1098 18.7001 29.1433 18.5975 29.1926 18.4683H29.1916Z" fill="#492464"/>
<path d="M3.72412 6.52345C1.50374 6.86671 -0.119869 9.02495 0.00737643 11.4268C0.119826 13.5496 1.89534 15.6091 3.72412 15.7137L3.72412 6.52246V6.52345Z" fill="#492464"/>
</svg>
