<svg width="20" height="32" viewBox="0 0 20 32" fill="none" xmlns="http://www.w3.org/2000/svg">
<path d="M2.73266 31.0728V29.2554H9.09212V25.4591C6.06519 25.1 3.62761 23.7235 1.84663 21.2502C0.617706 19.5446 0.0267511 17.6202 0 15.4971H1.80853C1.8896 18.1228 2.91587 20.2937 4.9838 21.9279C6.58643 23.195 8.43388 23.7681 10.4702 23.6554C14.7196 23.4187 18.1567 19.9524 18.2215 15.4995H19.992C20.1841 19.6176 16.9277 24.8098 10.9493 25.4551V29.2456H17.2998V31.0737H2.73266V31.0728Z" fill="#492464"/>
<path d="M16.3092 5.45083H11.862V7.27479H16.374V9.99937H11.858V11.8241H16.3667V14.5593H11.8539V16.3743H16.2954C16.0952 18.5947 14.0929 21.5989 10.3972 21.8348C7.10683 22.0448 4.18935 19.6631 3.7208 16.3978H8.17769V14.5722H3.66567V11.8371H8.18174V10.0229H3.66162V7.2983H8.17525V5.4638H3.72404C4.05964 2.4336 6.84905 0.0113893 9.9846 4.02405e-05C13.1558 -0.0113088 15.9387 2.37929 16.3092 5.45083Z" fill="#492464"/>
</svg>
