<svg width="127" height="120" viewBox="0 0 127 120" fill="none" xmlns="http://www.w3.org/2000/svg">
<path d="M43.4968 19.0193H46.5562V26.8849H48.9607V19.0193H52.0201V16.832H43.4968V19.0193Z" fill="#960096"/>
<path d="M56.3945 16.832L52.6804 26.8878H55.085L55.9599 24.7033H59.0192L59.8941 26.8878H62.2987L58.5818 16.832H56.3945ZM56.1772 23.1708L57.4867 19.6741L58.5818 23.1708H56.1772Z" fill="#960096"/>
<path d="M70.6019 16.832L68.4174 20.3288L66.2302 16.832H63.6055L67.1051 22.0786L63.8256 26.8849H66.2302L68.4174 23.6083L70.6019 26.8849H73.0064L69.727 22.0786L73.2238 16.832H70.6019Z" fill="#960096"/>
<path d="M77.8155 22.7334H81.7498V20.9864H77.8155V19.0193H82.4045V16.832H75.6311V26.8849H82.6219V24.9207H77.8155V22.7334Z" fill="#960096"/>
<path d="M87.434 19.6741C87.434 19.0193 87.8714 18.7992 88.7435 18.7992C89.6156 18.7992 90.4933 19.2367 91.1481 19.4568C91.3654 19.4568 91.3654 19.6741 91.3654 19.6741L92.4576 17.707C88.9608 15.7399 86.3361 16.6148 85.4612 18.5819C85.0237 19.2395 85.0237 20.3317 85.2439 20.9865C86.1188 23.1709 90.2732 22.7363 90.2732 24.0458C90.2732 24.4833 89.8357 24.7034 88.9608 24.7034C88.5233 24.7034 88.0859 24.7034 87.8686 24.4861C87.211 24.2659 86.5591 24.0486 86.1188 23.8285C85.9015 23.6112 85.6842 23.6112 85.6842 23.6112L84.5891 25.5783C85.9015 26.4532 88.306 27.108 90.2732 26.6705C91.1481 26.4532 91.8028 26.0129 92.2403 25.1408C92.6777 24.4861 92.6777 23.1737 92.2403 22.519C91.5827 20.5518 87.4311 21.2094 87.4311 19.6769L87.434 19.6741Z" fill="#960096"/>
<path d="M109.072 8.08862H102.296V1.31235C102.296 0.654766 101.638 0 100.984 0H19.0165C18.3589 0 17.7041 0.657588 17.7041 1.31235V110.605C17.7041 111.259 18.3617 111.914 19.0165 111.914H25.7927V118.69C25.7927 119.345 26.4503 120 27.1051 120H109.072C109.73 120 110.385 119.342 110.385 118.69V9.40097C110.385 8.52607 109.947 8.09144 109.072 8.09144V8.08862ZM107.763 32.569H28.4146V10.7105H107.76V32.5718L107.763 32.569ZM20.326 109.072V2.62189H99.6712V8.08862H27.1051C26.4475 8.08862 25.7927 8.74339 25.7927 9.39815V109.072H20.3288H20.326ZM28.4146 117.378V35.411H107.76V117.378H28.4146Z" fill="#960096"/>
<path d="M33.8786 73.6641H67.9773C68.6348 73.6641 69.2896 73.0065 69.2896 72.3545V40.8778C69.2896 40.2202 68.632 39.5654 67.9773 39.5654H33.8786C33.2239 39.5654 32.5691 40.223 32.5691 40.8778V72.3545C32.5691 73.0093 33.2267 73.6641 33.8786 73.6641ZM35.4083 42.1873H66.885V70.822H35.4083V42.1873Z" fill="#960096"/>
<path d="M102.296 39.3452H73.6611C73.0063 39.3452 72.3516 40.0028 72.3516 40.6547V57.0493C72.3516 57.7041 73.0092 58.3588 73.6611 58.3588H102.296C102.953 58.3588 103.605 57.7012 103.605 57.0493V40.6547C103.605 40 102.951 39.3452 102.296 39.3452ZM100.983 55.7398H74.9735V41.9699H100.983V55.7398Z" fill="#960096"/>
<path d="M102.296 61.2036H73.6611C73.0063 61.2036 72.3516 61.8612 72.3516 62.516C72.3516 63.1707 73.0092 63.8255 73.6611 63.8255H102.296C102.953 63.8255 103.605 63.1679 103.605 62.516C103.605 61.864 102.951 61.2036 102.296 61.2036Z" fill="#960096"/>
<path d="M102.296 66.6675H73.6611C73.0063 66.6675 72.3516 67.3251 72.3516 67.9798C72.3516 68.6346 73.0092 69.2894 73.6611 69.2894H102.296C102.953 69.2894 103.605 68.6318 103.605 67.9798C103.605 67.3279 102.951 66.6675 102.296 66.6675Z" fill="#960096"/>
<path d="M102.296 72.1316H73.6611C73.0063 72.1316 72.3516 72.7892 72.3516 73.4439C72.3516 74.0987 73.0092 74.7535 73.6611 74.7535H102.296C102.953 74.7535 103.605 74.0959 103.605 73.4439C103.605 72.792 102.951 72.1316 102.296 72.1316Z" fill="#960096"/>
<path d="M102.296 77.5981H33.8786C33.2239 77.5981 32.5691 78.2557 32.5691 78.9105C32.5691 79.5653 33.2267 80.22 33.8786 80.22H102.296C102.954 80.22 103.606 79.5624 103.606 78.9105C103.606 78.2586 102.951 77.5981 102.296 77.5981Z" fill="#960096"/>
<path d="M102.296 83.0623H33.8786C33.2239 83.0623 32.5691 83.7198 32.5691 84.3746C32.5691 85.0294 33.2267 85.6841 33.8786 85.6841H102.296C102.954 85.6841 103.606 85.0294 103.606 84.3746C103.606 83.7198 102.951 83.0623 102.296 83.0623Z" fill="#960096"/>
<path d="M102.296 88.5261H33.8786C33.2239 88.5261 32.5691 89.1837 32.5691 89.8385C32.5691 90.4932 33.2267 91.148 33.8786 91.148H102.296C102.954 91.148 103.606 90.4932 103.606 89.8385C103.606 89.1837 102.951 88.5261 102.296 88.5261Z" fill="#960096"/>
<path d="M102.296 93.99H33.8786C33.2239 93.99 32.5691 94.6476 32.5691 95.3023C32.5691 95.9571 33.2267 96.6119 33.8786 96.6119H102.296C102.954 96.6119 103.606 95.9571 103.606 95.3023C103.606 94.6476 102.951 93.99 102.296 93.99Z" fill="#960096"/>
<path d="M102.296 99.4539H33.8786C33.2239 99.4539 32.5691 100.111 32.5691 100.766C32.5691 101.421 33.2267 102.076 33.8786 102.076H102.296C102.954 102.076 103.606 101.421 103.606 100.766C103.606 100.111 102.951 99.4539 102.296 99.4539Z" fill="#960096"/>
<path d="M102.296 104.921H33.8786C33.2239 104.921 32.5691 105.575 32.5691 106.23C32.5691 106.885 33.2267 107.54 33.8786 107.54H102.296C102.954 107.54 103.606 106.885 103.606 106.23C103.606 105.575 102.951 104.921 102.296 104.921Z" fill="#960096"/>
<path d="M102.296 110.385H33.8786C33.2239 110.385 32.5691 111.039 32.5691 111.694C32.5691 112.349 33.2267 113.004 33.8786 113.004H102.296C102.954 113.004 103.606 112.349 103.606 111.694C103.606 111.039 102.951 110.385 102.296 110.385Z" fill="#960096"/>
<path d="M13.5525 91.3681C13.5525 87.6511 10.4932 84.5918 6.77626 84.5918C3.05934 84.5918 0 87.6511 0 91.3681C0 95.085 3.05934 98.1443 6.77626 98.1443C10.4932 98.1443 13.5525 95.085 13.5525 91.3681ZM6.55613 95.5196C4.37169 95.5196 2.40175 93.7698 2.40175 91.3681C2.40175 89.1808 4.15156 87.2137 6.55613 87.2137C8.9607 87.2137 10.7105 88.9635 10.7105 91.3681C10.7105 93.5525 8.9607 95.5196 6.55613 95.5196Z" fill="#960096"/>
<path d="M125.467 33.2237C125.467 29.7269 122.625 27.105 119.345 27.105C116.066 27.105 113.224 29.947 113.224 33.2237C113.224 36.7204 116.066 39.3452 119.345 39.3452C122.625 39.3452 125.467 36.7233 125.467 33.2237ZM119.345 36.7204C117.378 36.7204 115.849 35.1908 115.849 33.2237C115.849 31.2565 117.378 29.7269 119.345 29.7269C121.312 29.7269 122.842 31.2565 122.842 33.2237C122.842 35.1908 121.312 36.7204 119.345 36.7204Z" fill="#960096"/>
<path d="M8.74338 12.2402C9.82995 12.2402 10.7105 13.1208 10.7105 14.2074C10.7105 15.2939 9.82995 16.1745 8.74338 16.1745C7.65681 16.1745 6.77344 15.2939 6.77344 14.2074C6.77344 13.1208 7.65398 12.2402 8.74338 12.2402Z" fill="#960096"/>
<path d="M8.74338 55.957C9.82995 55.957 10.7105 56.8376 10.7105 57.927C10.7105 59.0164 9.82995 59.8941 8.74338 59.8941C7.65681 59.8941 6.77344 59.0135 6.77344 57.927C6.77344 56.8404 7.65398 55.957 8.74338 55.957Z" fill="#960096"/>
<path d="M116.723 12.0229C117.81 12.0229 118.69 11.1422 118.69 10.0557C118.69 8.96933 117.81 8.08862 116.723 8.08862C115.637 8.08862 114.756 8.96933 114.756 10.0557C114.756 11.1422 115.637 12.0229 116.723 12.0229Z" fill="#960096"/>
<path d="M116.723 58.3617C117.81 58.3617 118.69 57.481 118.69 56.3946C118.69 55.3082 117.81 54.4275 116.723 54.4275C115.637 54.4275 114.756 55.3082 114.756 56.3946C114.756 57.481 115.637 58.3617 116.723 58.3617Z" fill="#960096"/>
<path d="M12.8949 111.914C13.9814 111.914 14.862 112.795 14.862 113.881C14.862 114.968 13.9814 115.851 12.8949 115.851C11.8083 115.851 10.9277 114.971 10.9277 113.881C10.9277 112.792 11.8083 111.914 12.8949 111.914Z" fill="#960096"/>
<path d="M124.809 103.608C125.896 103.608 126.776 104.489 126.776 105.575C126.776 106.662 125.896 107.542 124.809 107.542C123.723 107.542 122.842 106.662 122.842 105.575C122.842 104.489 123.723 103.608 124.809 103.608Z" fill="#960096"/>
</svg>
