<svg width="26" height="26" viewBox="0 0 26 26" fill="none" xmlns="http://www.w3.org/2000/svg">
<path d="M13.0513 23.947C9.6386 23.9415 6.53458 22.5072 4.39247 20.0068C3.15252 18.5594 2.33964 16.8992 1.95339 15.032C1.85437 14.5534 1.7921 14.0695 1.7586 13.5814C1.72695 13.1208 1.72185 12.6603 1.74922 12.2C1.85066 10.4902 2.31654 8.88589 3.16374 7.39629C4.70123 4.69328 7.28211 2.75451 10.307 2.02451C10.7881 1.90841 11.275 1.82582 11.7675 1.77366C12.3902 1.70777 13.0139 1.69023 13.6387 1.7267C17.6558 1.96131 21.123 4.26462 22.9305 7.64157C23.4742 8.6575 23.8484 9.73319 24.0512 10.8682C24.1449 11.3924 24.1984 11.9203 24.2193 12.4526C24.2358 12.8739 24.2256 13.2942 24.1907 13.7133C24.0212 15.7476 23.3516 17.6035 22.1526 19.2558C20.5214 21.5036 18.3446 22.9547 15.6512 23.6292C15.1712 23.7494 14.6833 23.8287 14.1908 23.8808C13.7875 23.9235 13.3831 23.9406 13.0513 23.9471V23.947ZM19.4163 17.7866C19.4191 17.5797 19.3934 17.3592 19.3471 17.1406C19.0709 15.8365 17.9459 14.7157 16.3713 14.6186C15.9246 14.591 15.4901 14.66 15.0695 14.8154C13.6491 15.3403 12.803 16.7586 13.0003 18.2177C13.0865 18.8548 13.3456 19.4133 13.7683 19.8958C14.5237 20.758 15.7212 21.1603 16.87 20.9153C18.3248 20.6051 19.4129 19.3366 19.4162 17.7866H19.4163ZM6.54172 7.8553C6.54172 8.33296 6.64585 8.78696 6.85206 9.21757C7.53686 10.6472 9.18358 11.3654 10.7085 10.8999C12.0362 10.4947 12.9428 9.3165 12.9864 7.93177C13.0006 7.48093 12.9152 7.04605 12.7387 6.63019C12.1005 5.12705 10.469 4.37923 8.95806 4.77021C7.52684 5.1405 6.54265 6.39995 6.54172 7.8553ZM21.0528 9.38703C21.0606 8.90009 20.9312 8.41166 20.7398 8.01641C20.1104 6.71632 18.6775 5.99458 17.2465 6.25824C15.8213 6.52078 14.7529 7.67805 14.6226 9.11057C14.5715 9.67278 14.6662 10.2135 14.9077 10.7262C15.5436 12.0758 17.0152 12.8093 18.4871 12.5089C19.976 12.2049 21.0604 10.9016 21.0528 9.38703ZM11.3456 16.2351C11.3512 16.0395 11.3259 15.8155 11.2767 15.5944C10.9234 14.0059 9.46078 12.9729 7.89406 13.0874C7.39821 13.1236 6.93577 13.2644 6.50544 13.5112C5.0588 14.3408 4.49493 16.1337 5.21472 17.6286C5.90128 19.0545 7.48693 19.7269 8.94656 19.3445C10.3835 18.9679 11.3517 17.688 11.3457 16.2351L11.3456 16.2351ZM14.3521 12.9043C14.3651 12.2041 13.7932 11.491 12.9172 11.4859C12.1261 11.4813 11.4821 12.1242 11.4821 12.9068C11.4821 13.6886 12.1269 14.3257 12.9197 14.3249C13.7283 14.324 14.3614 13.667 14.3522 12.9043H14.3521Z" fill="#960096"/>
<path d="M20.46 3.19043C20.6895 3.25066 20.919 3.3107 21.1485 3.37112C21.776 3.53622 22.4054 3.69463 23.0306 3.86809C24.4917 4.27336 25.5765 5.4375 25.8804 6.92078C26.0028 7.51854 25.9791 8.11369 25.8215 8.70309C25.6012 9.527 25.3798 10.3505 25.1585 11.1743C25.15 11.206 25.1388 11.2369 25.1236 11.2845C24.6416 7.95676 23.0707 5.27824 20.46 3.19052V3.19043Z" fill="#960096"/>
<path d="M14.762 24.8914C18.0226 24.3389 20.6752 22.7748 22.7342 20.1924C22.7211 20.2425 22.7084 20.2928 22.695 20.3428C22.4798 21.1424 22.2698 21.9434 22.0482 22.7412C21.659 24.1422 20.5219 25.2216 19.1071 25.5482C18.4044 25.7104 17.71 25.6788 17.0165 25.4895C16.2952 25.2925 15.5707 25.1079 14.8475 24.9177C14.8188 24.9101 14.7905 24.9002 14.7621 24.8914H14.762Z" fill="#960096"/>
<path d="M11.1455 0.747243C7.99601 1.24226 5.39267 2.69771 3.32202 5.13614C3.32518 5.10579 3.32453 5.08658 3.32926 5.06885C3.52239 4.34962 3.71078 3.62909 3.91077 2.91181C4.30268 1.50629 5.44222 0.427533 6.86213 0.103646C7.5395 -0.0508725 8.21076 -0.0301772 8.88071 0.149399C9.59994 0.342246 10.321 0.528411 11.0413 0.717731C11.0762 0.726919 11.1108 0.737406 11.1455 0.747336V0.747243Z" fill="#960096"/>
<path d="M0.710377 14.8252C1.28047 17.9128 2.80079 20.4217 5.23096 22.3933C5.06716 22.3504 4.90327 22.3077 4.73947 22.2646C4.13587 22.1058 3.53051 21.9536 2.92923 21.7865C1.46719 21.3805 0.383985 20.2193 0.0785661 18.7352C-0.0477403 18.1216 -0.0163725 17.5122 0.147427 16.9081C0.32858 16.2402 0.506857 15.5714 0.686619 14.9031C0.693672 14.8769 0.702395 14.8512 0.710377 14.8252Z" fill="#960096"/>
</svg>
