<svg width="27" height="27" viewBox="0 0 27 27" fill="none" xmlns="http://www.w3.org/2000/svg">
<path d="M11.5835 16.0804C9.93077 17.8483 8.34143 19.5476 6.75339 21.2483C5.3556 22.7444 3.97076 24.2548 2.54708 25.7251C2.32706 25.9529 1.9349 26.0758 1.60487 26.1224C1.12858 26.1884 0.635476 26.1393 0.0802434 25.9839C3.57342 22.2487 7.0666 18.5135 10.5882 14.7486C7.05754 10.022 3.5566 5.33421 0 0.572665C0.231671 0.545486 0.350741 0.518306 0.469812 0.518306C2.75546 0.515718 5.0411 0.535132 7.32674 0.502775C7.81209 0.496304 8.0114 0.764214 8.24566 1.07742C10.3747 3.92606 12.5076 6.77212 14.6392 9.61947C14.7286 9.73854 14.8269 9.85114 14.9745 10.0336C15.6138 9.3632 16.2376 8.71996 16.8485 8.06637C19.0125 5.75225 21.183 3.4446 23.3224 1.10848C23.7223 0.672322 24.1209 0.44324 24.715 0.509247C25.1149 0.554545 25.5239 0.518306 26.1374 0.518306C22.6778 4.23151 19.3425 7.81011 15.9775 11.4211C19.6247 16.3004 23.2447 21.1422 26.9307 26.0733C26.6499 26.103 26.4894 26.1354 26.3289 26.1354C24.1507 26.138 21.9738 26.1186 19.7955 26.1496C19.2765 26.1574 18.9724 25.9723 18.6773 25.5737C16.5133 22.6435 14.3325 19.7263 12.1543 16.8051C11.9886 16.5825 11.8113 16.369 11.5822 16.0791L11.5835 16.0804ZM23.6757 24.4192C23.4751 24.128 23.3508 23.9339 23.2136 23.7514C21.5221 21.4916 19.8266 19.2344 18.1337 16.976C14.5681 12.2157 11.0037 7.45289 7.43158 2.69782C7.28533 2.50368 7.0666 2.23577 6.87246 2.2293C5.74258 2.184 4.61011 2.2073 3.36116 2.2073C3.55142 2.48686 3.66143 2.66288 3.78568 2.82725C4.93368 4.36352 6.08556 5.89721 7.23485 7.43219C11.3557 12.934 15.4753 18.4372 19.604 23.9326C19.7502 24.1267 19.9741 24.3894 20.1696 24.3959C21.2995 24.4399 22.4332 24.4179 23.6757 24.4179V24.4192Z" fill="#960096"/>
</svg>
